M48
; DRILL file {KiCad (5.1.6)-1} date 08/19/20 15:04:19
; FORMAT={-:-/ absolute / inch / decimal}
; #@! TF.CreationDate,2020-08-19T15:04:19+02:00
; #@! TF.GenerationSoftware,Kicad,Pcbnew,(5.1.6)-1
; #@! TF.FileFunction,Plated,1,2,PTH
FMAT,2
INCH
T1C0.0118
T2C0.0394
%
G90
G05
T1
X4.7638Y-3.7402
X4.7638Y-3.7795
X4.7638Y-3.8189
X4.7638Y-3.8583
X4.7638Y-3.8976
X4.7638Y-3.937
X4.7638Y-3.9764
X4.7638Y-4.0157
X4.7638Y-4.0551
X4.7638Y-4.0945
X4.7638Y-4.1339
X4.7638Y-4.1732
X4.7638Y-4.2126
X4.7638Y-4.252
X4.7638Y-4.2913
X4.8031Y-3.7402
X4.8031Y-3.7795
X4.8031Y-3.8189
X4.8425Y-3.7402
X4.8425Y-3.7795
X4.8425Y-3.8189
X4.872Y-4.252
X4.8819Y-3.7402
X4.8819Y-3.7795
X4.8819Y-3.8189
X4.9213Y-3.7402
X4.9213Y-3.7795
X4.9213Y-3.8189
X4.9213Y-4.252
X4.9705Y-3.7402
X4.9705Y-3.7795
X4.9705Y-3.8189
X4.9705Y-4.252
X5.0Y-3.8976
X5.0098Y-3.7402
X5.0098Y-3.7795
X5.0098Y-3.8189
X5.0197Y-4.252
X5.0394Y-3.8976
X5.0394Y-3.937
X5.0492Y-3.7402
X5.0492Y-3.7795
X5.0492Y-3.8189
X5.0787Y-3.937
X5.0984Y-3.7402
X5.0984Y-3.7795
X5.0984Y-3.8189
X5.1378Y-4.1732
X5.1417Y-4.0197
X5.1575Y-3.7402
X5.189Y-4.0197
X5.189Y-4.0551
X5.1969Y-3.7402
X5.2165Y-4.252
X5.2362Y-3.7402
X5.2362Y-3.8583
X5.2362Y-3.8976
X5.2559Y-4.1339
X5.2756Y-3.7402
X5.2756Y-3.937
X5.2756Y-3.9764
X5.2756Y-4.2717
X5.315Y-3.7402
X5.315Y-3.8583
X5.315Y-3.8976
X5.315Y-3.937
X5.315Y-3.9764
X5.315Y-4.1535
X5.315Y-4.2323
X5.315Y-4.2717
X5.3543Y-3.7402
X5.3543Y-3.8583
X5.3543Y-3.8976
X5.3543Y-3.937
X5.3543Y-3.9764
X5.3543Y-4.1929
X5.3543Y-4.2323
X5.3543Y-4.2717
X5.3937Y-3.7402
X5.3937Y-3.8583
X5.3937Y-3.8976
X5.3937Y-3.937
X5.3937Y-3.9764
X5.3937Y-4.0748
X5.3937Y-4.2323
X5.3937Y-4.2717
X5.4331Y-3.8583
X5.4331Y-3.8976
X5.4331Y-3.937
X5.4331Y-3.9764
X5.4331Y-4.0748
X5.4331Y-4.2323
X5.4331Y-4.2717
X5.4724Y-3.8583
X5.4724Y-3.8976
X5.4724Y-3.937
X5.4724Y-4.0748
X5.4724Y-4.1142
X5.4724Y-4.1535
X5.4724Y-4.2323
X5.4724Y-4.2717
X5.5118Y-3.8583
X5.5118Y-3.8976
X5.5118Y-3.937
X5.5118Y-4.0748
X5.5118Y-4.1142
X5.5118Y-4.1535
X5.5118Y-4.2323
X5.5827Y-4.0197
X5.5906Y-4.2717
X5.6181Y-3.9843
X5.6299Y-3.8189
X5.6299Y-4.2323
X5.6299Y-4.2717
X5.6693Y-3.8189
X5.6693Y-3.8583
X5.6693Y-3.8976
X5.6693Y-3.937
X5.6693Y-4.0748
X5.6693Y-4.1142
X5.7087Y-3.937
X5.7087Y-3.9764
X5.7087Y-4.1142
X5.7087Y-4.2126
X5.7087Y-4.311
X5.748Y-3.937
X5.748Y-4.1142
X5.7874Y-3.937
X5.7874Y-4.0748
X5.7874Y-4.1142
X5.8071Y-3.7205
X5.8071Y-3.8189
X5.8071Y-4.2126
X5.8071Y-4.311
X5.8268Y-3.937
X5.8268Y-3.9764
X5.8268Y-4.0748
X5.8268Y-4.1142
X5.8661Y-3.937
X5.8661Y-3.9764
X5.8661Y-4.0748
X5.8661Y-4.1142
X5.9055Y-3.7205
X5.9055Y-3.8189
X5.9055Y-3.937
X5.9055Y-4.0748
X5.9055Y-4.1142
X5.9055Y-4.2126
X5.9055Y-4.311
X5.9449Y-3.937
X5.9449Y-3.9764
X5.9449Y-4.1142
X5.9843Y-3.937
X5.9843Y-3.9764
X5.9843Y-4.0748
X5.9843Y-4.1142
X6.0039Y-3.7205
X6.0039Y-3.8189
X6.0039Y-4.2126
X6.0039Y-4.311
X6.0236Y-3.937
X6.0236Y-3.9764
X6.0236Y-4.0748
X6.0236Y-4.1142
X6.063Y-3.937
X6.063Y-3.9764
X6.063Y-4.1142
X6.1024Y-3.7205
X6.1024Y-3.8189
X6.1024Y-3.937
X6.1024Y-3.9764
X6.1024Y-4.0748
X6.1024Y-4.1142
X6.1024Y-4.2126
X6.1024Y-4.311
X6.1417Y-3.8976
X6.1417Y-4.1929
X6.1614Y-4.1339
X6.1811Y-4.1929
X6.2205Y-4.1929
X6.2402Y-4.1339
X6.2598Y-3.8976
T2
X4.8409Y-3.8843
X4.8409Y-3.9843
X4.8409Y-4.0843
X4.8409Y-4.1843
X4.9409Y-3.8843
X4.9409Y-3.9843
X4.9409Y-4.0843
X4.9409Y-4.1843
T0
M30
