%TF.GenerationSoftware,KiCad,Pcbnew,(5.1.6)-1*%
%TF.CreationDate,2020-08-19T15:04:17+02:00*%
%TF.ProjectId,nRF24module,6e524632-346d-46f6-9475-6c652e6b6963,1*%
%TF.SameCoordinates,Original*%
%TF.FileFunction,Legend,Top*%
%TF.FilePolarity,Positive*%
%FSLAX46Y46*%
G04 Gerber Fmt 4.6, Leading zero omitted, Abs format (unit mm)*
G04 Created by KiCad (PCBNEW (5.1.6)-1) date 2020-08-19 15:04:17*
%MOMM*%
%LPD*%
G01*
G04 APERTURE LIST*
%ADD10C,0.200000*%
%ADD11C,0.120000*%
%ADD12C,0.250000*%
%ADD13C,0.150000*%
%ADD14C,0.254000*%
G04 APERTURE END LIST*
D10*
X146676190Y-94652380D02*
X147009523Y-95652380D01*
X147342857Y-94652380D01*
X148200000Y-95652380D02*
X147628571Y-95652380D01*
X147914285Y-95652380D02*
X147914285Y-94652380D01*
X147819047Y-94795238D01*
X147723809Y-94890476D01*
X147628571Y-94938095D01*
X148628571Y-95557142D02*
X148676190Y-95604761D01*
X148628571Y-95652380D01*
X148580952Y-95604761D01*
X148628571Y-95557142D01*
X148628571Y-95652380D01*
X149295238Y-94652380D02*
X149390476Y-94652380D01*
X149485714Y-94700000D01*
X149533333Y-94747619D01*
X149580952Y-94842857D01*
X149628571Y-95033333D01*
X149628571Y-95271428D01*
X149580952Y-95461904D01*
X149533333Y-95557142D01*
X149485714Y-95604761D01*
X149390476Y-95652380D01*
X149295238Y-95652380D01*
X149200000Y-95604761D01*
X149152380Y-95557142D01*
X149104761Y-95461904D01*
X149057142Y-95271428D01*
X149057142Y-95033333D01*
X149104761Y-94842857D01*
X149152380Y-94747619D01*
X149200000Y-94700000D01*
X149295238Y-94652380D01*
X136790476Y-93852380D02*
X136790476Y-92852380D01*
X137028571Y-92852380D01*
X137171428Y-92900000D01*
X137266666Y-92995238D01*
X137314285Y-93090476D01*
X137361904Y-93280952D01*
X137361904Y-93423809D01*
X137314285Y-93614285D01*
X137266666Y-93709523D01*
X137171428Y-93804761D01*
X137028571Y-93852380D01*
X136790476Y-93852380D01*
X138171428Y-93804761D02*
X138076190Y-93852380D01*
X137885714Y-93852380D01*
X137790476Y-93804761D01*
X137742857Y-93709523D01*
X137742857Y-93328571D01*
X137790476Y-93233333D01*
X137885714Y-93185714D01*
X138076190Y-93185714D01*
X138171428Y-93233333D01*
X138219047Y-93328571D01*
X138219047Y-93423809D01*
X137742857Y-93519047D01*
X138600000Y-93804761D02*
X138695238Y-93852380D01*
X138885714Y-93852380D01*
X138980952Y-93804761D01*
X139028571Y-93709523D01*
X139028571Y-93661904D01*
X138980952Y-93566666D01*
X138885714Y-93519047D01*
X138742857Y-93519047D01*
X138647619Y-93471428D01*
X138600000Y-93376190D01*
X138600000Y-93328571D01*
X138647619Y-93233333D01*
X138742857Y-93185714D01*
X138885714Y-93185714D01*
X138980952Y-93233333D01*
X139457142Y-93852380D02*
X139457142Y-93185714D01*
X139457142Y-92852380D02*
X139409523Y-92900000D01*
X139457142Y-92947619D01*
X139504761Y-92900000D01*
X139457142Y-92852380D01*
X139457142Y-92947619D01*
X140361904Y-93185714D02*
X140361904Y-93995238D01*
X140314285Y-94090476D01*
X140266666Y-94138095D01*
X140171428Y-94185714D01*
X140028571Y-94185714D01*
X139933333Y-94138095D01*
X140361904Y-93804761D02*
X140266666Y-93852380D01*
X140076190Y-93852380D01*
X139980952Y-93804761D01*
X139933333Y-93757142D01*
X139885714Y-93661904D01*
X139885714Y-93376190D01*
X139933333Y-93280952D01*
X139980952Y-93233333D01*
X140076190Y-93185714D01*
X140266666Y-93185714D01*
X140361904Y-93233333D01*
X140838095Y-93185714D02*
X140838095Y-93852380D01*
X140838095Y-93280952D02*
X140885714Y-93233333D01*
X140980952Y-93185714D01*
X141123809Y-93185714D01*
X141219047Y-93233333D01*
X141266666Y-93328571D01*
X141266666Y-93852380D01*
X142123809Y-93804761D02*
X142028571Y-93852380D01*
X141838095Y-93852380D01*
X141742857Y-93804761D01*
X141695238Y-93709523D01*
X141695238Y-93328571D01*
X141742857Y-93233333D01*
X141838095Y-93185714D01*
X142028571Y-93185714D01*
X142123809Y-93233333D01*
X142171428Y-93328571D01*
X142171428Y-93423809D01*
X141695238Y-93519047D01*
X143028571Y-93852380D02*
X143028571Y-92852380D01*
X143028571Y-93804761D02*
X142933333Y-93852380D01*
X142742857Y-93852380D01*
X142647619Y-93804761D01*
X142600000Y-93757142D01*
X142552380Y-93661904D01*
X142552380Y-93376190D01*
X142600000Y-93280952D01*
X142647619Y-93233333D01*
X142742857Y-93185714D01*
X142933333Y-93185714D01*
X143028571Y-93233333D01*
X144266666Y-93852380D02*
X144266666Y-92852380D01*
X144266666Y-93233333D02*
X144361904Y-93185714D01*
X144552380Y-93185714D01*
X144647619Y-93233333D01*
X144695238Y-93280952D01*
X144742857Y-93376190D01*
X144742857Y-93661904D01*
X144695238Y-93757142D01*
X144647619Y-93804761D01*
X144552380Y-93852380D01*
X144361904Y-93852380D01*
X144266666Y-93804761D01*
X145076190Y-93185714D02*
X145314285Y-93852380D01*
X145552380Y-93185714D02*
X145314285Y-93852380D01*
X145219047Y-94090476D01*
X145171428Y-94138095D01*
X145076190Y-94185714D01*
X146980952Y-92852380D02*
X146980952Y-93566666D01*
X146933333Y-93709523D01*
X146838095Y-93804761D01*
X146695238Y-93852380D01*
X146600000Y-93852380D01*
X147885714Y-93852380D02*
X147885714Y-93328571D01*
X147838095Y-93233333D01*
X147742857Y-93185714D01*
X147552380Y-93185714D01*
X147457142Y-93233333D01*
X147885714Y-93804761D02*
X147790476Y-93852380D01*
X147552380Y-93852380D01*
X147457142Y-93804761D01*
X147409523Y-93709523D01*
X147409523Y-93614285D01*
X147457142Y-93519047D01*
X147552380Y-93471428D01*
X147790476Y-93471428D01*
X147885714Y-93423809D01*
X148361904Y-93185714D02*
X148361904Y-93852380D01*
X148361904Y-93280952D02*
X148409523Y-93233333D01*
X148504761Y-93185714D01*
X148647619Y-93185714D01*
X148742857Y-93233333D01*
X148790476Y-93328571D01*
X148790476Y-93852380D01*
X150028571Y-93852380D02*
X150028571Y-92852380D01*
X150361904Y-93566666D01*
X150695238Y-92852380D01*
X150695238Y-93852380D01*
X151600000Y-93852380D02*
X151600000Y-93328571D01*
X151552380Y-93233333D01*
X151457142Y-93185714D01*
X151266666Y-93185714D01*
X151171428Y-93233333D01*
X151600000Y-93804761D02*
X151504761Y-93852380D01*
X151266666Y-93852380D01*
X151171428Y-93804761D01*
X151123809Y-93709523D01*
X151123809Y-93614285D01*
X151171428Y-93519047D01*
X151266666Y-93471428D01*
X151504761Y-93471428D01*
X151600000Y-93423809D01*
X152076190Y-93852380D02*
X152076190Y-93185714D01*
X152076190Y-93376190D02*
X152123809Y-93280952D01*
X152171428Y-93233333D01*
X152266666Y-93185714D01*
X152361904Y-93185714D01*
X152552380Y-93185714D02*
X152933333Y-93185714D01*
X152695238Y-92852380D02*
X152695238Y-93709523D01*
X152742857Y-93804761D01*
X152838095Y-93852380D01*
X152933333Y-93852380D01*
X154504761Y-93852380D02*
X154028571Y-93852380D01*
X154028571Y-92852380D01*
X154838095Y-93852380D02*
X154838095Y-93185714D01*
X154838095Y-92852380D02*
X154790476Y-92900000D01*
X154838095Y-92947619D01*
X154885714Y-92900000D01*
X154838095Y-92852380D01*
X154838095Y-92947619D01*
X155695238Y-93804761D02*
X155600000Y-93852380D01*
X155409523Y-93852380D01*
X155314285Y-93804761D01*
X155266666Y-93709523D01*
X155266666Y-93328571D01*
X155314285Y-93233333D01*
X155409523Y-93185714D01*
X155600000Y-93185714D01*
X155695238Y-93233333D01*
X155742857Y-93328571D01*
X155742857Y-93423809D01*
X155266666Y-93519047D01*
X156076190Y-93185714D02*
X156266666Y-93852380D01*
X156457142Y-93376190D01*
X156647619Y-93852380D01*
X156838095Y-93185714D01*
X157600000Y-93804761D02*
X157504761Y-93852380D01*
X157314285Y-93852380D01*
X157219047Y-93804761D01*
X157171428Y-93709523D01*
X157171428Y-93328571D01*
X157219047Y-93233333D01*
X157314285Y-93185714D01*
X157504761Y-93185714D01*
X157600000Y-93233333D01*
X157647619Y-93328571D01*
X157647619Y-93423809D01*
X157171428Y-93519047D01*
X158028571Y-93804761D02*
X158123809Y-93852380D01*
X158314285Y-93852380D01*
X158409523Y-93804761D01*
X158457142Y-93709523D01*
X158457142Y-93661904D01*
X158409523Y-93566666D01*
X158314285Y-93519047D01*
X158171428Y-93519047D01*
X158076190Y-93471428D01*
X158028571Y-93376190D01*
X158028571Y-93328571D01*
X158076190Y-93233333D01*
X158171428Y-93185714D01*
X158314285Y-93185714D01*
X158409523Y-93233333D01*
D11*
%TO.C,H1*%
X126830000Y-97330000D02*
X121630000Y-97330000D01*
X126830000Y-105010000D02*
X126830000Y-97330000D01*
X121630000Y-107610000D02*
X121630000Y-97330000D01*
X126830000Y-105010000D02*
X124230000Y-105010000D01*
X124230000Y-105010000D02*
X124230000Y-107610000D01*
X124230000Y-107610000D02*
X121630000Y-107610000D01*
X126830000Y-106280000D02*
X126830000Y-107610000D01*
X126830000Y-107610000D02*
X125500000Y-107610000D01*
%TO.C,U1*%
X132385000Y-100290000D02*
X133110000Y-100290000D01*
X133110000Y-100290000D02*
X133110000Y-101015000D01*
X129615000Y-104510000D02*
X128890000Y-104510000D01*
X128890000Y-104510000D02*
X128890000Y-103785000D01*
X132385000Y-104510000D02*
X133110000Y-104510000D01*
X133110000Y-104510000D02*
X133110000Y-103785000D01*
X129615000Y-100290000D02*
X128890000Y-100290000D01*
D12*
%TO.C,U2*%
X140425000Y-100200000D02*
G75*
G03*
X140425000Y-100200000I-125000J0D01*
G01*
D11*
%TO.C,C11*%
X144790000Y-102950279D02*
X144790000Y-102624721D01*
X145810000Y-102950279D02*
X145810000Y-102624721D01*
%TO.C,X1*%
X129400000Y-105250000D02*
X129400000Y-108550000D01*
X129400000Y-108550000D02*
X133400000Y-108550000D01*
%TO.C,J1*%
X154740000Y-102250000D02*
X155240000Y-102000000D01*
X154740000Y-101750000D02*
X154740000Y-102250000D01*
X155240000Y-102000000D02*
X154740000Y-101750000D01*
X159500000Y-103950000D02*
X159500000Y-102840000D01*
X159500000Y-101160000D02*
X159500000Y-100050000D01*
X155790000Y-103950000D02*
X155790000Y-102840000D01*
X155790000Y-101160000D02*
X155790000Y-100050000D01*
%TO.C,R5*%
D13*
X142583333Y-108202380D02*
X142250000Y-107726190D01*
X142011904Y-108202380D02*
X142011904Y-107202380D01*
X142392857Y-107202380D01*
X142488095Y-107250000D01*
X142535714Y-107297619D01*
X142583333Y-107392857D01*
X142583333Y-107535714D01*
X142535714Y-107630952D01*
X142488095Y-107678571D01*
X142392857Y-107726190D01*
X142011904Y-107726190D01*
X143488095Y-107202380D02*
X143011904Y-107202380D01*
X142964285Y-107678571D01*
X143011904Y-107630952D01*
X143107142Y-107583333D01*
X143345238Y-107583333D01*
X143440476Y-107630952D01*
X143488095Y-107678571D01*
X143535714Y-107773809D01*
X143535714Y-108011904D01*
X143488095Y-108107142D01*
X143440476Y-108154761D01*
X143345238Y-108202380D01*
X143107142Y-108202380D01*
X143011904Y-108154761D01*
X142964285Y-108107142D01*
%TO.C,H1*%
X119688095Y-107932380D02*
X119688095Y-106932380D01*
X119688095Y-107408571D02*
X120259523Y-107408571D01*
X120259523Y-107932380D02*
X120259523Y-106932380D01*
X121259523Y-107932380D02*
X120688095Y-107932380D01*
X120973809Y-107932380D02*
X120973809Y-106932380D01*
X120878571Y-107075238D01*
X120783333Y-107170476D01*
X120688095Y-107218095D01*
%TO.C,U1*%
X126638095Y-101352380D02*
X126638095Y-102161904D01*
X126685714Y-102257142D01*
X126733333Y-102304761D01*
X126828571Y-102352380D01*
X127019047Y-102352380D01*
X127114285Y-102304761D01*
X127161904Y-102257142D01*
X127209523Y-102161904D01*
X127209523Y-101352380D01*
X128209523Y-102352380D02*
X127638095Y-102352380D01*
X127923809Y-102352380D02*
X127923809Y-101352380D01*
X127828571Y-101495238D01*
X127733333Y-101590476D01*
X127638095Y-101638095D01*
%TO.C,U2*%
D14*
X143732380Y-99004523D02*
X143732380Y-100032619D01*
X143792857Y-100153571D01*
X143853333Y-100214047D01*
X143974285Y-100274523D01*
X144216190Y-100274523D01*
X144337142Y-100214047D01*
X144397619Y-100153571D01*
X144458095Y-100032619D01*
X144458095Y-99004523D01*
X145002380Y-99125476D02*
X145062857Y-99065000D01*
X145183809Y-99004523D01*
X145486190Y-99004523D01*
X145607142Y-99065000D01*
X145667619Y-99125476D01*
X145728095Y-99246428D01*
X145728095Y-99367380D01*
X145667619Y-99548809D01*
X144941904Y-100274523D01*
X145728095Y-100274523D01*
%TO.C,C11*%
D13*
X145657142Y-106392857D02*
X145704761Y-106440476D01*
X145752380Y-106583333D01*
X145752380Y-106678571D01*
X145704761Y-106821428D01*
X145609523Y-106916666D01*
X145514285Y-106964285D01*
X145323809Y-107011904D01*
X145180952Y-107011904D01*
X144990476Y-106964285D01*
X144895238Y-106916666D01*
X144800000Y-106821428D01*
X144752380Y-106678571D01*
X144752380Y-106583333D01*
X144800000Y-106440476D01*
X144847619Y-106392857D01*
X145752380Y-105440476D02*
X145752380Y-106011904D01*
X145752380Y-105726190D02*
X144752380Y-105726190D01*
X144895238Y-105821428D01*
X144990476Y-105916666D01*
X145038095Y-106011904D01*
X145752380Y-104488095D02*
X145752380Y-105059523D01*
X145752380Y-104773809D02*
X144752380Y-104773809D01*
X144895238Y-104869047D01*
X144990476Y-104964285D01*
X145038095Y-105059523D01*
%TO.C,X1*%
X127590476Y-105152380D02*
X128257142Y-106152380D01*
X128257142Y-105152380D02*
X127590476Y-106152380D01*
X129161904Y-106152380D02*
X128590476Y-106152380D01*
X128876190Y-106152380D02*
X128876190Y-105152380D01*
X128780952Y-105295238D01*
X128685714Y-105390476D01*
X128590476Y-105438095D01*
%TO.C,R4*%
X141352380Y-107166666D02*
X140876190Y-107500000D01*
X141352380Y-107738095D02*
X140352380Y-107738095D01*
X140352380Y-107357142D01*
X140400000Y-107261904D01*
X140447619Y-107214285D01*
X140542857Y-107166666D01*
X140685714Y-107166666D01*
X140780952Y-107214285D01*
X140828571Y-107261904D01*
X140876190Y-107357142D01*
X140876190Y-107738095D01*
X140685714Y-106309523D02*
X141352380Y-106309523D01*
X140304761Y-106547619D02*
X141019047Y-106785714D01*
X141019047Y-106166666D01*
%TO.C,R3*%
X143952380Y-105166666D02*
X143476190Y-105500000D01*
X143952380Y-105738095D02*
X142952380Y-105738095D01*
X142952380Y-105357142D01*
X143000000Y-105261904D01*
X143047619Y-105214285D01*
X143142857Y-105166666D01*
X143285714Y-105166666D01*
X143380952Y-105214285D01*
X143428571Y-105261904D01*
X143476190Y-105357142D01*
X143476190Y-105738095D01*
X142952380Y-104833333D02*
X142952380Y-104214285D01*
X143333333Y-104547619D01*
X143333333Y-104404761D01*
X143380952Y-104309523D01*
X143428571Y-104261904D01*
X143523809Y-104214285D01*
X143761904Y-104214285D01*
X143857142Y-104261904D01*
X143904761Y-104309523D01*
X143952380Y-104404761D01*
X143952380Y-104690476D01*
X143904761Y-104785714D01*
X143857142Y-104833333D01*
%TO.C,R2*%
X135552380Y-98581666D02*
X135076190Y-98915000D01*
X135552380Y-99153095D02*
X134552380Y-99153095D01*
X134552380Y-98772142D01*
X134600000Y-98676904D01*
X134647619Y-98629285D01*
X134742857Y-98581666D01*
X134885714Y-98581666D01*
X134980952Y-98629285D01*
X135028571Y-98676904D01*
X135076190Y-98772142D01*
X135076190Y-99153095D01*
X134647619Y-98200714D02*
X134600000Y-98153095D01*
X134552380Y-98057857D01*
X134552380Y-97819761D01*
X134600000Y-97724523D01*
X134647619Y-97676904D01*
X134742857Y-97629285D01*
X134838095Y-97629285D01*
X134980952Y-97676904D01*
X135552380Y-98248333D01*
X135552380Y-97629285D01*
%TO.C,L5*%
X152433333Y-101252380D02*
X151957142Y-101252380D01*
X151957142Y-100252380D01*
X153242857Y-100252380D02*
X152766666Y-100252380D01*
X152719047Y-100728571D01*
X152766666Y-100680952D01*
X152861904Y-100633333D01*
X153100000Y-100633333D01*
X153195238Y-100680952D01*
X153242857Y-100728571D01*
X153290476Y-100823809D01*
X153290476Y-101061904D01*
X153242857Y-101157142D01*
X153195238Y-101204761D01*
X153100000Y-101252380D01*
X152861904Y-101252380D01*
X152766666Y-101204761D01*
X152719047Y-101157142D01*
%TO.C,L4*%
X148133333Y-103702380D02*
X147657142Y-103702380D01*
X147657142Y-102702380D01*
X148895238Y-103035714D02*
X148895238Y-103702380D01*
X148657142Y-102654761D02*
X148419047Y-103369047D01*
X149038095Y-103369047D01*
%TO.C,L3*%
X135633333Y-101602380D02*
X135157142Y-101602380D01*
X135157142Y-100602380D01*
X135871428Y-100602380D02*
X136490476Y-100602380D01*
X136157142Y-100983333D01*
X136300000Y-100983333D01*
X136395238Y-101030952D01*
X136442857Y-101078571D01*
X136490476Y-101173809D01*
X136490476Y-101411904D01*
X136442857Y-101507142D01*
X136395238Y-101554761D01*
X136300000Y-101602380D01*
X136014285Y-101602380D01*
X135919047Y-101554761D01*
X135871428Y-101507142D01*
%TO.C,L2*%
X135852380Y-106166666D02*
X135852380Y-106642857D01*
X134852380Y-106642857D01*
X134947619Y-105880952D02*
X134900000Y-105833333D01*
X134852380Y-105738095D01*
X134852380Y-105500000D01*
X134900000Y-105404761D01*
X134947619Y-105357142D01*
X135042857Y-105309523D01*
X135138095Y-105309523D01*
X135280952Y-105357142D01*
X135852380Y-105928571D01*
X135852380Y-105309523D01*
%TO.C,L1*%
X134752380Y-101036666D02*
X134752380Y-101512857D01*
X133752380Y-101512857D01*
X134752380Y-100179523D02*
X134752380Y-100750952D01*
X134752380Y-100465238D02*
X133752380Y-100465238D01*
X133895238Y-100560476D01*
X133990476Y-100655714D01*
X134038095Y-100750952D01*
%TO.C,J1*%
X157952380Y-107533333D02*
X158666666Y-107533333D01*
X158809523Y-107580952D01*
X158904761Y-107676190D01*
X158952380Y-107819047D01*
X158952380Y-107914285D01*
X158952380Y-106533333D02*
X158952380Y-107104761D01*
X158952380Y-106819047D02*
X157952380Y-106819047D01*
X158095238Y-106914285D01*
X158190476Y-107009523D01*
X158238095Y-107104761D01*
%TO.C,C18*%
X138257142Y-98757142D02*
X138209523Y-98804761D01*
X138066666Y-98852380D01*
X137971428Y-98852380D01*
X137828571Y-98804761D01*
X137733333Y-98709523D01*
X137685714Y-98614285D01*
X137638095Y-98423809D01*
X137638095Y-98280952D01*
X137685714Y-98090476D01*
X137733333Y-97995238D01*
X137828571Y-97900000D01*
X137971428Y-97852380D01*
X138066666Y-97852380D01*
X138209523Y-97900000D01*
X138257142Y-97947619D01*
X139209523Y-98852380D02*
X138638095Y-98852380D01*
X138923809Y-98852380D02*
X138923809Y-97852380D01*
X138828571Y-97995238D01*
X138733333Y-98090476D01*
X138638095Y-98138095D01*
X139780952Y-98280952D02*
X139685714Y-98233333D01*
X139638095Y-98185714D01*
X139590476Y-98090476D01*
X139590476Y-98042857D01*
X139638095Y-97947619D01*
X139685714Y-97900000D01*
X139780952Y-97852380D01*
X139971428Y-97852380D01*
X140066666Y-97900000D01*
X140114285Y-97947619D01*
X140161904Y-98042857D01*
X140161904Y-98090476D01*
X140114285Y-98185714D01*
X140066666Y-98233333D01*
X139971428Y-98280952D01*
X139780952Y-98280952D01*
X139685714Y-98328571D01*
X139638095Y-98376190D01*
X139590476Y-98471428D01*
X139590476Y-98661904D01*
X139638095Y-98757142D01*
X139685714Y-98804761D01*
X139780952Y-98852380D01*
X139971428Y-98852380D01*
X140066666Y-98804761D01*
X140114285Y-98757142D01*
X140161904Y-98661904D01*
X140161904Y-98471428D01*
X140114285Y-98376190D01*
X140066666Y-98328571D01*
X139971428Y-98280952D01*
%TO.C,C15*%
X154557142Y-105542857D02*
X154604761Y-105590476D01*
X154652380Y-105733333D01*
X154652380Y-105828571D01*
X154604761Y-105971428D01*
X154509523Y-106066666D01*
X154414285Y-106114285D01*
X154223809Y-106161904D01*
X154080952Y-106161904D01*
X153890476Y-106114285D01*
X153795238Y-106066666D01*
X153700000Y-105971428D01*
X153652380Y-105828571D01*
X153652380Y-105733333D01*
X153700000Y-105590476D01*
X153747619Y-105542857D01*
X154652380Y-104590476D02*
X154652380Y-105161904D01*
X154652380Y-104876190D02*
X153652380Y-104876190D01*
X153795238Y-104971428D01*
X153890476Y-105066666D01*
X153938095Y-105161904D01*
X153652380Y-103685714D02*
X153652380Y-104161904D01*
X154128571Y-104209523D01*
X154080952Y-104161904D01*
X154033333Y-104066666D01*
X154033333Y-103828571D01*
X154080952Y-103733333D01*
X154128571Y-103685714D01*
X154223809Y-103638095D01*
X154461904Y-103638095D01*
X154557142Y-103685714D01*
X154604761Y-103733333D01*
X154652380Y-103828571D01*
X154652380Y-104066666D01*
X154604761Y-104161904D01*
X154557142Y-104209523D01*
%TO.C,C14*%
X151357142Y-105642857D02*
X151404761Y-105690476D01*
X151452380Y-105833333D01*
X151452380Y-105928571D01*
X151404761Y-106071428D01*
X151309523Y-106166666D01*
X151214285Y-106214285D01*
X151023809Y-106261904D01*
X150880952Y-106261904D01*
X150690476Y-106214285D01*
X150595238Y-106166666D01*
X150500000Y-106071428D01*
X150452380Y-105928571D01*
X150452380Y-105833333D01*
X150500000Y-105690476D01*
X150547619Y-105642857D01*
X151452380Y-104690476D02*
X151452380Y-105261904D01*
X151452380Y-104976190D02*
X150452380Y-104976190D01*
X150595238Y-105071428D01*
X150690476Y-105166666D01*
X150738095Y-105261904D01*
X150785714Y-103833333D02*
X151452380Y-103833333D01*
X150404761Y-104071428D02*
X151119047Y-104309523D01*
X151119047Y-103690476D01*
%TO.C,C13*%
X150257142Y-99742857D02*
X150304761Y-99790476D01*
X150352380Y-99933333D01*
X150352380Y-100028571D01*
X150304761Y-100171428D01*
X150209523Y-100266666D01*
X150114285Y-100314285D01*
X149923809Y-100361904D01*
X149780952Y-100361904D01*
X149590476Y-100314285D01*
X149495238Y-100266666D01*
X149400000Y-100171428D01*
X149352380Y-100028571D01*
X149352380Y-99933333D01*
X149400000Y-99790476D01*
X149447619Y-99742857D01*
X150352380Y-98790476D02*
X150352380Y-99361904D01*
X150352380Y-99076190D02*
X149352380Y-99076190D01*
X149495238Y-99171428D01*
X149590476Y-99266666D01*
X149638095Y-99361904D01*
X149352380Y-98457142D02*
X149352380Y-97838095D01*
X149733333Y-98171428D01*
X149733333Y-98028571D01*
X149780952Y-97933333D01*
X149828571Y-97885714D01*
X149923809Y-97838095D01*
X150161904Y-97838095D01*
X150257142Y-97885714D01*
X150304761Y-97933333D01*
X150352380Y-98028571D01*
X150352380Y-98314285D01*
X150304761Y-98409523D01*
X150257142Y-98457142D01*
%TO.C,C12*%
X147057142Y-99742857D02*
X147104761Y-99790476D01*
X147152380Y-99933333D01*
X147152380Y-100028571D01*
X147104761Y-100171428D01*
X147009523Y-100266666D01*
X146914285Y-100314285D01*
X146723809Y-100361904D01*
X146580952Y-100361904D01*
X146390476Y-100314285D01*
X146295238Y-100266666D01*
X146200000Y-100171428D01*
X146152380Y-100028571D01*
X146152380Y-99933333D01*
X146200000Y-99790476D01*
X146247619Y-99742857D01*
X147152380Y-98790476D02*
X147152380Y-99361904D01*
X147152380Y-99076190D02*
X146152380Y-99076190D01*
X146295238Y-99171428D01*
X146390476Y-99266666D01*
X146438095Y-99361904D01*
X146247619Y-98409523D02*
X146200000Y-98361904D01*
X146152380Y-98266666D01*
X146152380Y-98028571D01*
X146200000Y-97933333D01*
X146247619Y-97885714D01*
X146342857Y-97838095D01*
X146438095Y-97838095D01*
X146580952Y-97885714D01*
X147152380Y-98457142D01*
X147152380Y-97838095D01*
%TO.C,C9*%
X131533333Y-97257142D02*
X131485714Y-97304761D01*
X131342857Y-97352380D01*
X131247619Y-97352380D01*
X131104761Y-97304761D01*
X131009523Y-97209523D01*
X130961904Y-97114285D01*
X130914285Y-96923809D01*
X130914285Y-96780952D01*
X130961904Y-96590476D01*
X131009523Y-96495238D01*
X131104761Y-96400000D01*
X131247619Y-96352380D01*
X131342857Y-96352380D01*
X131485714Y-96400000D01*
X131533333Y-96447619D01*
X132009523Y-97352380D02*
X132200000Y-97352380D01*
X132295238Y-97304761D01*
X132342857Y-97257142D01*
X132438095Y-97114285D01*
X132485714Y-96923809D01*
X132485714Y-96542857D01*
X132438095Y-96447619D01*
X132390476Y-96400000D01*
X132295238Y-96352380D01*
X132104761Y-96352380D01*
X132009523Y-96400000D01*
X131961904Y-96447619D01*
X131914285Y-96542857D01*
X131914285Y-96780952D01*
X131961904Y-96876190D01*
X132009523Y-96923809D01*
X132104761Y-96971428D01*
X132295238Y-96971428D01*
X132390476Y-96923809D01*
X132438095Y-96876190D01*
X132485714Y-96780952D01*
%TO.C,C7*%
X129433333Y-98357142D02*
X129385714Y-98404761D01*
X129242857Y-98452380D01*
X129147619Y-98452380D01*
X129004761Y-98404761D01*
X128909523Y-98309523D01*
X128861904Y-98214285D01*
X128814285Y-98023809D01*
X128814285Y-97880952D01*
X128861904Y-97690476D01*
X128909523Y-97595238D01*
X129004761Y-97500000D01*
X129147619Y-97452380D01*
X129242857Y-97452380D01*
X129385714Y-97500000D01*
X129433333Y-97547619D01*
X129766666Y-97452380D02*
X130433333Y-97452380D01*
X130004761Y-98452380D01*
%TO.C,C6*%
X139757142Y-100066666D02*
X139804761Y-100114285D01*
X139852380Y-100257142D01*
X139852380Y-100352380D01*
X139804761Y-100495238D01*
X139709523Y-100590476D01*
X139614285Y-100638095D01*
X139423809Y-100685714D01*
X139280952Y-100685714D01*
X139090476Y-100638095D01*
X138995238Y-100590476D01*
X138900000Y-100495238D01*
X138852380Y-100352380D01*
X138852380Y-100257142D01*
X138900000Y-100114285D01*
X138947619Y-100066666D01*
X138852380Y-99209523D02*
X138852380Y-99400000D01*
X138900000Y-99495238D01*
X138947619Y-99542857D01*
X139090476Y-99638095D01*
X139280952Y-99685714D01*
X139661904Y-99685714D01*
X139757142Y-99638095D01*
X139804761Y-99590476D01*
X139852380Y-99495238D01*
X139852380Y-99304761D01*
X139804761Y-99209523D01*
X139757142Y-99161904D01*
X139661904Y-99114285D01*
X139423809Y-99114285D01*
X139328571Y-99161904D01*
X139280952Y-99209523D01*
X139233333Y-99304761D01*
X139233333Y-99495238D01*
X139280952Y-99590476D01*
X139328571Y-99638095D01*
X139423809Y-99685714D01*
%TO.C,C5*%
X137733333Y-101557142D02*
X137685714Y-101604761D01*
X137542857Y-101652380D01*
X137447619Y-101652380D01*
X137304761Y-101604761D01*
X137209523Y-101509523D01*
X137161904Y-101414285D01*
X137114285Y-101223809D01*
X137114285Y-101080952D01*
X137161904Y-100890476D01*
X137209523Y-100795238D01*
X137304761Y-100700000D01*
X137447619Y-100652380D01*
X137542857Y-100652380D01*
X137685714Y-100700000D01*
X137733333Y-100747619D01*
X138638095Y-100652380D02*
X138161904Y-100652380D01*
X138114285Y-101128571D01*
X138161904Y-101080952D01*
X138257142Y-101033333D01*
X138495238Y-101033333D01*
X138590476Y-101080952D01*
X138638095Y-101128571D01*
X138685714Y-101223809D01*
X138685714Y-101461904D01*
X138638095Y-101557142D01*
X138590476Y-101604761D01*
X138495238Y-101652380D01*
X138257142Y-101652380D01*
X138161904Y-101604761D01*
X138114285Y-101557142D01*
%TO.C,C4*%
X138733333Y-106157142D02*
X138685714Y-106204761D01*
X138542857Y-106252380D01*
X138447619Y-106252380D01*
X138304761Y-106204761D01*
X138209523Y-106109523D01*
X138161904Y-106014285D01*
X138114285Y-105823809D01*
X138114285Y-105680952D01*
X138161904Y-105490476D01*
X138209523Y-105395238D01*
X138304761Y-105300000D01*
X138447619Y-105252380D01*
X138542857Y-105252380D01*
X138685714Y-105300000D01*
X138733333Y-105347619D01*
X139590476Y-105585714D02*
X139590476Y-106252380D01*
X139352380Y-105204761D02*
X139114285Y-105919047D01*
X139733333Y-105919047D01*
%TO.C,C3*%
X138733333Y-104857142D02*
X138685714Y-104904761D01*
X138542857Y-104952380D01*
X138447619Y-104952380D01*
X138304761Y-104904761D01*
X138209523Y-104809523D01*
X138161904Y-104714285D01*
X138114285Y-104523809D01*
X138114285Y-104380952D01*
X138161904Y-104190476D01*
X138209523Y-104095238D01*
X138304761Y-104000000D01*
X138447619Y-103952380D01*
X138542857Y-103952380D01*
X138685714Y-104000000D01*
X138733333Y-104047619D01*
X139066666Y-103952380D02*
X139685714Y-103952380D01*
X139352380Y-104333333D01*
X139495238Y-104333333D01*
X139590476Y-104380952D01*
X139638095Y-104428571D01*
X139685714Y-104523809D01*
X139685714Y-104761904D01*
X139638095Y-104857142D01*
X139590476Y-104904761D01*
X139495238Y-104952380D01*
X139209523Y-104952380D01*
X139114285Y-104904761D01*
X139066666Y-104857142D01*
%TO.C,C2*%
X128083333Y-109357142D02*
X128035714Y-109404761D01*
X127892857Y-109452380D01*
X127797619Y-109452380D01*
X127654761Y-109404761D01*
X127559523Y-109309523D01*
X127511904Y-109214285D01*
X127464285Y-109023809D01*
X127464285Y-108880952D01*
X127511904Y-108690476D01*
X127559523Y-108595238D01*
X127654761Y-108500000D01*
X127797619Y-108452380D01*
X127892857Y-108452380D01*
X128035714Y-108500000D01*
X128083333Y-108547619D01*
X128464285Y-108547619D02*
X128511904Y-108500000D01*
X128607142Y-108452380D01*
X128845238Y-108452380D01*
X128940476Y-108500000D01*
X128988095Y-108547619D01*
X129035714Y-108642857D01*
X129035714Y-108738095D01*
X128988095Y-108880952D01*
X128416666Y-109452380D01*
X129035714Y-109452380D01*
%TO.C,C1*%
X134657142Y-108566666D02*
X134704761Y-108614285D01*
X134752380Y-108757142D01*
X134752380Y-108852380D01*
X134704761Y-108995238D01*
X134609523Y-109090476D01*
X134514285Y-109138095D01*
X134323809Y-109185714D01*
X134180952Y-109185714D01*
X133990476Y-109138095D01*
X133895238Y-109090476D01*
X133800000Y-108995238D01*
X133752380Y-108852380D01*
X133752380Y-108757142D01*
X133800000Y-108614285D01*
X133847619Y-108566666D01*
X134752380Y-107614285D02*
X134752380Y-108185714D01*
X134752380Y-107900000D02*
X133752380Y-107900000D01*
X133895238Y-107995238D01*
X133990476Y-108090476D01*
X134038095Y-108185714D01*
%TD*%
M02*
