%TF.GenerationSoftware,KiCad,Pcbnew,(5.1.6)-1*%
%TF.CreationDate,2020-08-23T21:25:53+02:00*%
%TF.ProjectId,nRF24module,6e524632-346d-46f6-9475-6c652e6b6963,1*%
%TF.SameCoordinates,Original*%
%TF.FileFunction,Legend,Bot*%
%TF.FilePolarity,Positive*%
%FSLAX46Y46*%
G04 Gerber Fmt 4.6, Leading zero omitted, Abs format (unit mm)*
G04 Created by KiCad (PCBNEW (5.1.6)-1) date 2020-08-23 21:25:53*
%MOMM*%
%LPD*%
G01*
G04 APERTURE LIST*
%ADD10C,0.160000*%
%ADD11C,0.200000*%
G04 APERTURE END LIST*
D10*
X121138095Y-107507142D02*
X121938095Y-107507142D01*
X121366666Y-107240476D01*
X121938095Y-106973809D01*
X121138095Y-106973809D01*
X121138095Y-106592857D02*
X121938095Y-106592857D01*
X121176190Y-106250000D02*
X121138095Y-106135714D01*
X121138095Y-105945238D01*
X121176190Y-105869047D01*
X121214285Y-105830952D01*
X121290476Y-105792857D01*
X121366666Y-105792857D01*
X121442857Y-105830952D01*
X121480952Y-105869047D01*
X121519047Y-105945238D01*
X121557142Y-106097619D01*
X121595238Y-106173809D01*
X121633333Y-106211904D01*
X121709523Y-106250000D01*
X121785714Y-106250000D01*
X121861904Y-106211904D01*
X121900000Y-106173809D01*
X121938095Y-106097619D01*
X121938095Y-105907142D01*
X121900000Y-105792857D01*
X121938095Y-105297619D02*
X121938095Y-105145238D01*
X121900000Y-105069047D01*
X121823809Y-104992857D01*
X121671428Y-104954761D01*
X121404761Y-104954761D01*
X121252380Y-104992857D01*
X121176190Y-105069047D01*
X121138095Y-105145238D01*
X121138095Y-105297619D01*
X121176190Y-105373809D01*
X121252380Y-105450000D01*
X121404761Y-105488095D01*
X121671428Y-105488095D01*
X121823809Y-105450000D01*
X121900000Y-105373809D01*
X121938095Y-105297619D01*
X121176190Y-104602380D02*
X121138095Y-104488095D01*
X121138095Y-104297619D01*
X121176190Y-104221428D01*
X121214285Y-104183333D01*
X121290476Y-104145238D01*
X121366666Y-104145238D01*
X121442857Y-104183333D01*
X121480952Y-104221428D01*
X121519047Y-104297619D01*
X121557142Y-104450000D01*
X121595238Y-104526190D01*
X121633333Y-104564285D01*
X121709523Y-104602380D01*
X121785714Y-104602380D01*
X121861904Y-104564285D01*
X121900000Y-104526190D01*
X121938095Y-104450000D01*
X121938095Y-104259523D01*
X121900000Y-104145238D01*
X121214285Y-103345238D02*
X121176190Y-103383333D01*
X121138095Y-103497619D01*
X121138095Y-103573809D01*
X121176190Y-103688095D01*
X121252380Y-103764285D01*
X121328571Y-103802380D01*
X121480952Y-103840476D01*
X121595238Y-103840476D01*
X121747619Y-103802380D01*
X121823809Y-103764285D01*
X121900000Y-103688095D01*
X121938095Y-103573809D01*
X121938095Y-103497619D01*
X121900000Y-103383333D01*
X121861904Y-103345238D01*
X121138095Y-102621428D02*
X121138095Y-103002380D01*
X121938095Y-103002380D01*
X121138095Y-102354761D02*
X121938095Y-102354761D01*
X121138095Y-101897619D02*
X121595238Y-102240476D01*
X121938095Y-101897619D02*
X121480952Y-102354761D01*
X127388095Y-106569047D02*
X128188095Y-106569047D01*
X127388095Y-105730952D02*
X127769047Y-105997619D01*
X127388095Y-106188095D02*
X128188095Y-106188095D01*
X128188095Y-105883333D01*
X128150000Y-105807142D01*
X128111904Y-105769047D01*
X128035714Y-105730952D01*
X127921428Y-105730952D01*
X127845238Y-105769047D01*
X127807142Y-105807142D01*
X127769047Y-105883333D01*
X127769047Y-106188095D01*
X127311904Y-104854761D02*
X127350000Y-104930952D01*
X127426190Y-105007142D01*
X127540476Y-105121428D01*
X127578571Y-105197619D01*
X127578571Y-105273809D01*
X127388095Y-105235714D02*
X127426190Y-105311904D01*
X127502380Y-105388095D01*
X127654761Y-105426190D01*
X127921428Y-105426190D01*
X128073809Y-105388095D01*
X128150000Y-105311904D01*
X128188095Y-105235714D01*
X128188095Y-105083333D01*
X128150000Y-105007142D01*
X128073809Y-104930952D01*
X127921428Y-104892857D01*
X127654761Y-104892857D01*
X127502380Y-104930952D01*
X127426190Y-105007142D01*
X127388095Y-105083333D01*
X127388095Y-105235714D01*
X127388095Y-104507142D02*
X128188095Y-104507142D01*
X127616666Y-104240476D01*
X128188095Y-103973809D01*
X127388095Y-103973809D01*
X128188095Y-103440476D02*
X128188095Y-103288095D01*
X128150000Y-103211904D01*
X128073809Y-103135714D01*
X127921428Y-103097619D01*
X127654761Y-103097619D01*
X127502380Y-103135714D01*
X127426190Y-103211904D01*
X127388095Y-103288095D01*
X127388095Y-103440476D01*
X127426190Y-103516666D01*
X127502380Y-103592857D01*
X127654761Y-103630952D01*
X127921428Y-103630952D01*
X128073809Y-103592857D01*
X128150000Y-103516666D01*
X128188095Y-103440476D01*
X127426190Y-102792857D02*
X127388095Y-102678571D01*
X127388095Y-102488095D01*
X127426190Y-102411904D01*
X127464285Y-102373809D01*
X127540476Y-102335714D01*
X127616666Y-102335714D01*
X127692857Y-102373809D01*
X127730952Y-102411904D01*
X127769047Y-102488095D01*
X127807142Y-102640476D01*
X127845238Y-102716666D01*
X127883333Y-102754761D01*
X127959523Y-102792857D01*
X128035714Y-102792857D01*
X128111904Y-102754761D01*
X128150000Y-102716666D01*
X128188095Y-102640476D01*
X128188095Y-102450000D01*
X128150000Y-102335714D01*
X127388095Y-101992857D02*
X128188095Y-101992857D01*
X128534000Y-101530952D02*
X128534000Y-100730952D01*
X127464285Y-100883333D02*
X127426190Y-100921428D01*
X127388095Y-101035714D01*
X127388095Y-101111904D01*
X127426190Y-101226190D01*
X127502380Y-101302380D01*
X127578571Y-101340476D01*
X127730952Y-101378571D01*
X127845238Y-101378571D01*
X127997619Y-101340476D01*
X128073809Y-101302380D01*
X128150000Y-101226190D01*
X128188095Y-101111904D01*
X128188095Y-101035714D01*
X128150000Y-100921428D01*
X128111904Y-100883333D01*
X128534000Y-100730952D02*
X128534000Y-99969047D01*
X127426190Y-100578571D02*
X127388095Y-100464285D01*
X127388095Y-100273809D01*
X127426190Y-100197619D01*
X127464285Y-100159523D01*
X127540476Y-100121428D01*
X127616666Y-100121428D01*
X127692857Y-100159523D01*
X127730952Y-100197619D01*
X127769047Y-100273809D01*
X127807142Y-100426190D01*
X127845238Y-100502380D01*
X127883333Y-100540476D01*
X127959523Y-100578571D01*
X128035714Y-100578571D01*
X128111904Y-100540476D01*
X128150000Y-100502380D01*
X128188095Y-100426190D01*
X128188095Y-100235714D01*
X128150000Y-100121428D01*
X121214285Y-100864285D02*
X121176190Y-100902380D01*
X121138095Y-101016666D01*
X121138095Y-101092857D01*
X121176190Y-101207142D01*
X121252380Y-101283333D01*
X121328571Y-101321428D01*
X121480952Y-101359523D01*
X121595238Y-101359523D01*
X121747619Y-101321428D01*
X121823809Y-101283333D01*
X121900000Y-101207142D01*
X121938095Y-101092857D01*
X121938095Y-101016666D01*
X121900000Y-100902380D01*
X121861904Y-100864285D01*
X121557142Y-100521428D02*
X121557142Y-100254761D01*
X121138095Y-100140476D02*
X121138095Y-100521428D01*
X121938095Y-100521428D01*
X121938095Y-100140476D01*
X128188095Y-99202380D02*
X128188095Y-98707142D01*
X127883333Y-98973809D01*
X127883333Y-98859523D01*
X127845238Y-98783333D01*
X127807142Y-98745238D01*
X127730952Y-98707142D01*
X127540476Y-98707142D01*
X127464285Y-98745238D01*
X127426190Y-98783333D01*
X127388095Y-98859523D01*
X127388095Y-99088095D01*
X127426190Y-99164285D01*
X127464285Y-99202380D01*
X127921428Y-98440476D02*
X127388095Y-98250000D01*
X127921428Y-98059523D01*
X128188095Y-97830952D02*
X128188095Y-97335714D01*
X127883333Y-97602380D01*
X127883333Y-97488095D01*
X127845238Y-97411904D01*
X127807142Y-97373809D01*
X127730952Y-97335714D01*
X127540476Y-97335714D01*
X127464285Y-97373809D01*
X127426190Y-97411904D01*
X127388095Y-97488095D01*
X127388095Y-97716666D01*
X127426190Y-97792857D01*
X127464285Y-97830952D01*
X121900000Y-98859523D02*
X121938095Y-98935714D01*
X121938095Y-99050000D01*
X121900000Y-99164285D01*
X121823809Y-99240476D01*
X121747619Y-99278571D01*
X121595238Y-99316666D01*
X121480952Y-99316666D01*
X121328571Y-99278571D01*
X121252380Y-99240476D01*
X121176190Y-99164285D01*
X121138095Y-99050000D01*
X121138095Y-98973809D01*
X121176190Y-98859523D01*
X121214285Y-98821428D01*
X121480952Y-98821428D01*
X121480952Y-98973809D01*
X121138095Y-98478571D02*
X121938095Y-98478571D01*
X121138095Y-98021428D01*
X121938095Y-98021428D01*
X121138095Y-97640476D02*
X121938095Y-97640476D01*
X121938095Y-97450000D01*
X121900000Y-97335714D01*
X121823809Y-97259523D01*
X121747619Y-97221428D01*
X121595238Y-97183333D01*
X121480952Y-97183333D01*
X121328571Y-97221428D01*
X121252380Y-97259523D01*
X121176190Y-97335714D01*
X121138095Y-97450000D01*
X121138095Y-97640476D01*
D11*
X157369047Y-109702380D02*
X157369047Y-110416666D01*
X157416666Y-110559523D01*
X157511904Y-110654761D01*
X157654761Y-110702380D01*
X157750000Y-110702380D01*
X156416666Y-110702380D02*
X156892857Y-110702380D01*
X156892857Y-109702380D01*
X155511904Y-110607142D02*
X155559523Y-110654761D01*
X155702380Y-110702380D01*
X155797619Y-110702380D01*
X155940476Y-110654761D01*
X156035714Y-110559523D01*
X156083333Y-110464285D01*
X156130952Y-110273809D01*
X156130952Y-110130952D01*
X156083333Y-109940476D01*
X156035714Y-109845238D01*
X155940476Y-109750000D01*
X155797619Y-109702380D01*
X155702380Y-109702380D01*
X155559523Y-109750000D01*
X155511904Y-109797619D01*
X154797619Y-109702380D02*
X154797619Y-110416666D01*
X154845238Y-110559523D01*
X154940476Y-110654761D01*
X155083333Y-110702380D01*
X155178571Y-110702380D01*
X153845238Y-110702380D02*
X154321428Y-110702380D01*
X154321428Y-109702380D01*
X152940476Y-110607142D02*
X152988095Y-110654761D01*
X153130952Y-110702380D01*
X153226190Y-110702380D01*
X153369047Y-110654761D01*
X153464285Y-110559523D01*
X153511904Y-110464285D01*
X153559523Y-110273809D01*
X153559523Y-110130952D01*
X153511904Y-109940476D01*
X153464285Y-109845238D01*
X153369047Y-109750000D01*
X153226190Y-109702380D01*
X153130952Y-109702380D01*
X152988095Y-109750000D01*
X152940476Y-109797619D01*
X152226190Y-109702380D02*
X152226190Y-110416666D01*
X152273809Y-110559523D01*
X152369047Y-110654761D01*
X152511904Y-110702380D01*
X152607142Y-110702380D01*
X151273809Y-110702380D02*
X151750000Y-110702380D01*
X151750000Y-109702380D01*
X150369047Y-110607142D02*
X150416666Y-110654761D01*
X150559523Y-110702380D01*
X150654761Y-110702380D01*
X150797619Y-110654761D01*
X150892857Y-110559523D01*
X150940476Y-110464285D01*
X150988095Y-110273809D01*
X150988095Y-110130952D01*
X150940476Y-109940476D01*
X150892857Y-109845238D01*
X150797619Y-109750000D01*
X150654761Y-109702380D01*
X150559523Y-109702380D01*
X150416666Y-109750000D01*
X150369047Y-109797619D01*
X149654761Y-109702380D02*
X149654761Y-110416666D01*
X149702380Y-110559523D01*
X149797619Y-110654761D01*
X149940476Y-110702380D01*
X150035714Y-110702380D01*
X148702380Y-110702380D02*
X149178571Y-110702380D01*
X149178571Y-109702380D01*
X147797619Y-110607142D02*
X147845238Y-110654761D01*
X147988095Y-110702380D01*
X148083333Y-110702380D01*
X148226190Y-110654761D01*
X148321428Y-110559523D01*
X148369047Y-110464285D01*
X148416666Y-110273809D01*
X148416666Y-110130952D01*
X148369047Y-109940476D01*
X148321428Y-109845238D01*
X148226190Y-109750000D01*
X148083333Y-109702380D01*
X147988095Y-109702380D01*
X147845238Y-109750000D01*
X147797619Y-109797619D01*
M02*
