%TF.GenerationSoftware,KiCad,Pcbnew,(5.1.6)-1*%
%TF.CreationDate,2020-08-23T21:25:53+02:00*%
%TF.ProjectId,nRF24module,6e524632-346d-46f6-9475-6c652e6b6963,1*%
%TF.SameCoordinates,Original*%
%TF.FileFunction,Copper,L2,Bot*%
%TF.FilePolarity,Positive*%
%FSLAX46Y46*%
G04 Gerber Fmt 4.6, Leading zero omitted, Abs format (unit mm)*
G04 Created by KiCad (PCBNEW (5.1.6)-1) date 2020-08-23 21:25:53*
%MOMM*%
%LPD*%
G01*
G04 APERTURE LIST*
%TA.AperFunction,ComponentPad*%
%ADD10O,1.700000X1.700000*%
%TD*%
%TA.AperFunction,ComponentPad*%
%ADD11R,1.700000X1.700000*%
%TD*%
%TA.AperFunction,SMDPad,CuDef*%
%ADD12R,4.200000X1.350000*%
%TD*%
%TA.AperFunction,ViaPad*%
%ADD13C,0.600000*%
%TD*%
%TA.AperFunction,Conductor*%
%ADD14C,0.200000*%
%TD*%
G04 APERTURE END LIST*
D10*
%TO.P,J2,8*%
%TO.N,GND*%
X123460000Y-98180000D03*
%TO.P,J2,7*%
%TO.N,+3V3*%
X126000000Y-98180000D03*
%TO.P,J2,6*%
%TO.N,CE*%
X123460000Y-100720000D03*
%TO.P,J2,5*%
%TO.N,CSn*%
X126000000Y-100720000D03*
%TO.P,J2,4*%
%TO.N,SCLK*%
X123460000Y-103260000D03*
%TO.P,J2,3*%
%TO.N,MOSI*%
X126000000Y-103260000D03*
%TO.P,J2,2*%
%TO.N,MISO*%
X123460000Y-105800000D03*
D11*
%TO.P,J2,1*%
%TO.N,IRQ*%
X126000000Y-105800000D03*
%TD*%
D12*
%TO.P,J1,2*%
%TO.N,GND*%
X157500000Y-99175000D03*
X157500000Y-104825000D03*
%TD*%
D13*
%TO.N,GND*%
X133000000Y-102250000D03*
X132000000Y-102250000D03*
X134250000Y-98000000D03*
X134250000Y-99000000D03*
X130500000Y-100250000D03*
X129250000Y-99250000D03*
X129250000Y-100250000D03*
X133000000Y-103250000D03*
X129250000Y-107000000D03*
X129250000Y-106000000D03*
X128250000Y-106000000D03*
X130250000Y-106000000D03*
X130250000Y-107000000D03*
X128250000Y-107000000D03*
X128250000Y-108000000D03*
X127250000Y-108000000D03*
X126250000Y-108000000D03*
X125250000Y-108000000D03*
X124250000Y-108000000D03*
X123250000Y-108000000D03*
X124250000Y-107000000D03*
X127250000Y-107000000D03*
X136500000Y-106750000D03*
X137500000Y-107250000D03*
X137500000Y-108250000D03*
X136500000Y-105750000D03*
X137750000Y-103500000D03*
X138750000Y-103500000D03*
X139750000Y-103500000D03*
X139750000Y-104500000D03*
X139750000Y-105500000D03*
X140750000Y-105500000D03*
X140750000Y-104500000D03*
X140750000Y-103500000D03*
X142675000Y-101325000D03*
X143550000Y-102250000D03*
X136250000Y-98000000D03*
X136250000Y-99000000D03*
X137250000Y-98000000D03*
X137250000Y-99000000D03*
X138250000Y-98000000D03*
X138250000Y-99000000D03*
X139250000Y-98000000D03*
X139250000Y-99000000D03*
X140250000Y-98000000D03*
X140250000Y-99000000D03*
X136250000Y-100000000D03*
X137250000Y-100000000D03*
X138250000Y-100000000D03*
X139250000Y-100000000D03*
X140250000Y-100000000D03*
X136250000Y-101000000D03*
X135250000Y-101000000D03*
X135250000Y-100000000D03*
X137250000Y-101000000D03*
X138250000Y-101000000D03*
X139250000Y-101000000D03*
X141250000Y-100000000D03*
X144500000Y-98000000D03*
X144500000Y-97000000D03*
X143500000Y-97000000D03*
X145500000Y-97000000D03*
X145500000Y-98000000D03*
X144500000Y-99000000D03*
X145500000Y-99000000D03*
X144500000Y-100000000D03*
X145500000Y-100000000D03*
X146500000Y-101000000D03*
X146500000Y-100000000D03*
X147500000Y-100000000D03*
X148500000Y-100000000D03*
X149500000Y-100000000D03*
X148500000Y-101000000D03*
X149500000Y-101000000D03*
X150500000Y-100000000D03*
X151500000Y-100000000D03*
X151500000Y-101000000D03*
X152500000Y-100000000D03*
X152500000Y-101000000D03*
X153500000Y-100000000D03*
X153500000Y-101000000D03*
X154500000Y-100000000D03*
X154500000Y-101000000D03*
X157500000Y-100500000D03*
X154500000Y-99000000D03*
X154500000Y-98000000D03*
X157500000Y-97750000D03*
X155750000Y-97750000D03*
X155750000Y-100500000D03*
X157500000Y-103500000D03*
X155750000Y-103500000D03*
X154500000Y-104000000D03*
X154500000Y-105000000D03*
X155750000Y-106250000D03*
X157500000Y-106250000D03*
X153500000Y-103000000D03*
X153500000Y-104000000D03*
X152500000Y-103000000D03*
X152500000Y-104000000D03*
X151500000Y-104000000D03*
X150500000Y-104000000D03*
X149500000Y-104000000D03*
X148500000Y-104000000D03*
X147500000Y-104000000D03*
X147500000Y-103000000D03*
X148500000Y-103000000D03*
X149500000Y-103000000D03*
X150500000Y-103000000D03*
X147500000Y-105000000D03*
X146500000Y-105000000D03*
X145500000Y-105000000D03*
X144750000Y-103500000D03*
X145500000Y-106000000D03*
X146500000Y-106000000D03*
X147500000Y-106000000D03*
X148500000Y-105000000D03*
X149500000Y-105000000D03*
X150500000Y-105000000D03*
X151500000Y-105000000D03*
X152500000Y-105000000D03*
X153500000Y-105000000D03*
X148500000Y-106000000D03*
X149500000Y-106000000D03*
X150500000Y-106000000D03*
X151500000Y-106000000D03*
X152500000Y-106000000D03*
X153500000Y-106000000D03*
X146500000Y-99000000D03*
X147500000Y-99000000D03*
X148500000Y-99000000D03*
X149500000Y-99000000D03*
X150500000Y-99000000D03*
X151500000Y-99000000D03*
X152500000Y-99000000D03*
X153500000Y-99000000D03*
X146500000Y-98000000D03*
X147500000Y-98000000D03*
X148500000Y-98000000D03*
X149500000Y-98000000D03*
X150500000Y-98000000D03*
X151500000Y-98000000D03*
X152500000Y-98000000D03*
X153500000Y-98000000D03*
X154500000Y-106000000D03*
X138500000Y-107250000D03*
X138500000Y-108250000D03*
X139500000Y-107250000D03*
X139500000Y-108250000D03*
X140500000Y-107250000D03*
X140500000Y-108250000D03*
X141500000Y-107250000D03*
X141500000Y-108250000D03*
X142500000Y-107250000D03*
X122500000Y-96000000D03*
X123500000Y-96000000D03*
X124500000Y-96000000D03*
X125500000Y-96000000D03*
X127500000Y-96000000D03*
X128500000Y-96000000D03*
X129500000Y-96000000D03*
X130500000Y-96000000D03*
X131500000Y-96000000D03*
X132500000Y-96000000D03*
X127500000Y-97000000D03*
X128500000Y-97000000D03*
X129500000Y-97000000D03*
X130500000Y-97000000D03*
X131500000Y-97000000D03*
X133500000Y-96000000D03*
X134500000Y-96000000D03*
X135500000Y-96000000D03*
X136500000Y-96000000D03*
X137500000Y-96000000D03*
X138500000Y-96000000D03*
X139500000Y-96000000D03*
X140500000Y-96000000D03*
X141500000Y-96000000D03*
X142500000Y-96000000D03*
X143500000Y-96000000D03*
X144500000Y-96000000D03*
X121500000Y-99000000D03*
X121500000Y-98000000D03*
X121500000Y-97000000D03*
X121500000Y-96000000D03*
X121500000Y-100000000D03*
X120500000Y-101000000D03*
X120500000Y-100000000D03*
X120500000Y-102000000D03*
X120500000Y-103000000D03*
X120500000Y-104000000D03*
X120500000Y-105000000D03*
X120500000Y-106000000D03*
X120500000Y-107000000D03*
X121500000Y-110000000D03*
X122500000Y-110000000D03*
X123500000Y-110000000D03*
X124500000Y-110000000D03*
X125500000Y-110000000D03*
X126500000Y-110000000D03*
X127500000Y-110000000D03*
X128500000Y-110000000D03*
X129500000Y-110000000D03*
X130500000Y-110000000D03*
X131500000Y-110000000D03*
X132500000Y-110000000D03*
X133500000Y-110000000D03*
X134500000Y-110000000D03*
X135500000Y-110000000D03*
X136500000Y-110000000D03*
X137500000Y-110000000D03*
X138500000Y-110000000D03*
X139500000Y-110000000D03*
X140500000Y-110000000D03*
X141500000Y-110000000D03*
X142500000Y-110000000D03*
X143500000Y-110000000D03*
X144500000Y-110000000D03*
X145500000Y-110000000D03*
X145500000Y-109000000D03*
X144500000Y-109000000D03*
X144500000Y-108000000D03*
X144500000Y-107000000D03*
X145500000Y-108000000D03*
X145500000Y-107000000D03*
X120500000Y-108000000D03*
X126500000Y-96000000D03*
X120500000Y-109000000D03*
X120500000Y-110000000D03*
X120500000Y-99000000D03*
X120500000Y-98000000D03*
X120500000Y-97000000D03*
X120500000Y-96000000D03*
X121500000Y-101000000D03*
X121500000Y-102000000D03*
X121500000Y-103000000D03*
X121500000Y-104000000D03*
X121500000Y-105000000D03*
X121500000Y-106000000D03*
X121500000Y-107000000D03*
X121500000Y-108000000D03*
X121500000Y-109000000D03*
X146500000Y-107000000D03*
%TD*%
D14*
%TO.N,GND*%
G36*
X158730805Y-92339384D02*
G01*
X158856629Y-92377373D01*
X158972675Y-92439076D01*
X159074532Y-92522148D01*
X159158310Y-92623418D01*
X159220819Y-92739027D01*
X159259686Y-92864586D01*
X159275001Y-93010295D01*
X159275000Y-98198784D01*
X157600000Y-98200000D01*
X157525000Y-98275000D01*
X157525000Y-99150000D01*
X157545000Y-99150000D01*
X157545000Y-99200000D01*
X157525000Y-99200000D01*
X157525000Y-100075000D01*
X157600000Y-100150000D01*
X159275000Y-100151216D01*
X159275000Y-103848784D01*
X157600000Y-103850000D01*
X157525000Y-103925000D01*
X157525000Y-104800000D01*
X157545000Y-104800000D01*
X157545000Y-104850000D01*
X157525000Y-104850000D01*
X157525000Y-105725000D01*
X157600000Y-105800000D01*
X159275000Y-105801216D01*
X159275001Y-110984094D01*
X159260616Y-111130805D01*
X159222627Y-111256629D01*
X159160924Y-111372675D01*
X159077853Y-111474531D01*
X158976586Y-111558307D01*
X158860973Y-111620819D01*
X158735410Y-111659687D01*
X158589716Y-111675000D01*
X120615896Y-111675000D01*
X120469195Y-111660616D01*
X120343371Y-111622627D01*
X120227325Y-111560924D01*
X120125469Y-111477853D01*
X120041693Y-111376586D01*
X119979181Y-111260973D01*
X119940313Y-111135410D01*
X119925000Y-110989716D01*
X119925000Y-105686735D01*
X122310000Y-105686735D01*
X122310000Y-105913265D01*
X122354194Y-106135443D01*
X122440884Y-106344729D01*
X122566737Y-106533082D01*
X122726918Y-106693263D01*
X122915271Y-106819116D01*
X123124557Y-106905806D01*
X123346735Y-106950000D01*
X123573265Y-106950000D01*
X123795443Y-106905806D01*
X124004729Y-106819116D01*
X124193082Y-106693263D01*
X124353263Y-106533082D01*
X124479116Y-106344729D01*
X124565806Y-106135443D01*
X124610000Y-105913265D01*
X124610000Y-105686735D01*
X124565806Y-105464557D01*
X124479116Y-105255271D01*
X124353263Y-105066918D01*
X124236345Y-104950000D01*
X124848549Y-104950000D01*
X124848549Y-106650000D01*
X124854341Y-106708810D01*
X124871496Y-106765360D01*
X124899353Y-106817477D01*
X124936842Y-106863158D01*
X124982523Y-106900647D01*
X125034640Y-106928504D01*
X125091190Y-106945659D01*
X125150000Y-106951451D01*
X126850000Y-106951451D01*
X126908810Y-106945659D01*
X126965360Y-106928504D01*
X127017477Y-106900647D01*
X127063158Y-106863158D01*
X127100647Y-106817477D01*
X127128504Y-106765360D01*
X127145659Y-106708810D01*
X127151451Y-106650000D01*
X127151451Y-105500000D01*
X155098548Y-105500000D01*
X155104340Y-105558810D01*
X155121495Y-105615361D01*
X155149352Y-105667478D01*
X155186841Y-105713159D01*
X155232522Y-105750648D01*
X155284639Y-105778505D01*
X155341190Y-105795660D01*
X155400000Y-105801452D01*
X157400000Y-105800000D01*
X157475000Y-105725000D01*
X157475000Y-104850000D01*
X155175000Y-104850000D01*
X155100000Y-104925000D01*
X155098548Y-105500000D01*
X127151451Y-105500000D01*
X127151451Y-104950000D01*
X127145659Y-104891190D01*
X127128504Y-104834640D01*
X127100647Y-104782523D01*
X127063158Y-104736842D01*
X127017477Y-104699353D01*
X126965360Y-104671496D01*
X126908810Y-104654341D01*
X126850000Y-104648549D01*
X125150000Y-104648549D01*
X125091190Y-104654341D01*
X125034640Y-104671496D01*
X124982523Y-104699353D01*
X124936842Y-104736842D01*
X124899353Y-104782523D01*
X124871496Y-104834640D01*
X124854341Y-104891190D01*
X124848549Y-104950000D01*
X124236345Y-104950000D01*
X124193082Y-104906737D01*
X124004729Y-104780884D01*
X123795443Y-104694194D01*
X123573265Y-104650000D01*
X123346735Y-104650000D01*
X123124557Y-104694194D01*
X122915271Y-104780884D01*
X122726918Y-104906737D01*
X122566737Y-105066918D01*
X122440884Y-105255271D01*
X122354194Y-105464557D01*
X122310000Y-105686735D01*
X119925000Y-105686735D01*
X119925000Y-103146735D01*
X122310000Y-103146735D01*
X122310000Y-103373265D01*
X122354194Y-103595443D01*
X122440884Y-103804729D01*
X122566737Y-103993082D01*
X122726918Y-104153263D01*
X122915271Y-104279116D01*
X123124557Y-104365806D01*
X123346735Y-104410000D01*
X123573265Y-104410000D01*
X123795443Y-104365806D01*
X124004729Y-104279116D01*
X124193082Y-104153263D01*
X124353263Y-103993082D01*
X124479116Y-103804729D01*
X124565806Y-103595443D01*
X124610000Y-103373265D01*
X124610000Y-103146735D01*
X124850000Y-103146735D01*
X124850000Y-103373265D01*
X124894194Y-103595443D01*
X124980884Y-103804729D01*
X125106737Y-103993082D01*
X125266918Y-104153263D01*
X125455271Y-104279116D01*
X125664557Y-104365806D01*
X125886735Y-104410000D01*
X126113265Y-104410000D01*
X126335443Y-104365806D01*
X126544729Y-104279116D01*
X126733082Y-104153263D01*
X126736345Y-104150000D01*
X155098548Y-104150000D01*
X155100000Y-104725000D01*
X155175000Y-104800000D01*
X157475000Y-104800000D01*
X157475000Y-103925000D01*
X157400000Y-103850000D01*
X155400000Y-103848548D01*
X155341190Y-103854340D01*
X155284639Y-103871495D01*
X155232522Y-103899352D01*
X155186841Y-103936841D01*
X155149352Y-103982522D01*
X155121495Y-104034639D01*
X155104340Y-104091190D01*
X155098548Y-104150000D01*
X126736345Y-104150000D01*
X126893263Y-103993082D01*
X127019116Y-103804729D01*
X127105806Y-103595443D01*
X127150000Y-103373265D01*
X127150000Y-103146735D01*
X127105806Y-102924557D01*
X127019116Y-102715271D01*
X126893263Y-102526918D01*
X126733082Y-102366737D01*
X126544729Y-102240884D01*
X126335443Y-102154194D01*
X126113265Y-102110000D01*
X125886735Y-102110000D01*
X125664557Y-102154194D01*
X125455271Y-102240884D01*
X125266918Y-102366737D01*
X125106737Y-102526918D01*
X124980884Y-102715271D01*
X124894194Y-102924557D01*
X124850000Y-103146735D01*
X124610000Y-103146735D01*
X124565806Y-102924557D01*
X124479116Y-102715271D01*
X124353263Y-102526918D01*
X124193082Y-102366737D01*
X124004729Y-102240884D01*
X123795443Y-102154194D01*
X123573265Y-102110000D01*
X123346735Y-102110000D01*
X123124557Y-102154194D01*
X122915271Y-102240884D01*
X122726918Y-102366737D01*
X122566737Y-102526918D01*
X122440884Y-102715271D01*
X122354194Y-102924557D01*
X122310000Y-103146735D01*
X119925000Y-103146735D01*
X119925000Y-100606735D01*
X122310000Y-100606735D01*
X122310000Y-100833265D01*
X122354194Y-101055443D01*
X122440884Y-101264729D01*
X122566737Y-101453082D01*
X122726918Y-101613263D01*
X122915271Y-101739116D01*
X123124557Y-101825806D01*
X123346735Y-101870000D01*
X123573265Y-101870000D01*
X123795443Y-101825806D01*
X124004729Y-101739116D01*
X124193082Y-101613263D01*
X124353263Y-101453082D01*
X124479116Y-101264729D01*
X124565806Y-101055443D01*
X124610000Y-100833265D01*
X124610000Y-100606735D01*
X124850000Y-100606735D01*
X124850000Y-100833265D01*
X124894194Y-101055443D01*
X124980884Y-101264729D01*
X125106737Y-101453082D01*
X125266918Y-101613263D01*
X125455271Y-101739116D01*
X125664557Y-101825806D01*
X125886735Y-101870000D01*
X126113265Y-101870000D01*
X126335443Y-101825806D01*
X126544729Y-101739116D01*
X126733082Y-101613263D01*
X126893263Y-101453082D01*
X127019116Y-101264729D01*
X127105806Y-101055443D01*
X127150000Y-100833265D01*
X127150000Y-100606735D01*
X127105806Y-100384557D01*
X127019116Y-100175271D01*
X126893263Y-99986918D01*
X126756345Y-99850000D01*
X155098548Y-99850000D01*
X155104340Y-99908810D01*
X155121495Y-99965361D01*
X155149352Y-100017478D01*
X155186841Y-100063159D01*
X155232522Y-100100648D01*
X155284639Y-100128505D01*
X155341190Y-100145660D01*
X155400000Y-100151452D01*
X157400000Y-100150000D01*
X157475000Y-100075000D01*
X157475000Y-99200000D01*
X155175000Y-99200000D01*
X155100000Y-99275000D01*
X155098548Y-99850000D01*
X126756345Y-99850000D01*
X126733082Y-99826737D01*
X126544729Y-99700884D01*
X126335443Y-99614194D01*
X126113265Y-99570000D01*
X125886735Y-99570000D01*
X125664557Y-99614194D01*
X125455271Y-99700884D01*
X125266918Y-99826737D01*
X125106737Y-99986918D01*
X124980884Y-100175271D01*
X124894194Y-100384557D01*
X124850000Y-100606735D01*
X124610000Y-100606735D01*
X124565806Y-100384557D01*
X124479116Y-100175271D01*
X124353263Y-99986918D01*
X124193082Y-99826737D01*
X124004729Y-99700884D01*
X123795443Y-99614194D01*
X123573265Y-99570000D01*
X123346735Y-99570000D01*
X123124557Y-99614194D01*
X122915271Y-99700884D01*
X122726918Y-99826737D01*
X122566737Y-99986918D01*
X122440884Y-100175271D01*
X122354194Y-100384557D01*
X122310000Y-100606735D01*
X119925000Y-100606735D01*
X119925000Y-98384549D01*
X122328338Y-98384549D01*
X122336203Y-98424091D01*
X122405416Y-98638643D01*
X122515156Y-98835569D01*
X122661206Y-99007302D01*
X122837953Y-99147243D01*
X123038605Y-99250013D01*
X123255451Y-99311663D01*
X123435000Y-99254729D01*
X123435000Y-98205000D01*
X123485000Y-98205000D01*
X123485000Y-99254729D01*
X123664549Y-99311663D01*
X123881395Y-99250013D01*
X124082047Y-99147243D01*
X124258794Y-99007302D01*
X124404844Y-98835569D01*
X124514584Y-98638643D01*
X124583797Y-98424091D01*
X124591662Y-98384549D01*
X124534709Y-98205000D01*
X123485000Y-98205000D01*
X123435000Y-98205000D01*
X122385291Y-98205000D01*
X122328338Y-98384549D01*
X119925000Y-98384549D01*
X119925000Y-97975451D01*
X122328338Y-97975451D01*
X122385291Y-98155000D01*
X123435000Y-98155000D01*
X123435000Y-97105271D01*
X123485000Y-97105271D01*
X123485000Y-98155000D01*
X124534709Y-98155000D01*
X124562706Y-98066735D01*
X124850000Y-98066735D01*
X124850000Y-98293265D01*
X124894194Y-98515443D01*
X124980884Y-98724729D01*
X125106737Y-98913082D01*
X125266918Y-99073263D01*
X125455271Y-99199116D01*
X125664557Y-99285806D01*
X125886735Y-99330000D01*
X126113265Y-99330000D01*
X126335443Y-99285806D01*
X126544729Y-99199116D01*
X126733082Y-99073263D01*
X126893263Y-98913082D01*
X127019116Y-98724729D01*
X127105806Y-98515443D01*
X127108877Y-98500000D01*
X155098548Y-98500000D01*
X155100000Y-99075000D01*
X155175000Y-99150000D01*
X157475000Y-99150000D01*
X157475000Y-98275000D01*
X157400000Y-98200000D01*
X155400000Y-98198548D01*
X155341190Y-98204340D01*
X155284639Y-98221495D01*
X155232522Y-98249352D01*
X155186841Y-98286841D01*
X155149352Y-98332522D01*
X155121495Y-98384639D01*
X155104340Y-98441190D01*
X155098548Y-98500000D01*
X127108877Y-98500000D01*
X127150000Y-98293265D01*
X127150000Y-98066735D01*
X127105806Y-97844557D01*
X127019116Y-97635271D01*
X126893263Y-97446918D01*
X126733082Y-97286737D01*
X126544729Y-97160884D01*
X126335443Y-97074194D01*
X126113265Y-97030000D01*
X125886735Y-97030000D01*
X125664557Y-97074194D01*
X125455271Y-97160884D01*
X125266918Y-97286737D01*
X125106737Y-97446918D01*
X124980884Y-97635271D01*
X124894194Y-97844557D01*
X124850000Y-98066735D01*
X124562706Y-98066735D01*
X124591662Y-97975451D01*
X124583797Y-97935909D01*
X124514584Y-97721357D01*
X124404844Y-97524431D01*
X124258794Y-97352698D01*
X124082047Y-97212757D01*
X123881395Y-97109987D01*
X123664549Y-97048337D01*
X123485000Y-97105271D01*
X123435000Y-97105271D01*
X123255451Y-97048337D01*
X123038605Y-97109987D01*
X122837953Y-97212757D01*
X122661206Y-97352698D01*
X122515156Y-97524431D01*
X122405416Y-97721357D01*
X122336203Y-97935909D01*
X122328338Y-97975451D01*
X119925000Y-97975451D01*
X119925000Y-93015897D01*
X119939384Y-92869195D01*
X119977373Y-92743371D01*
X120039076Y-92627325D01*
X120122148Y-92525468D01*
X120223418Y-92441690D01*
X120339027Y-92379181D01*
X120464586Y-92340314D01*
X120610285Y-92325000D01*
X158584103Y-92325000D01*
X158730805Y-92339384D01*
G37*
X158730805Y-92339384D02*
X158856629Y-92377373D01*
X158972675Y-92439076D01*
X159074532Y-92522148D01*
X159158310Y-92623418D01*
X159220819Y-92739027D01*
X159259686Y-92864586D01*
X159275001Y-93010295D01*
X159275000Y-98198784D01*
X157600000Y-98200000D01*
X157525000Y-98275000D01*
X157525000Y-99150000D01*
X157545000Y-99150000D01*
X157545000Y-99200000D01*
X157525000Y-99200000D01*
X157525000Y-100075000D01*
X157600000Y-100150000D01*
X159275000Y-100151216D01*
X159275000Y-103848784D01*
X157600000Y-103850000D01*
X157525000Y-103925000D01*
X157525000Y-104800000D01*
X157545000Y-104800000D01*
X157545000Y-104850000D01*
X157525000Y-104850000D01*
X157525000Y-105725000D01*
X157600000Y-105800000D01*
X159275000Y-105801216D01*
X159275001Y-110984094D01*
X159260616Y-111130805D01*
X159222627Y-111256629D01*
X159160924Y-111372675D01*
X159077853Y-111474531D01*
X158976586Y-111558307D01*
X158860973Y-111620819D01*
X158735410Y-111659687D01*
X158589716Y-111675000D01*
X120615896Y-111675000D01*
X120469195Y-111660616D01*
X120343371Y-111622627D01*
X120227325Y-111560924D01*
X120125469Y-111477853D01*
X120041693Y-111376586D01*
X119979181Y-111260973D01*
X119940313Y-111135410D01*
X119925000Y-110989716D01*
X119925000Y-105686735D01*
X122310000Y-105686735D01*
X122310000Y-105913265D01*
X122354194Y-106135443D01*
X122440884Y-106344729D01*
X122566737Y-106533082D01*
X122726918Y-106693263D01*
X122915271Y-106819116D01*
X123124557Y-106905806D01*
X123346735Y-106950000D01*
X123573265Y-106950000D01*
X123795443Y-106905806D01*
X124004729Y-106819116D01*
X124193082Y-106693263D01*
X124353263Y-106533082D01*
X124479116Y-106344729D01*
X124565806Y-106135443D01*
X124610000Y-105913265D01*
X124610000Y-105686735D01*
X124565806Y-105464557D01*
X124479116Y-105255271D01*
X124353263Y-105066918D01*
X124236345Y-104950000D01*
X124848549Y-104950000D01*
X124848549Y-106650000D01*
X124854341Y-106708810D01*
X124871496Y-106765360D01*
X124899353Y-106817477D01*
X124936842Y-106863158D01*
X124982523Y-106900647D01*
X125034640Y-106928504D01*
X125091190Y-106945659D01*
X125150000Y-106951451D01*
X126850000Y-106951451D01*
X126908810Y-106945659D01*
X126965360Y-106928504D01*
X127017477Y-106900647D01*
X127063158Y-106863158D01*
X127100647Y-106817477D01*
X127128504Y-106765360D01*
X127145659Y-106708810D01*
X127151451Y-106650000D01*
X127151451Y-105500000D01*
X155098548Y-105500000D01*
X155104340Y-105558810D01*
X155121495Y-105615361D01*
X155149352Y-105667478D01*
X155186841Y-105713159D01*
X155232522Y-105750648D01*
X155284639Y-105778505D01*
X155341190Y-105795660D01*
X155400000Y-105801452D01*
X157400000Y-105800000D01*
X157475000Y-105725000D01*
X157475000Y-104850000D01*
X155175000Y-104850000D01*
X155100000Y-104925000D01*
X155098548Y-105500000D01*
X127151451Y-105500000D01*
X127151451Y-104950000D01*
X127145659Y-104891190D01*
X127128504Y-104834640D01*
X127100647Y-104782523D01*
X127063158Y-104736842D01*
X127017477Y-104699353D01*
X126965360Y-104671496D01*
X126908810Y-104654341D01*
X126850000Y-104648549D01*
X125150000Y-104648549D01*
X125091190Y-104654341D01*
X125034640Y-104671496D01*
X124982523Y-104699353D01*
X124936842Y-104736842D01*
X124899353Y-104782523D01*
X124871496Y-104834640D01*
X124854341Y-104891190D01*
X124848549Y-104950000D01*
X124236345Y-104950000D01*
X124193082Y-104906737D01*
X124004729Y-104780884D01*
X123795443Y-104694194D01*
X123573265Y-104650000D01*
X123346735Y-104650000D01*
X123124557Y-104694194D01*
X122915271Y-104780884D01*
X122726918Y-104906737D01*
X122566737Y-105066918D01*
X122440884Y-105255271D01*
X122354194Y-105464557D01*
X122310000Y-105686735D01*
X119925000Y-105686735D01*
X119925000Y-103146735D01*
X122310000Y-103146735D01*
X122310000Y-103373265D01*
X122354194Y-103595443D01*
X122440884Y-103804729D01*
X122566737Y-103993082D01*
X122726918Y-104153263D01*
X122915271Y-104279116D01*
X123124557Y-104365806D01*
X123346735Y-104410000D01*
X123573265Y-104410000D01*
X123795443Y-104365806D01*
X124004729Y-104279116D01*
X124193082Y-104153263D01*
X124353263Y-103993082D01*
X124479116Y-103804729D01*
X124565806Y-103595443D01*
X124610000Y-103373265D01*
X124610000Y-103146735D01*
X124850000Y-103146735D01*
X124850000Y-103373265D01*
X124894194Y-103595443D01*
X124980884Y-103804729D01*
X125106737Y-103993082D01*
X125266918Y-104153263D01*
X125455271Y-104279116D01*
X125664557Y-104365806D01*
X125886735Y-104410000D01*
X126113265Y-104410000D01*
X126335443Y-104365806D01*
X126544729Y-104279116D01*
X126733082Y-104153263D01*
X126736345Y-104150000D01*
X155098548Y-104150000D01*
X155100000Y-104725000D01*
X155175000Y-104800000D01*
X157475000Y-104800000D01*
X157475000Y-103925000D01*
X157400000Y-103850000D01*
X155400000Y-103848548D01*
X155341190Y-103854340D01*
X155284639Y-103871495D01*
X155232522Y-103899352D01*
X155186841Y-103936841D01*
X155149352Y-103982522D01*
X155121495Y-104034639D01*
X155104340Y-104091190D01*
X155098548Y-104150000D01*
X126736345Y-104150000D01*
X126893263Y-103993082D01*
X127019116Y-103804729D01*
X127105806Y-103595443D01*
X127150000Y-103373265D01*
X127150000Y-103146735D01*
X127105806Y-102924557D01*
X127019116Y-102715271D01*
X126893263Y-102526918D01*
X126733082Y-102366737D01*
X126544729Y-102240884D01*
X126335443Y-102154194D01*
X126113265Y-102110000D01*
X125886735Y-102110000D01*
X125664557Y-102154194D01*
X125455271Y-102240884D01*
X125266918Y-102366737D01*
X125106737Y-102526918D01*
X124980884Y-102715271D01*
X124894194Y-102924557D01*
X124850000Y-103146735D01*
X124610000Y-103146735D01*
X124565806Y-102924557D01*
X124479116Y-102715271D01*
X124353263Y-102526918D01*
X124193082Y-102366737D01*
X124004729Y-102240884D01*
X123795443Y-102154194D01*
X123573265Y-102110000D01*
X123346735Y-102110000D01*
X123124557Y-102154194D01*
X122915271Y-102240884D01*
X122726918Y-102366737D01*
X122566737Y-102526918D01*
X122440884Y-102715271D01*
X122354194Y-102924557D01*
X122310000Y-103146735D01*
X119925000Y-103146735D01*
X119925000Y-100606735D01*
X122310000Y-100606735D01*
X122310000Y-100833265D01*
X122354194Y-101055443D01*
X122440884Y-101264729D01*
X122566737Y-101453082D01*
X122726918Y-101613263D01*
X122915271Y-101739116D01*
X123124557Y-101825806D01*
X123346735Y-101870000D01*
X123573265Y-101870000D01*
X123795443Y-101825806D01*
X124004729Y-101739116D01*
X124193082Y-101613263D01*
X124353263Y-101453082D01*
X124479116Y-101264729D01*
X124565806Y-101055443D01*
X124610000Y-100833265D01*
X124610000Y-100606735D01*
X124850000Y-100606735D01*
X124850000Y-100833265D01*
X124894194Y-101055443D01*
X124980884Y-101264729D01*
X125106737Y-101453082D01*
X125266918Y-101613263D01*
X125455271Y-101739116D01*
X125664557Y-101825806D01*
X125886735Y-101870000D01*
X126113265Y-101870000D01*
X126335443Y-101825806D01*
X126544729Y-101739116D01*
X126733082Y-101613263D01*
X126893263Y-101453082D01*
X127019116Y-101264729D01*
X127105806Y-101055443D01*
X127150000Y-100833265D01*
X127150000Y-100606735D01*
X127105806Y-100384557D01*
X127019116Y-100175271D01*
X126893263Y-99986918D01*
X126756345Y-99850000D01*
X155098548Y-99850000D01*
X155104340Y-99908810D01*
X155121495Y-99965361D01*
X155149352Y-100017478D01*
X155186841Y-100063159D01*
X155232522Y-100100648D01*
X155284639Y-100128505D01*
X155341190Y-100145660D01*
X155400000Y-100151452D01*
X157400000Y-100150000D01*
X157475000Y-100075000D01*
X157475000Y-99200000D01*
X155175000Y-99200000D01*
X155100000Y-99275000D01*
X155098548Y-99850000D01*
X126756345Y-99850000D01*
X126733082Y-99826737D01*
X126544729Y-99700884D01*
X126335443Y-99614194D01*
X126113265Y-99570000D01*
X125886735Y-99570000D01*
X125664557Y-99614194D01*
X125455271Y-99700884D01*
X125266918Y-99826737D01*
X125106737Y-99986918D01*
X124980884Y-100175271D01*
X124894194Y-100384557D01*
X124850000Y-100606735D01*
X124610000Y-100606735D01*
X124565806Y-100384557D01*
X124479116Y-100175271D01*
X124353263Y-99986918D01*
X124193082Y-99826737D01*
X124004729Y-99700884D01*
X123795443Y-99614194D01*
X123573265Y-99570000D01*
X123346735Y-99570000D01*
X123124557Y-99614194D01*
X122915271Y-99700884D01*
X122726918Y-99826737D01*
X122566737Y-99986918D01*
X122440884Y-100175271D01*
X122354194Y-100384557D01*
X122310000Y-100606735D01*
X119925000Y-100606735D01*
X119925000Y-98384549D01*
X122328338Y-98384549D01*
X122336203Y-98424091D01*
X122405416Y-98638643D01*
X122515156Y-98835569D01*
X122661206Y-99007302D01*
X122837953Y-99147243D01*
X123038605Y-99250013D01*
X123255451Y-99311663D01*
X123435000Y-99254729D01*
X123435000Y-98205000D01*
X123485000Y-98205000D01*
X123485000Y-99254729D01*
X123664549Y-99311663D01*
X123881395Y-99250013D01*
X124082047Y-99147243D01*
X124258794Y-99007302D01*
X124404844Y-98835569D01*
X124514584Y-98638643D01*
X124583797Y-98424091D01*
X124591662Y-98384549D01*
X124534709Y-98205000D01*
X123485000Y-98205000D01*
X123435000Y-98205000D01*
X122385291Y-98205000D01*
X122328338Y-98384549D01*
X119925000Y-98384549D01*
X119925000Y-97975451D01*
X122328338Y-97975451D01*
X122385291Y-98155000D01*
X123435000Y-98155000D01*
X123435000Y-97105271D01*
X123485000Y-97105271D01*
X123485000Y-98155000D01*
X124534709Y-98155000D01*
X124562706Y-98066735D01*
X124850000Y-98066735D01*
X124850000Y-98293265D01*
X124894194Y-98515443D01*
X124980884Y-98724729D01*
X125106737Y-98913082D01*
X125266918Y-99073263D01*
X125455271Y-99199116D01*
X125664557Y-99285806D01*
X125886735Y-99330000D01*
X126113265Y-99330000D01*
X126335443Y-99285806D01*
X126544729Y-99199116D01*
X126733082Y-99073263D01*
X126893263Y-98913082D01*
X127019116Y-98724729D01*
X127105806Y-98515443D01*
X127108877Y-98500000D01*
X155098548Y-98500000D01*
X155100000Y-99075000D01*
X155175000Y-99150000D01*
X157475000Y-99150000D01*
X157475000Y-98275000D01*
X157400000Y-98200000D01*
X155400000Y-98198548D01*
X155341190Y-98204340D01*
X155284639Y-98221495D01*
X155232522Y-98249352D01*
X155186841Y-98286841D01*
X155149352Y-98332522D01*
X155121495Y-98384639D01*
X155104340Y-98441190D01*
X155098548Y-98500000D01*
X127108877Y-98500000D01*
X127150000Y-98293265D01*
X127150000Y-98066735D01*
X127105806Y-97844557D01*
X127019116Y-97635271D01*
X126893263Y-97446918D01*
X126733082Y-97286737D01*
X126544729Y-97160884D01*
X126335443Y-97074194D01*
X126113265Y-97030000D01*
X125886735Y-97030000D01*
X125664557Y-97074194D01*
X125455271Y-97160884D01*
X125266918Y-97286737D01*
X125106737Y-97446918D01*
X124980884Y-97635271D01*
X124894194Y-97844557D01*
X124850000Y-98066735D01*
X124562706Y-98066735D01*
X124591662Y-97975451D01*
X124583797Y-97935909D01*
X124514584Y-97721357D01*
X124404844Y-97524431D01*
X124258794Y-97352698D01*
X124082047Y-97212757D01*
X123881395Y-97109987D01*
X123664549Y-97048337D01*
X123485000Y-97105271D01*
X123435000Y-97105271D01*
X123255451Y-97048337D01*
X123038605Y-97109987D01*
X122837953Y-97212757D01*
X122661206Y-97352698D01*
X122515156Y-97524431D01*
X122405416Y-97721357D01*
X122336203Y-97935909D01*
X122328338Y-97975451D01*
X119925000Y-97975451D01*
X119925000Y-93015897D01*
X119939384Y-92869195D01*
X119977373Y-92743371D01*
X120039076Y-92627325D01*
X120122148Y-92525468D01*
X120223418Y-92441690D01*
X120339027Y-92379181D01*
X120464586Y-92340314D01*
X120610285Y-92325000D01*
X158584103Y-92325000D01*
X158730805Y-92339384D01*
%TD*%
M02*
