%TF.GenerationSoftware,KiCad,Pcbnew,(5.1.6)-1*%
%TF.CreationDate,2020-08-23T21:25:53+02:00*%
%TF.ProjectId,nRF24module,6e524632-346d-46f6-9475-6c652e6b6963,1*%
%TF.SameCoordinates,Original*%
%TF.FileFunction,Soldermask,Bot*%
%TF.FilePolarity,Negative*%
%FSLAX46Y46*%
G04 Gerber Fmt 4.6, Leading zero omitted, Abs format (unit mm)*
G04 Created by KiCad (PCBNEW (5.1.6)-1) date 2020-08-23 21:25:53*
%MOMM*%
%LPD*%
G01*
G04 APERTURE LIST*
%ADD10C,0.100000*%
G04 APERTURE END LIST*
D10*
G36*
X123722520Y-104934586D02*
G01*
X123722522Y-104934587D01*
X123722523Y-104934587D01*
X123783025Y-104959648D01*
X123886310Y-105002430D01*
X124033717Y-105100924D01*
X124159076Y-105226283D01*
X124257570Y-105373690D01*
X124325414Y-105537480D01*
X124360000Y-105711358D01*
X124360000Y-105888642D01*
X124325414Y-106062520D01*
X124257570Y-106226310D01*
X124159076Y-106373717D01*
X124033717Y-106499076D01*
X123886310Y-106597570D01*
X123783025Y-106640352D01*
X123722523Y-106665413D01*
X123722522Y-106665413D01*
X123722520Y-106665414D01*
X123548642Y-106700000D01*
X123371358Y-106700000D01*
X123197480Y-106665414D01*
X123197478Y-106665413D01*
X123197477Y-106665413D01*
X123136975Y-106640352D01*
X123033690Y-106597570D01*
X122886283Y-106499076D01*
X122760924Y-106373717D01*
X122662430Y-106226310D01*
X122594586Y-106062520D01*
X122560000Y-105888642D01*
X122560000Y-105711358D01*
X122594586Y-105537480D01*
X122662430Y-105373690D01*
X122760924Y-105226283D01*
X122886283Y-105100924D01*
X123033690Y-105002430D01*
X123136975Y-104959648D01*
X123197477Y-104934587D01*
X123197478Y-104934587D01*
X123197480Y-104934586D01*
X123371358Y-104900000D01*
X123548642Y-104900000D01*
X123722520Y-104934586D01*
G37*
G36*
X126900000Y-106700000D02*
G01*
X125100000Y-106700000D01*
X125100000Y-104900000D01*
X126900000Y-104900000D01*
X126900000Y-106700000D01*
G37*
G36*
X159650000Y-105550000D02*
G01*
X155350000Y-105550000D01*
X155350000Y-104100000D01*
X159650000Y-104100000D01*
X159650000Y-105550000D01*
G37*
G36*
X123722520Y-102394586D02*
G01*
X123722522Y-102394587D01*
X123722523Y-102394587D01*
X123783025Y-102419648D01*
X123886310Y-102462430D01*
X124033717Y-102560924D01*
X124159076Y-102686283D01*
X124257570Y-102833690D01*
X124325414Y-102997480D01*
X124360000Y-103171358D01*
X124360000Y-103348642D01*
X124325414Y-103522520D01*
X124257570Y-103686310D01*
X124159076Y-103833717D01*
X124033717Y-103959076D01*
X123886310Y-104057570D01*
X123783875Y-104100000D01*
X123722523Y-104125413D01*
X123722522Y-104125413D01*
X123722520Y-104125414D01*
X123548642Y-104160000D01*
X123371358Y-104160000D01*
X123197480Y-104125414D01*
X123197478Y-104125413D01*
X123197477Y-104125413D01*
X123136125Y-104100000D01*
X123033690Y-104057570D01*
X122886283Y-103959076D01*
X122760924Y-103833717D01*
X122662430Y-103686310D01*
X122594586Y-103522520D01*
X122560000Y-103348642D01*
X122560000Y-103171358D01*
X122594586Y-102997480D01*
X122662430Y-102833690D01*
X122760924Y-102686283D01*
X122886283Y-102560924D01*
X123033690Y-102462430D01*
X123136975Y-102419648D01*
X123197477Y-102394587D01*
X123197478Y-102394587D01*
X123197480Y-102394586D01*
X123371358Y-102360000D01*
X123548642Y-102360000D01*
X123722520Y-102394586D01*
G37*
G36*
X126262520Y-102394586D02*
G01*
X126262522Y-102394587D01*
X126262523Y-102394587D01*
X126323025Y-102419648D01*
X126426310Y-102462430D01*
X126573717Y-102560924D01*
X126699076Y-102686283D01*
X126797570Y-102833690D01*
X126865414Y-102997480D01*
X126900000Y-103171358D01*
X126900000Y-103348642D01*
X126865414Y-103522520D01*
X126797570Y-103686310D01*
X126699076Y-103833717D01*
X126573717Y-103959076D01*
X126426310Y-104057570D01*
X126323875Y-104100000D01*
X126262523Y-104125413D01*
X126262522Y-104125413D01*
X126262520Y-104125414D01*
X126088642Y-104160000D01*
X125911358Y-104160000D01*
X125737480Y-104125414D01*
X125737478Y-104125413D01*
X125737477Y-104125413D01*
X125676125Y-104100000D01*
X125573690Y-104057570D01*
X125426283Y-103959076D01*
X125300924Y-103833717D01*
X125202430Y-103686310D01*
X125134586Y-103522520D01*
X125100000Y-103348642D01*
X125100000Y-103171358D01*
X125134586Y-102997480D01*
X125202430Y-102833690D01*
X125300924Y-102686283D01*
X125426283Y-102560924D01*
X125573690Y-102462430D01*
X125676975Y-102419648D01*
X125737477Y-102394587D01*
X125737478Y-102394587D01*
X125737480Y-102394586D01*
X125911358Y-102360000D01*
X126088642Y-102360000D01*
X126262520Y-102394586D01*
G37*
G36*
X126262520Y-99854586D02*
G01*
X126262522Y-99854587D01*
X126262523Y-99854587D01*
X126323025Y-99879648D01*
X126426310Y-99922430D01*
X126573717Y-100020924D01*
X126699076Y-100146283D01*
X126797570Y-100293690D01*
X126865414Y-100457480D01*
X126900000Y-100631358D01*
X126900000Y-100808642D01*
X126865414Y-100982520D01*
X126797570Y-101146310D01*
X126699076Y-101293717D01*
X126573717Y-101419076D01*
X126426310Y-101517570D01*
X126323025Y-101560352D01*
X126262523Y-101585413D01*
X126262522Y-101585413D01*
X126262520Y-101585414D01*
X126088642Y-101620000D01*
X125911358Y-101620000D01*
X125737480Y-101585414D01*
X125737478Y-101585413D01*
X125737477Y-101585413D01*
X125676975Y-101560352D01*
X125573690Y-101517570D01*
X125426283Y-101419076D01*
X125300924Y-101293717D01*
X125202430Y-101146310D01*
X125134586Y-100982520D01*
X125100000Y-100808642D01*
X125100000Y-100631358D01*
X125134586Y-100457480D01*
X125202430Y-100293690D01*
X125300924Y-100146283D01*
X125426283Y-100020924D01*
X125573690Y-99922430D01*
X125676975Y-99879648D01*
X125737477Y-99854587D01*
X125737478Y-99854587D01*
X125737480Y-99854586D01*
X125911358Y-99820000D01*
X126088642Y-99820000D01*
X126262520Y-99854586D01*
G37*
G36*
X123722520Y-99854586D02*
G01*
X123722522Y-99854587D01*
X123722523Y-99854587D01*
X123783025Y-99879648D01*
X123886310Y-99922430D01*
X124033717Y-100020924D01*
X124159076Y-100146283D01*
X124257570Y-100293690D01*
X124325414Y-100457480D01*
X124360000Y-100631358D01*
X124360000Y-100808642D01*
X124325414Y-100982520D01*
X124257570Y-101146310D01*
X124159076Y-101293717D01*
X124033717Y-101419076D01*
X123886310Y-101517570D01*
X123783025Y-101560352D01*
X123722523Y-101585413D01*
X123722522Y-101585413D01*
X123722520Y-101585414D01*
X123548642Y-101620000D01*
X123371358Y-101620000D01*
X123197480Y-101585414D01*
X123197478Y-101585413D01*
X123197477Y-101585413D01*
X123136975Y-101560352D01*
X123033690Y-101517570D01*
X122886283Y-101419076D01*
X122760924Y-101293717D01*
X122662430Y-101146310D01*
X122594586Y-100982520D01*
X122560000Y-100808642D01*
X122560000Y-100631358D01*
X122594586Y-100457480D01*
X122662430Y-100293690D01*
X122760924Y-100146283D01*
X122886283Y-100020924D01*
X123033690Y-99922430D01*
X123136975Y-99879648D01*
X123197477Y-99854587D01*
X123197478Y-99854587D01*
X123197480Y-99854586D01*
X123371358Y-99820000D01*
X123548642Y-99820000D01*
X123722520Y-99854586D01*
G37*
G36*
X159650000Y-99900000D02*
G01*
X155350000Y-99900000D01*
X155350000Y-98450000D01*
X159650000Y-98450000D01*
X159650000Y-99900000D01*
G37*
G36*
X126262520Y-97314586D02*
G01*
X126262522Y-97314587D01*
X126262523Y-97314587D01*
X126323025Y-97339648D01*
X126426310Y-97382430D01*
X126573717Y-97480924D01*
X126699076Y-97606283D01*
X126797570Y-97753690D01*
X126865414Y-97917480D01*
X126900000Y-98091358D01*
X126900000Y-98268642D01*
X126865414Y-98442520D01*
X126797570Y-98606310D01*
X126699076Y-98753717D01*
X126573717Y-98879076D01*
X126426310Y-98977570D01*
X126323025Y-99020352D01*
X126262523Y-99045413D01*
X126262522Y-99045413D01*
X126262520Y-99045414D01*
X126088642Y-99080000D01*
X125911358Y-99080000D01*
X125737480Y-99045414D01*
X125737478Y-99045413D01*
X125737477Y-99045413D01*
X125676975Y-99020352D01*
X125573690Y-98977570D01*
X125426283Y-98879076D01*
X125300924Y-98753717D01*
X125202430Y-98606310D01*
X125134586Y-98442520D01*
X125100000Y-98268642D01*
X125100000Y-98091358D01*
X125134586Y-97917480D01*
X125202430Y-97753690D01*
X125300924Y-97606283D01*
X125426283Y-97480924D01*
X125573690Y-97382430D01*
X125676975Y-97339648D01*
X125737477Y-97314587D01*
X125737478Y-97314587D01*
X125737480Y-97314586D01*
X125911358Y-97280000D01*
X126088642Y-97280000D01*
X126262520Y-97314586D01*
G37*
G36*
X123722520Y-97314586D02*
G01*
X123722522Y-97314587D01*
X123722523Y-97314587D01*
X123783025Y-97339648D01*
X123886310Y-97382430D01*
X124033717Y-97480924D01*
X124159076Y-97606283D01*
X124257570Y-97753690D01*
X124325414Y-97917480D01*
X124360000Y-98091358D01*
X124360000Y-98268642D01*
X124325414Y-98442520D01*
X124257570Y-98606310D01*
X124159076Y-98753717D01*
X124033717Y-98879076D01*
X123886310Y-98977570D01*
X123783025Y-99020352D01*
X123722523Y-99045413D01*
X123722522Y-99045413D01*
X123722520Y-99045414D01*
X123548642Y-99080000D01*
X123371358Y-99080000D01*
X123197480Y-99045414D01*
X123197478Y-99045413D01*
X123197477Y-99045413D01*
X123136975Y-99020352D01*
X123033690Y-98977570D01*
X122886283Y-98879076D01*
X122760924Y-98753717D01*
X122662430Y-98606310D01*
X122594586Y-98442520D01*
X122560000Y-98268642D01*
X122560000Y-98091358D01*
X122594586Y-97917480D01*
X122662430Y-97753690D01*
X122760924Y-97606283D01*
X122886283Y-97480924D01*
X123033690Y-97382430D01*
X123136975Y-97339648D01*
X123197477Y-97314587D01*
X123197478Y-97314587D01*
X123197480Y-97314586D01*
X123371358Y-97280000D01*
X123548642Y-97280000D01*
X123722520Y-97314586D01*
G37*
M02*
