%TF.GenerationSoftware,KiCad,Pcbnew,(5.1.6)-1*%
%TF.CreationDate,2020-08-23T21:25:53+02:00*%
%TF.ProjectId,nRF24module,6e524632-346d-46f6-9475-6c652e6b6963,1*%
%TF.SameCoordinates,Original*%
%TF.FileFunction,Legend,Top*%
%TF.FilePolarity,Positive*%
%FSLAX46Y46*%
G04 Gerber Fmt 4.6, Leading zero omitted, Abs format (unit mm)*
G04 Created by KiCad (PCBNEW (5.1.6)-1) date 2020-08-23 21:25:53*
%MOMM*%
%LPD*%
G01*
G04 APERTURE LIST*
%ADD10C,0.160000*%
%ADD11C,0.200000*%
%ADD12C,0.010000*%
%ADD13C,0.120000*%
%ADD14C,0.250000*%
%ADD15C,0.150000*%
G04 APERTURE END LIST*
D10*
X122373809Y-94961904D02*
X122373809Y-94161904D01*
X122716666Y-94961904D02*
X122716666Y-94542857D01*
X122678571Y-94466666D01*
X122602380Y-94428571D01*
X122488095Y-94428571D01*
X122411904Y-94466666D01*
X122373809Y-94504761D01*
X122983333Y-94428571D02*
X123288095Y-94428571D01*
X123097619Y-94161904D02*
X123097619Y-94847619D01*
X123135714Y-94923809D01*
X123211904Y-94961904D01*
X123288095Y-94961904D01*
X123440476Y-94428571D02*
X123745238Y-94428571D01*
X123554761Y-94161904D02*
X123554761Y-94847619D01*
X123592857Y-94923809D01*
X123669047Y-94961904D01*
X123745238Y-94961904D01*
X124011904Y-94428571D02*
X124011904Y-95228571D01*
X124011904Y-94466666D02*
X124088095Y-94428571D01*
X124240476Y-94428571D01*
X124316666Y-94466666D01*
X124354761Y-94504761D01*
X124392857Y-94580952D01*
X124392857Y-94809523D01*
X124354761Y-94885714D01*
X124316666Y-94923809D01*
X124240476Y-94961904D01*
X124088095Y-94961904D01*
X124011904Y-94923809D01*
X124697619Y-94923809D02*
X124773809Y-94961904D01*
X124926190Y-94961904D01*
X125002380Y-94923809D01*
X125040476Y-94847619D01*
X125040476Y-94809523D01*
X125002380Y-94733333D01*
X124926190Y-94695238D01*
X124811904Y-94695238D01*
X124735714Y-94657142D01*
X124697619Y-94580952D01*
X124697619Y-94542857D01*
X124735714Y-94466666D01*
X124811904Y-94428571D01*
X124926190Y-94428571D01*
X125002380Y-94466666D01*
X125383333Y-94885714D02*
X125421428Y-94923809D01*
X125383333Y-94961904D01*
X125345238Y-94923809D01*
X125383333Y-94885714D01*
X125383333Y-94961904D01*
X125383333Y-94466666D02*
X125421428Y-94504761D01*
X125383333Y-94542857D01*
X125345238Y-94504761D01*
X125383333Y-94466666D01*
X125383333Y-94542857D01*
X126335714Y-94123809D02*
X125650000Y-95152380D01*
X127173809Y-94123809D02*
X126488095Y-95152380D01*
X127783333Y-94428571D02*
X127783333Y-95076190D01*
X127745238Y-95152380D01*
X127707142Y-95190476D01*
X127630952Y-95228571D01*
X127516666Y-95228571D01*
X127440476Y-95190476D01*
X127783333Y-94923809D02*
X127707142Y-94961904D01*
X127554761Y-94961904D01*
X127478571Y-94923809D01*
X127440476Y-94885714D01*
X127402380Y-94809523D01*
X127402380Y-94580952D01*
X127440476Y-94504761D01*
X127478571Y-94466666D01*
X127554761Y-94428571D01*
X127707142Y-94428571D01*
X127783333Y-94466666D01*
X128164285Y-94961904D02*
X128164285Y-94428571D01*
X128164285Y-94161904D02*
X128126190Y-94200000D01*
X128164285Y-94238095D01*
X128202380Y-94200000D01*
X128164285Y-94161904D01*
X128164285Y-94238095D01*
X128430952Y-94428571D02*
X128735714Y-94428571D01*
X128545238Y-94161904D02*
X128545238Y-94847619D01*
X128583333Y-94923809D01*
X128659523Y-94961904D01*
X128735714Y-94961904D01*
X129002380Y-94961904D02*
X129002380Y-94161904D01*
X129345238Y-94961904D02*
X129345238Y-94542857D01*
X129307142Y-94466666D01*
X129230952Y-94428571D01*
X129116666Y-94428571D01*
X129040476Y-94466666D01*
X129002380Y-94504761D01*
X130069047Y-94428571D02*
X130069047Y-94961904D01*
X129726190Y-94428571D02*
X129726190Y-94847619D01*
X129764285Y-94923809D01*
X129840476Y-94961904D01*
X129954761Y-94961904D01*
X130030952Y-94923809D01*
X130069047Y-94885714D01*
X130450000Y-94961904D02*
X130450000Y-94161904D01*
X130450000Y-94466666D02*
X130526190Y-94428571D01*
X130678571Y-94428571D01*
X130754761Y-94466666D01*
X130792857Y-94504761D01*
X130830952Y-94580952D01*
X130830952Y-94809523D01*
X130792857Y-94885714D01*
X130754761Y-94923809D01*
X130678571Y-94961904D01*
X130526190Y-94961904D01*
X130450000Y-94923809D01*
X131173809Y-94885714D02*
X131211904Y-94923809D01*
X131173809Y-94961904D01*
X131135714Y-94923809D01*
X131173809Y-94885714D01*
X131173809Y-94961904D01*
X131897619Y-94923809D02*
X131821428Y-94961904D01*
X131669047Y-94961904D01*
X131592857Y-94923809D01*
X131554761Y-94885714D01*
X131516666Y-94809523D01*
X131516666Y-94580952D01*
X131554761Y-94504761D01*
X131592857Y-94466666D01*
X131669047Y-94428571D01*
X131821428Y-94428571D01*
X131897619Y-94466666D01*
X132354761Y-94961904D02*
X132278571Y-94923809D01*
X132240476Y-94885714D01*
X132202380Y-94809523D01*
X132202380Y-94580952D01*
X132240476Y-94504761D01*
X132278571Y-94466666D01*
X132354761Y-94428571D01*
X132469047Y-94428571D01*
X132545238Y-94466666D01*
X132583333Y-94504761D01*
X132621428Y-94580952D01*
X132621428Y-94809523D01*
X132583333Y-94885714D01*
X132545238Y-94923809D01*
X132469047Y-94961904D01*
X132354761Y-94961904D01*
X132964285Y-94961904D02*
X132964285Y-94428571D01*
X132964285Y-94504761D02*
X133002380Y-94466666D01*
X133078571Y-94428571D01*
X133192857Y-94428571D01*
X133269047Y-94466666D01*
X133307142Y-94542857D01*
X133307142Y-94961904D01*
X133307142Y-94542857D02*
X133345238Y-94466666D01*
X133421428Y-94428571D01*
X133535714Y-94428571D01*
X133611904Y-94466666D01*
X133650000Y-94542857D01*
X133650000Y-94961904D01*
X134602380Y-94123809D02*
X133916666Y-95152380D01*
X134869047Y-94542857D02*
X135135714Y-94542857D01*
X135250000Y-94961904D02*
X134869047Y-94961904D01*
X134869047Y-94161904D01*
X135250000Y-94161904D01*
X135707142Y-94961904D02*
X135630952Y-94923809D01*
X135592857Y-94847619D01*
X135592857Y-94161904D01*
X136354761Y-94961904D02*
X136354761Y-94161904D01*
X136354761Y-94923809D02*
X136278571Y-94961904D01*
X136126190Y-94961904D01*
X136050000Y-94923809D01*
X136011904Y-94885714D01*
X135973809Y-94809523D01*
X135973809Y-94580952D01*
X136011904Y-94504761D01*
X136050000Y-94466666D01*
X136126190Y-94428571D01*
X136278571Y-94428571D01*
X136354761Y-94466666D01*
X137078571Y-94961904D02*
X137078571Y-94542857D01*
X137040476Y-94466666D01*
X136964285Y-94428571D01*
X136811904Y-94428571D01*
X136735714Y-94466666D01*
X137078571Y-94923809D02*
X137002380Y-94961904D01*
X136811904Y-94961904D01*
X136735714Y-94923809D01*
X136697619Y-94847619D01*
X136697619Y-94771428D01*
X136735714Y-94695238D01*
X136811904Y-94657142D01*
X137002380Y-94657142D01*
X137078571Y-94619047D01*
X137573809Y-94961904D02*
X137497619Y-94923809D01*
X137459523Y-94847619D01*
X137459523Y-94161904D01*
X137992857Y-94961904D02*
X137916666Y-94923809D01*
X137878571Y-94885714D01*
X137840476Y-94809523D01*
X137840476Y-94580952D01*
X137878571Y-94504761D01*
X137916666Y-94466666D01*
X137992857Y-94428571D01*
X138107142Y-94428571D01*
X138183333Y-94466666D01*
X138221428Y-94504761D01*
X138259523Y-94580952D01*
X138259523Y-94809523D01*
X138221428Y-94885714D01*
X138183333Y-94923809D01*
X138107142Y-94961904D01*
X137992857Y-94961904D01*
X138488095Y-94428571D02*
X138792857Y-94428571D01*
X138602380Y-94161904D02*
X138602380Y-94847619D01*
X138640476Y-94923809D01*
X138716666Y-94961904D01*
X138792857Y-94961904D01*
X139364285Y-94923809D02*
X139288095Y-94961904D01*
X139135714Y-94961904D01*
X139059523Y-94923809D01*
X139021428Y-94847619D01*
X139021428Y-94542857D01*
X139059523Y-94466666D01*
X139135714Y-94428571D01*
X139288095Y-94428571D01*
X139364285Y-94466666D01*
X139402380Y-94542857D01*
X139402380Y-94619047D01*
X139021428Y-94695238D01*
X140316666Y-94123809D02*
X139630952Y-95152380D01*
X140583333Y-94428571D02*
X140583333Y-94961904D01*
X140583333Y-94504761D02*
X140621428Y-94466666D01*
X140697619Y-94428571D01*
X140811904Y-94428571D01*
X140888095Y-94466666D01*
X140926190Y-94542857D01*
X140926190Y-94961904D01*
X141764285Y-94961904D02*
X141497619Y-94580952D01*
X141307142Y-94961904D02*
X141307142Y-94161904D01*
X141611904Y-94161904D01*
X141688095Y-94200000D01*
X141726190Y-94238095D01*
X141764285Y-94314285D01*
X141764285Y-94428571D01*
X141726190Y-94504761D01*
X141688095Y-94542857D01*
X141611904Y-94580952D01*
X141307142Y-94580952D01*
X142373809Y-94542857D02*
X142107142Y-94542857D01*
X142107142Y-94961904D02*
X142107142Y-94161904D01*
X142488095Y-94161904D01*
X142754761Y-94238095D02*
X142792857Y-94200000D01*
X142869047Y-94161904D01*
X143059523Y-94161904D01*
X143135714Y-94200000D01*
X143173809Y-94238095D01*
X143211904Y-94314285D01*
X143211904Y-94390476D01*
X143173809Y-94504761D01*
X142716666Y-94961904D01*
X143211904Y-94961904D01*
X143897619Y-94428571D02*
X143897619Y-94961904D01*
X143707142Y-94123809D02*
X143516666Y-94695238D01*
X144011904Y-94695238D01*
X144697619Y-94961904D02*
X144316666Y-94961904D01*
X144316666Y-94161904D01*
X145116666Y-94161904D02*
X145192857Y-94161904D01*
X145269047Y-94200000D01*
X145307142Y-94238095D01*
X145345238Y-94314285D01*
X145383333Y-94466666D01*
X145383333Y-94657142D01*
X145345238Y-94809523D01*
X145307142Y-94885714D01*
X145269047Y-94923809D01*
X145192857Y-94961904D01*
X145116666Y-94961904D01*
X145040476Y-94923809D01*
X145002380Y-94885714D01*
X144964285Y-94809523D01*
X144926190Y-94657142D01*
X144926190Y-94466666D01*
X144964285Y-94314285D01*
X145002380Y-94238095D01*
X145040476Y-94200000D01*
X145116666Y-94161904D01*
X146145238Y-94961904D02*
X145688095Y-94961904D01*
X145916666Y-94961904D02*
X145916666Y-94161904D01*
X145840476Y-94276190D01*
X145764285Y-94352380D01*
X145688095Y-94390476D01*
X146488095Y-94961904D02*
X146488095Y-94161904D01*
X146792857Y-94161904D01*
X146869047Y-94200000D01*
X146907142Y-94238095D01*
X146945238Y-94314285D01*
X146945238Y-94428571D01*
X146907142Y-94504761D01*
X146869047Y-94542857D01*
X146792857Y-94580952D01*
X146488095Y-94580952D01*
X147288095Y-94657142D02*
X147897619Y-94657142D01*
X148278571Y-94961904D02*
X148278571Y-94161904D01*
X148583333Y-94161904D01*
X148659523Y-94200000D01*
X148697619Y-94238095D01*
X148735714Y-94314285D01*
X148735714Y-94428571D01*
X148697619Y-94504761D01*
X148659523Y-94542857D01*
X148583333Y-94580952D01*
X148278571Y-94580952D01*
X149040476Y-94733333D02*
X149421428Y-94733333D01*
X148964285Y-94961904D02*
X149230952Y-94161904D01*
X149497619Y-94961904D01*
X149764285Y-94657142D02*
X150373809Y-94657142D01*
X151135714Y-94961904D02*
X150754761Y-94961904D01*
X150754761Y-94161904D01*
X151402380Y-94961904D02*
X151402380Y-94161904D01*
X151859523Y-94961904D01*
X151859523Y-94161904D01*
X152202380Y-94733333D02*
X152583333Y-94733333D01*
X152126190Y-94961904D02*
X152392857Y-94161904D01*
X152659523Y-94961904D01*
X152926190Y-94657142D02*
X153535714Y-94657142D01*
X153916666Y-94961904D02*
X153916666Y-94161904D01*
X154183333Y-94733333D01*
X154450000Y-94161904D01*
X154450000Y-94961904D01*
X154945238Y-94961904D02*
X154869047Y-94923809D01*
X154830952Y-94885714D01*
X154792857Y-94809523D01*
X154792857Y-94580952D01*
X154830952Y-94504761D01*
X154869047Y-94466666D01*
X154945238Y-94428571D01*
X155059523Y-94428571D01*
X155135714Y-94466666D01*
X155173809Y-94504761D01*
X155211904Y-94580952D01*
X155211904Y-94809523D01*
X155173809Y-94885714D01*
X155135714Y-94923809D01*
X155059523Y-94961904D01*
X154945238Y-94961904D01*
X155897619Y-94961904D02*
X155897619Y-94161904D01*
X155897619Y-94923809D02*
X155821428Y-94961904D01*
X155669047Y-94961904D01*
X155592857Y-94923809D01*
X155554761Y-94885714D01*
X155516666Y-94809523D01*
X155516666Y-94580952D01*
X155554761Y-94504761D01*
X155592857Y-94466666D01*
X155669047Y-94428571D01*
X155821428Y-94428571D01*
X155897619Y-94466666D01*
X156621428Y-94428571D02*
X156621428Y-94961904D01*
X156278571Y-94428571D02*
X156278571Y-94847619D01*
X156316666Y-94923809D01*
X156392857Y-94961904D01*
X156507142Y-94961904D01*
X156583333Y-94923809D01*
X156621428Y-94885714D01*
X157116666Y-94961904D02*
X157040476Y-94923809D01*
X157002380Y-94847619D01*
X157002380Y-94161904D01*
X157726190Y-94923809D02*
X157650000Y-94961904D01*
X157497619Y-94961904D01*
X157421428Y-94923809D01*
X157383333Y-94847619D01*
X157383333Y-94542857D01*
X157421428Y-94466666D01*
X157497619Y-94428571D01*
X157650000Y-94428571D01*
X157726190Y-94466666D01*
X157764285Y-94542857D01*
X157764285Y-94619047D01*
X157383333Y-94695238D01*
X125630952Y-110785714D02*
X125630952Y-111452380D01*
X125630952Y-110880952D02*
X125678571Y-110833333D01*
X125773809Y-110785714D01*
X125916666Y-110785714D01*
X126011904Y-110833333D01*
X126059523Y-110928571D01*
X126059523Y-111452380D01*
X127107142Y-111452380D02*
X126773809Y-110976190D01*
X126535714Y-111452380D02*
X126535714Y-110452380D01*
X126916666Y-110452380D01*
X127011904Y-110500000D01*
X127059523Y-110547619D01*
X127107142Y-110642857D01*
X127107142Y-110785714D01*
X127059523Y-110880952D01*
X127011904Y-110928571D01*
X126916666Y-110976190D01*
X126535714Y-110976190D01*
X127869047Y-110928571D02*
X127535714Y-110928571D01*
X127535714Y-111452380D02*
X127535714Y-110452380D01*
X128011904Y-110452380D01*
X128345238Y-110547619D02*
X128392857Y-110500000D01*
X128488095Y-110452380D01*
X128726190Y-110452380D01*
X128821428Y-110500000D01*
X128869047Y-110547619D01*
X128916666Y-110642857D01*
X128916666Y-110738095D01*
X128869047Y-110880952D01*
X128297619Y-111452380D01*
X128916666Y-111452380D01*
X129773809Y-110785714D02*
X129773809Y-111452380D01*
X129535714Y-110404761D02*
X129297619Y-111119047D01*
X129916666Y-111119047D01*
X130773809Y-111452380D02*
X130297619Y-111452380D01*
X130297619Y-110452380D01*
X131297619Y-110452380D02*
X131392857Y-110452380D01*
X131488095Y-110500000D01*
X131535714Y-110547619D01*
X131583333Y-110642857D01*
X131630952Y-110833333D01*
X131630952Y-111071428D01*
X131583333Y-111261904D01*
X131535714Y-111357142D01*
X131488095Y-111404761D01*
X131392857Y-111452380D01*
X131297619Y-111452380D01*
X131202380Y-111404761D01*
X131154761Y-111357142D01*
X131107142Y-111261904D01*
X131059523Y-111071428D01*
X131059523Y-110833333D01*
X131107142Y-110642857D01*
X131154761Y-110547619D01*
X131202380Y-110500000D01*
X131297619Y-110452380D01*
X132583333Y-111452380D02*
X132011904Y-111452380D01*
X132297619Y-111452380D02*
X132297619Y-110452380D01*
X132202380Y-110595238D01*
X132107142Y-110690476D01*
X132011904Y-110738095D01*
X133011904Y-111071428D02*
X133773809Y-111071428D01*
X133392857Y-111452380D02*
X133392857Y-110690476D01*
X135011904Y-111452380D02*
X135011904Y-110452380D01*
X135392857Y-110452380D01*
X135488095Y-110500000D01*
X135535714Y-110547619D01*
X135583333Y-110642857D01*
X135583333Y-110785714D01*
X135535714Y-110880952D01*
X135488095Y-110928571D01*
X135392857Y-110976190D01*
X135011904Y-110976190D01*
X135964285Y-111166666D02*
X136440476Y-111166666D01*
X135869047Y-111452380D02*
X136202380Y-110452380D01*
X136535714Y-111452380D01*
X138107142Y-111452380D02*
X137630952Y-111452380D01*
X137630952Y-110452380D01*
X138440476Y-111452380D02*
X138440476Y-110452380D01*
X139011904Y-111452380D01*
X139011904Y-110452380D01*
X139440476Y-111166666D02*
X139916666Y-111166666D01*
X139345238Y-111452380D02*
X139678571Y-110452380D01*
X140011904Y-111452380D01*
D11*
X152076190Y-95802380D02*
X152409523Y-96802380D01*
X152742857Y-95802380D01*
X153600000Y-96802380D02*
X153028571Y-96802380D01*
X153314285Y-96802380D02*
X153314285Y-95802380D01*
X153219047Y-95945238D01*
X153123809Y-96040476D01*
X153028571Y-96088095D01*
X154028571Y-96707142D02*
X154076190Y-96754761D01*
X154028571Y-96802380D01*
X153980952Y-96754761D01*
X154028571Y-96707142D01*
X154028571Y-96802380D01*
X154695238Y-95802380D02*
X154790476Y-95802380D01*
X154885714Y-95850000D01*
X154933333Y-95897619D01*
X154980952Y-95992857D01*
X155028571Y-96183333D01*
X155028571Y-96421428D01*
X154980952Y-96611904D01*
X154933333Y-96707142D01*
X154885714Y-96754761D01*
X154790476Y-96802380D01*
X154695238Y-96802380D01*
X154600000Y-96754761D01*
X154552380Y-96707142D01*
X154504761Y-96611904D01*
X154457142Y-96421428D01*
X154457142Y-96183333D01*
X154504761Y-95992857D01*
X154552380Y-95897619D01*
X154600000Y-95850000D01*
X154695238Y-95802380D01*
X129292857Y-93607142D02*
X129245238Y-93654761D01*
X129102380Y-93702380D01*
X129007142Y-93702380D01*
X128864285Y-93654761D01*
X128769047Y-93559523D01*
X128721428Y-93464285D01*
X128673809Y-93273809D01*
X128673809Y-93130952D01*
X128721428Y-92940476D01*
X128769047Y-92845238D01*
X128864285Y-92750000D01*
X129007142Y-92702380D01*
X129102380Y-92702380D01*
X129245238Y-92750000D01*
X129292857Y-92797619D01*
X129864285Y-93702380D02*
X129769047Y-93654761D01*
X129721428Y-93607142D01*
X129673809Y-93511904D01*
X129673809Y-93226190D01*
X129721428Y-93130952D01*
X129769047Y-93083333D01*
X129864285Y-93035714D01*
X130007142Y-93035714D01*
X130102380Y-93083333D01*
X130150000Y-93130952D01*
X130197619Y-93226190D01*
X130197619Y-93511904D01*
X130150000Y-93607142D01*
X130102380Y-93654761D01*
X130007142Y-93702380D01*
X129864285Y-93702380D01*
X130626190Y-93035714D02*
X130626190Y-94035714D01*
X130626190Y-93083333D02*
X130721428Y-93035714D01*
X130911904Y-93035714D01*
X131007142Y-93083333D01*
X131054761Y-93130952D01*
X131102380Y-93226190D01*
X131102380Y-93511904D01*
X131054761Y-93607142D01*
X131007142Y-93654761D01*
X130911904Y-93702380D01*
X130721428Y-93702380D01*
X130626190Y-93654761D01*
X131435714Y-93035714D02*
X131673809Y-93702380D01*
X131911904Y-93035714D02*
X131673809Y-93702380D01*
X131578571Y-93940476D01*
X131530952Y-93988095D01*
X131435714Y-94035714D01*
X132292857Y-93702380D02*
X132292857Y-93035714D01*
X132292857Y-93226190D02*
X132340476Y-93130952D01*
X132388095Y-93083333D01*
X132483333Y-93035714D01*
X132578571Y-93035714D01*
X132911904Y-93702380D02*
X132911904Y-93035714D01*
X132911904Y-92702380D02*
X132864285Y-92750000D01*
X132911904Y-92797619D01*
X132959523Y-92750000D01*
X132911904Y-92702380D01*
X132911904Y-92797619D01*
X133816666Y-93035714D02*
X133816666Y-93845238D01*
X133769047Y-93940476D01*
X133721428Y-93988095D01*
X133626190Y-94035714D01*
X133483333Y-94035714D01*
X133388095Y-93988095D01*
X133816666Y-93654761D02*
X133721428Y-93702380D01*
X133530952Y-93702380D01*
X133435714Y-93654761D01*
X133388095Y-93607142D01*
X133340476Y-93511904D01*
X133340476Y-93226190D01*
X133388095Y-93130952D01*
X133435714Y-93083333D01*
X133530952Y-93035714D01*
X133721428Y-93035714D01*
X133816666Y-93083333D01*
X134292857Y-93702380D02*
X134292857Y-92702380D01*
X134721428Y-93702380D02*
X134721428Y-93178571D01*
X134673809Y-93083333D01*
X134578571Y-93035714D01*
X134435714Y-93035714D01*
X134340476Y-93083333D01*
X134292857Y-93130952D01*
X135054761Y-93035714D02*
X135435714Y-93035714D01*
X135197619Y-92702380D02*
X135197619Y-93559523D01*
X135245238Y-93654761D01*
X135340476Y-93702380D01*
X135435714Y-93702380D01*
X137340476Y-92940476D02*
X137245238Y-92892857D01*
X137054761Y-92892857D01*
X136959523Y-92940476D01*
X136864285Y-93035714D01*
X136816666Y-93130952D01*
X136816666Y-93321428D01*
X136864285Y-93416666D01*
X136959523Y-93511904D01*
X137054761Y-93559523D01*
X137245238Y-93559523D01*
X137340476Y-93511904D01*
X137150000Y-92559523D02*
X136911904Y-92607142D01*
X136673809Y-92750000D01*
X136530952Y-92988095D01*
X136483333Y-93226190D01*
X136530952Y-93464285D01*
X136673809Y-93702380D01*
X136911904Y-93845238D01*
X137150000Y-93892857D01*
X137388095Y-93845238D01*
X137626190Y-93702380D01*
X137769047Y-93464285D01*
X137816666Y-93226190D01*
X137769047Y-92988095D01*
X137626190Y-92750000D01*
X137388095Y-92607142D01*
X137150000Y-92559523D01*
X138959523Y-92797619D02*
X139007142Y-92750000D01*
X139102380Y-92702380D01*
X139340476Y-92702380D01*
X139435714Y-92750000D01*
X139483333Y-92797619D01*
X139530952Y-92892857D01*
X139530952Y-92988095D01*
X139483333Y-93130952D01*
X138911904Y-93702380D01*
X139530952Y-93702380D01*
X140150000Y-92702380D02*
X140245238Y-92702380D01*
X140340476Y-92750000D01*
X140388095Y-92797619D01*
X140435714Y-92892857D01*
X140483333Y-93083333D01*
X140483333Y-93321428D01*
X140435714Y-93511904D01*
X140388095Y-93607142D01*
X140340476Y-93654761D01*
X140245238Y-93702380D01*
X140150000Y-93702380D01*
X140054761Y-93654761D01*
X140007142Y-93607142D01*
X139959523Y-93511904D01*
X139911904Y-93321428D01*
X139911904Y-93083333D01*
X139959523Y-92892857D01*
X140007142Y-92797619D01*
X140054761Y-92750000D01*
X140150000Y-92702380D01*
X140864285Y-92797619D02*
X140911904Y-92750000D01*
X141007142Y-92702380D01*
X141245238Y-92702380D01*
X141340476Y-92750000D01*
X141388095Y-92797619D01*
X141435714Y-92892857D01*
X141435714Y-92988095D01*
X141388095Y-93130952D01*
X140816666Y-93702380D01*
X141435714Y-93702380D01*
X142054761Y-92702380D02*
X142150000Y-92702380D01*
X142245238Y-92750000D01*
X142292857Y-92797619D01*
X142340476Y-92892857D01*
X142388095Y-93083333D01*
X142388095Y-93321428D01*
X142340476Y-93511904D01*
X142292857Y-93607142D01*
X142245238Y-93654761D01*
X142150000Y-93702380D01*
X142054761Y-93702380D01*
X141959523Y-93654761D01*
X141911904Y-93607142D01*
X141864285Y-93511904D01*
X141816666Y-93321428D01*
X141816666Y-93083333D01*
X141864285Y-92892857D01*
X141911904Y-92797619D01*
X141959523Y-92750000D01*
X142054761Y-92702380D01*
X143864285Y-92702380D02*
X143864285Y-93416666D01*
X143816666Y-93559523D01*
X143721428Y-93654761D01*
X143578571Y-93702380D01*
X143483333Y-93702380D01*
X144340476Y-93607142D02*
X144388095Y-93654761D01*
X144340476Y-93702380D01*
X144292857Y-93654761D01*
X144340476Y-93607142D01*
X144340476Y-93702380D01*
X144816666Y-93702380D02*
X144816666Y-92702380D01*
X145150000Y-93416666D01*
X145483333Y-92702380D01*
X145483333Y-93702380D01*
X145959523Y-93607142D02*
X146007142Y-93654761D01*
X145959523Y-93702380D01*
X145911904Y-93654761D01*
X145959523Y-93607142D01*
X145959523Y-93702380D01*
X147673809Y-93702380D02*
X147197619Y-93702380D01*
X147197619Y-92702380D01*
X148007142Y-93702380D02*
X148007142Y-93035714D01*
X148007142Y-92702380D02*
X147959523Y-92750000D01*
X148007142Y-92797619D01*
X148054761Y-92750000D01*
X148007142Y-92702380D01*
X148007142Y-92797619D01*
X148864285Y-93654761D02*
X148769047Y-93702380D01*
X148578571Y-93702380D01*
X148483333Y-93654761D01*
X148435714Y-93559523D01*
X148435714Y-93178571D01*
X148483333Y-93083333D01*
X148578571Y-93035714D01*
X148769047Y-93035714D01*
X148864285Y-93083333D01*
X148911904Y-93178571D01*
X148911904Y-93273809D01*
X148435714Y-93369047D01*
X149245238Y-93035714D02*
X149435714Y-93702380D01*
X149626190Y-93226190D01*
X149816666Y-93702380D01*
X150007142Y-93035714D01*
X150769047Y-93654761D02*
X150673809Y-93702380D01*
X150483333Y-93702380D01*
X150388095Y-93654761D01*
X150340476Y-93559523D01*
X150340476Y-93178571D01*
X150388095Y-93083333D01*
X150483333Y-93035714D01*
X150673809Y-93035714D01*
X150769047Y-93083333D01*
X150816666Y-93178571D01*
X150816666Y-93273809D01*
X150340476Y-93369047D01*
X151197619Y-93654761D02*
X151292857Y-93702380D01*
X151483333Y-93702380D01*
X151578571Y-93654761D01*
X151626190Y-93559523D01*
X151626190Y-93511904D01*
X151578571Y-93416666D01*
X151483333Y-93369047D01*
X151340476Y-93369047D01*
X151245238Y-93321428D01*
X151197619Y-93226190D01*
X151197619Y-93178571D01*
X151245238Y-93083333D01*
X151340476Y-93035714D01*
X151483333Y-93035714D01*
X151578571Y-93083333D01*
D12*
%TO.C,LOGO1*%
G36*
X146349744Y-110719918D02*
G01*
X146405201Y-110747568D01*
X146454148Y-110798480D01*
X146467629Y-110817338D01*
X146482314Y-110842015D01*
X146491842Y-110868816D01*
X146497293Y-110904587D01*
X146499747Y-110956169D01*
X146500286Y-111024267D01*
X146497852Y-111117588D01*
X146489394Y-111187657D01*
X146473174Y-111239931D01*
X146447454Y-111279869D01*
X146410497Y-111312929D01*
X146407782Y-111314886D01*
X146371360Y-111334908D01*
X146327502Y-111344815D01*
X146271724Y-111347257D01*
X146181048Y-111347257D01*
X146181010Y-111435283D01*
X146180166Y-111484308D01*
X146175024Y-111513065D01*
X146161587Y-111530311D01*
X146135858Y-111544808D01*
X146129679Y-111547769D01*
X146100764Y-111561648D01*
X146078376Y-111570414D01*
X146061729Y-111571171D01*
X146050036Y-111561023D01*
X146042510Y-111537073D01*
X146038366Y-111496426D01*
X146036815Y-111436186D01*
X146037071Y-111353455D01*
X146038349Y-111245339D01*
X146038748Y-111213000D01*
X146040185Y-111101524D01*
X146041472Y-111028603D01*
X146180971Y-111028603D01*
X146181755Y-111090499D01*
X146185240Y-111130997D01*
X146193124Y-111157708D01*
X146207105Y-111178244D01*
X146216597Y-111188260D01*
X146255404Y-111217567D01*
X146289763Y-111219952D01*
X146325216Y-111195750D01*
X146326114Y-111194857D01*
X146340539Y-111176153D01*
X146349313Y-111150732D01*
X146353739Y-111111584D01*
X146355118Y-111051697D01*
X146355143Y-111038430D01*
X146351812Y-110955901D01*
X146340969Y-110898691D01*
X146321340Y-110863766D01*
X146291650Y-110848094D01*
X146274491Y-110846514D01*
X146233766Y-110853926D01*
X146205832Y-110878330D01*
X146189017Y-110922980D01*
X146181650Y-110991130D01*
X146180971Y-111028603D01*
X146041472Y-111028603D01*
X146041708Y-111015245D01*
X146043677Y-110950333D01*
X146046450Y-110902958D01*
X146050388Y-110869290D01*
X146055849Y-110845498D01*
X146063192Y-110827753D01*
X146072777Y-110812224D01*
X146076887Y-110806381D01*
X146131405Y-110751185D01*
X146200336Y-110719890D01*
X146280072Y-110711165D01*
X146349744Y-110719918D01*
G37*
X146349744Y-110719918D02*
X146405201Y-110747568D01*
X146454148Y-110798480D01*
X146467629Y-110817338D01*
X146482314Y-110842015D01*
X146491842Y-110868816D01*
X146497293Y-110904587D01*
X146499747Y-110956169D01*
X146500286Y-111024267D01*
X146497852Y-111117588D01*
X146489394Y-111187657D01*
X146473174Y-111239931D01*
X146447454Y-111279869D01*
X146410497Y-111312929D01*
X146407782Y-111314886D01*
X146371360Y-111334908D01*
X146327502Y-111344815D01*
X146271724Y-111347257D01*
X146181048Y-111347257D01*
X146181010Y-111435283D01*
X146180166Y-111484308D01*
X146175024Y-111513065D01*
X146161587Y-111530311D01*
X146135858Y-111544808D01*
X146129679Y-111547769D01*
X146100764Y-111561648D01*
X146078376Y-111570414D01*
X146061729Y-111571171D01*
X146050036Y-111561023D01*
X146042510Y-111537073D01*
X146038366Y-111496426D01*
X146036815Y-111436186D01*
X146037071Y-111353455D01*
X146038349Y-111245339D01*
X146038748Y-111213000D01*
X146040185Y-111101524D01*
X146041472Y-111028603D01*
X146180971Y-111028603D01*
X146181755Y-111090499D01*
X146185240Y-111130997D01*
X146193124Y-111157708D01*
X146207105Y-111178244D01*
X146216597Y-111188260D01*
X146255404Y-111217567D01*
X146289763Y-111219952D01*
X146325216Y-111195750D01*
X146326114Y-111194857D01*
X146340539Y-111176153D01*
X146349313Y-111150732D01*
X146353739Y-111111584D01*
X146355118Y-111051697D01*
X146355143Y-111038430D01*
X146351812Y-110955901D01*
X146340969Y-110898691D01*
X146321340Y-110863766D01*
X146291650Y-110848094D01*
X146274491Y-110846514D01*
X146233766Y-110853926D01*
X146205832Y-110878330D01*
X146189017Y-110922980D01*
X146181650Y-110991130D01*
X146180971Y-111028603D01*
X146041472Y-111028603D01*
X146041708Y-111015245D01*
X146043677Y-110950333D01*
X146046450Y-110902958D01*
X146050388Y-110869290D01*
X146055849Y-110845498D01*
X146063192Y-110827753D01*
X146072777Y-110812224D01*
X146076887Y-110806381D01*
X146131405Y-110751185D01*
X146200336Y-110719890D01*
X146280072Y-110711165D01*
X146349744Y-110719918D01*
G36*
X147466093Y-110727780D02*
G01*
X147512672Y-110754723D01*
X147545057Y-110781466D01*
X147568742Y-110809484D01*
X147585059Y-110843748D01*
X147595339Y-110889227D01*
X147600914Y-110950892D01*
X147603116Y-111033711D01*
X147603371Y-111093246D01*
X147603371Y-111312391D01*
X147541686Y-111340044D01*
X147480000Y-111367697D01*
X147472743Y-111127670D01*
X147469744Y-111038028D01*
X147466598Y-110972962D01*
X147462701Y-110928026D01*
X147457447Y-110898770D01*
X147450231Y-110880748D01*
X147440450Y-110869511D01*
X147437312Y-110867079D01*
X147389761Y-110848083D01*
X147341697Y-110855600D01*
X147313086Y-110875543D01*
X147301447Y-110889675D01*
X147293391Y-110908220D01*
X147288271Y-110936334D01*
X147285441Y-110979173D01*
X147284256Y-111041895D01*
X147284057Y-111107261D01*
X147284018Y-111189268D01*
X147282614Y-111247316D01*
X147277914Y-111286465D01*
X147267987Y-111311780D01*
X147250903Y-111328323D01*
X147224732Y-111341156D01*
X147189775Y-111354491D01*
X147151596Y-111369007D01*
X147156141Y-111111389D01*
X147157971Y-111018519D01*
X147160112Y-110949889D01*
X147163181Y-110900711D01*
X147167794Y-110866198D01*
X147174568Y-110841562D01*
X147184119Y-110822016D01*
X147195634Y-110804770D01*
X147251190Y-110749680D01*
X147318980Y-110717822D01*
X147392713Y-110710191D01*
X147466093Y-110727780D01*
G37*
X147466093Y-110727780D02*
X147512672Y-110754723D01*
X147545057Y-110781466D01*
X147568742Y-110809484D01*
X147585059Y-110843748D01*
X147595339Y-110889227D01*
X147600914Y-110950892D01*
X147603116Y-111033711D01*
X147603371Y-111093246D01*
X147603371Y-111312391D01*
X147541686Y-111340044D01*
X147480000Y-111367697D01*
X147472743Y-111127670D01*
X147469744Y-111038028D01*
X147466598Y-110972962D01*
X147462701Y-110928026D01*
X147457447Y-110898770D01*
X147450231Y-110880748D01*
X147440450Y-110869511D01*
X147437312Y-110867079D01*
X147389761Y-110848083D01*
X147341697Y-110855600D01*
X147313086Y-110875543D01*
X147301447Y-110889675D01*
X147293391Y-110908220D01*
X147288271Y-110936334D01*
X147285441Y-110979173D01*
X147284256Y-111041895D01*
X147284057Y-111107261D01*
X147284018Y-111189268D01*
X147282614Y-111247316D01*
X147277914Y-111286465D01*
X147267987Y-111311780D01*
X147250903Y-111328323D01*
X147224732Y-111341156D01*
X147189775Y-111354491D01*
X147151596Y-111369007D01*
X147156141Y-111111389D01*
X147157971Y-111018519D01*
X147160112Y-110949889D01*
X147163181Y-110900711D01*
X147167794Y-110866198D01*
X147174568Y-110841562D01*
X147184119Y-110822016D01*
X147195634Y-110804770D01*
X147251190Y-110749680D01*
X147318980Y-110717822D01*
X147392713Y-110710191D01*
X147466093Y-110727780D01*
G36*
X145791115Y-110721962D02*
G01*
X145859145Y-110757733D01*
X145909351Y-110815301D01*
X145927185Y-110852312D01*
X145941063Y-110907882D01*
X145948167Y-110978096D01*
X145948840Y-111054727D01*
X145943427Y-111129552D01*
X145932270Y-111194342D01*
X145915714Y-111240873D01*
X145910626Y-111248887D01*
X145850355Y-111308707D01*
X145778769Y-111344535D01*
X145701092Y-111355020D01*
X145622548Y-111338810D01*
X145600689Y-111329092D01*
X145558122Y-111299143D01*
X145520763Y-111259433D01*
X145517232Y-111254397D01*
X145502881Y-111230124D01*
X145493394Y-111204178D01*
X145487790Y-111170022D01*
X145485086Y-111121119D01*
X145484299Y-111050935D01*
X145484286Y-111035200D01*
X145484322Y-111030192D01*
X145629429Y-111030192D01*
X145630273Y-111096430D01*
X145633596Y-111140386D01*
X145640583Y-111168779D01*
X145652416Y-111188325D01*
X145658457Y-111194857D01*
X145693186Y-111219680D01*
X145726903Y-111218548D01*
X145760995Y-111197016D01*
X145781329Y-111174029D01*
X145793371Y-111140478D01*
X145800134Y-111087569D01*
X145800598Y-111081399D01*
X145801752Y-110985513D01*
X145789688Y-110914299D01*
X145764570Y-110868194D01*
X145726560Y-110847635D01*
X145712992Y-110846514D01*
X145677364Y-110852152D01*
X145652994Y-110871686D01*
X145638093Y-110909042D01*
X145630875Y-110968150D01*
X145629429Y-111030192D01*
X145484322Y-111030192D01*
X145484826Y-110960413D01*
X145487096Y-110908159D01*
X145492068Y-110871949D01*
X145500713Y-110845299D01*
X145514005Y-110821722D01*
X145516943Y-110817338D01*
X145566313Y-110758249D01*
X145620109Y-110723947D01*
X145685602Y-110710331D01*
X145707842Y-110709665D01*
X145791115Y-110721962D01*
G37*
X145791115Y-110721962D02*
X145859145Y-110757733D01*
X145909351Y-110815301D01*
X145927185Y-110852312D01*
X145941063Y-110907882D01*
X145948167Y-110978096D01*
X145948840Y-111054727D01*
X145943427Y-111129552D01*
X145932270Y-111194342D01*
X145915714Y-111240873D01*
X145910626Y-111248887D01*
X145850355Y-111308707D01*
X145778769Y-111344535D01*
X145701092Y-111355020D01*
X145622548Y-111338810D01*
X145600689Y-111329092D01*
X145558122Y-111299143D01*
X145520763Y-111259433D01*
X145517232Y-111254397D01*
X145502881Y-111230124D01*
X145493394Y-111204178D01*
X145487790Y-111170022D01*
X145485086Y-111121119D01*
X145484299Y-111050935D01*
X145484286Y-111035200D01*
X145484322Y-111030192D01*
X145629429Y-111030192D01*
X145630273Y-111096430D01*
X145633596Y-111140386D01*
X145640583Y-111168779D01*
X145652416Y-111188325D01*
X145658457Y-111194857D01*
X145693186Y-111219680D01*
X145726903Y-111218548D01*
X145760995Y-111197016D01*
X145781329Y-111174029D01*
X145793371Y-111140478D01*
X145800134Y-111087569D01*
X145800598Y-111081399D01*
X145801752Y-110985513D01*
X145789688Y-110914299D01*
X145764570Y-110868194D01*
X145726560Y-110847635D01*
X145712992Y-110846514D01*
X145677364Y-110852152D01*
X145652994Y-110871686D01*
X145638093Y-110909042D01*
X145630875Y-110968150D01*
X145629429Y-111030192D01*
X145484322Y-111030192D01*
X145484826Y-110960413D01*
X145487096Y-110908159D01*
X145492068Y-110871949D01*
X145500713Y-110845299D01*
X145514005Y-110821722D01*
X145516943Y-110817338D01*
X145566313Y-110758249D01*
X145620109Y-110723947D01*
X145685602Y-110710331D01*
X145707842Y-110709665D01*
X145791115Y-110721962D01*
G36*
X146918303Y-110731239D02*
G01*
X146975527Y-110769735D01*
X147019749Y-110825335D01*
X147046167Y-110896086D01*
X147051510Y-110948162D01*
X147050903Y-110969893D01*
X147045822Y-110986531D01*
X147031855Y-111001437D01*
X147004589Y-111017973D01*
X146959612Y-111039498D01*
X146892511Y-111069374D01*
X146892171Y-111069524D01*
X146830407Y-111097813D01*
X146779759Y-111122933D01*
X146745404Y-111142179D01*
X146732518Y-111152848D01*
X146732514Y-111152934D01*
X146743872Y-111176166D01*
X146770431Y-111201774D01*
X146800923Y-111220221D01*
X146816370Y-111223886D01*
X146858515Y-111211212D01*
X146894808Y-111179471D01*
X146912517Y-111144572D01*
X146929552Y-111118845D01*
X146962922Y-111089546D01*
X147002149Y-111064235D01*
X147036756Y-111050471D01*
X147043993Y-111049714D01*
X147052139Y-111062160D01*
X147052630Y-111093972D01*
X147046643Y-111136866D01*
X147035357Y-111182558D01*
X147019950Y-111222761D01*
X147019171Y-111224322D01*
X146972804Y-111289062D01*
X146912711Y-111333097D01*
X146844465Y-111354711D01*
X146773638Y-111352185D01*
X146705804Y-111323804D01*
X146702788Y-111321808D01*
X146649427Y-111273448D01*
X146614340Y-111210352D01*
X146594922Y-111127387D01*
X146592316Y-111104078D01*
X146587701Y-110994055D01*
X146593233Y-110942748D01*
X146732514Y-110942748D01*
X146734324Y-110974753D01*
X146744222Y-110984093D01*
X146768898Y-110977105D01*
X146807795Y-110960587D01*
X146851275Y-110939881D01*
X146852356Y-110939333D01*
X146889209Y-110919949D01*
X146904000Y-110907013D01*
X146900353Y-110893451D01*
X146884995Y-110875632D01*
X146845923Y-110849845D01*
X146803846Y-110847950D01*
X146766103Y-110866717D01*
X146740034Y-110902915D01*
X146732514Y-110942748D01*
X146593233Y-110942748D01*
X146597194Y-110906027D01*
X146621550Y-110836212D01*
X146655456Y-110787302D01*
X146716653Y-110737878D01*
X146784063Y-110713359D01*
X146852880Y-110711797D01*
X146918303Y-110731239D01*
G37*
X146918303Y-110731239D02*
X146975527Y-110769735D01*
X147019749Y-110825335D01*
X147046167Y-110896086D01*
X147051510Y-110948162D01*
X147050903Y-110969893D01*
X147045822Y-110986531D01*
X147031855Y-111001437D01*
X147004589Y-111017973D01*
X146959612Y-111039498D01*
X146892511Y-111069374D01*
X146892171Y-111069524D01*
X146830407Y-111097813D01*
X146779759Y-111122933D01*
X146745404Y-111142179D01*
X146732518Y-111152848D01*
X146732514Y-111152934D01*
X146743872Y-111176166D01*
X146770431Y-111201774D01*
X146800923Y-111220221D01*
X146816370Y-111223886D01*
X146858515Y-111211212D01*
X146894808Y-111179471D01*
X146912517Y-111144572D01*
X146929552Y-111118845D01*
X146962922Y-111089546D01*
X147002149Y-111064235D01*
X147036756Y-111050471D01*
X147043993Y-111049714D01*
X147052139Y-111062160D01*
X147052630Y-111093972D01*
X147046643Y-111136866D01*
X147035357Y-111182558D01*
X147019950Y-111222761D01*
X147019171Y-111224322D01*
X146972804Y-111289062D01*
X146912711Y-111333097D01*
X146844465Y-111354711D01*
X146773638Y-111352185D01*
X146705804Y-111323804D01*
X146702788Y-111321808D01*
X146649427Y-111273448D01*
X146614340Y-111210352D01*
X146594922Y-111127387D01*
X146592316Y-111104078D01*
X146587701Y-110994055D01*
X146593233Y-110942748D01*
X146732514Y-110942748D01*
X146734324Y-110974753D01*
X146744222Y-110984093D01*
X146768898Y-110977105D01*
X146807795Y-110960587D01*
X146851275Y-110939881D01*
X146852356Y-110939333D01*
X146889209Y-110919949D01*
X146904000Y-110907013D01*
X146900353Y-110893451D01*
X146884995Y-110875632D01*
X146845923Y-110849845D01*
X146803846Y-110847950D01*
X146766103Y-110866717D01*
X146740034Y-110902915D01*
X146732514Y-110942748D01*
X146593233Y-110942748D01*
X146597194Y-110906027D01*
X146621550Y-110836212D01*
X146655456Y-110787302D01*
X146716653Y-110737878D01*
X146784063Y-110713359D01*
X146852880Y-110711797D01*
X146918303Y-110731239D01*
G36*
X148125886Y-110651289D02*
G01*
X148130139Y-110710613D01*
X148135025Y-110745572D01*
X148141795Y-110760820D01*
X148151702Y-110761015D01*
X148154914Y-110759195D01*
X148197644Y-110746015D01*
X148253227Y-110746785D01*
X148309737Y-110760333D01*
X148345082Y-110777861D01*
X148381321Y-110805861D01*
X148407813Y-110837549D01*
X148425999Y-110877813D01*
X148437322Y-110931543D01*
X148443222Y-111003626D01*
X148445143Y-111098951D01*
X148445177Y-111117237D01*
X148445200Y-111322646D01*
X148399491Y-111338580D01*
X148367027Y-111349420D01*
X148349215Y-111354468D01*
X148348691Y-111354514D01*
X148346937Y-111340828D01*
X148345444Y-111303076D01*
X148344326Y-111246224D01*
X148343697Y-111175234D01*
X148343600Y-111132073D01*
X148343398Y-111046973D01*
X148342358Y-110985981D01*
X148339831Y-110944177D01*
X148335164Y-110916642D01*
X148327707Y-110898456D01*
X148316811Y-110884698D01*
X148310007Y-110878073D01*
X148263272Y-110851375D01*
X148212272Y-110849375D01*
X148166001Y-110871955D01*
X148157444Y-110880107D01*
X148144893Y-110895436D01*
X148136188Y-110913618D01*
X148130631Y-110939909D01*
X148127526Y-110979562D01*
X148126176Y-111037832D01*
X148125886Y-111118173D01*
X148125886Y-111322646D01*
X148080177Y-111338580D01*
X148047713Y-111349420D01*
X148029901Y-111354468D01*
X148029377Y-111354514D01*
X148028037Y-111340623D01*
X148026828Y-111301439D01*
X148025801Y-111240700D01*
X148025002Y-111162141D01*
X148024481Y-111069498D01*
X148024286Y-110966509D01*
X148024286Y-110569342D01*
X148071457Y-110549444D01*
X148118629Y-110529547D01*
X148125886Y-110651289D01*
G37*
X148125886Y-110651289D02*
X148130139Y-110710613D01*
X148135025Y-110745572D01*
X148141795Y-110760820D01*
X148151702Y-110761015D01*
X148154914Y-110759195D01*
X148197644Y-110746015D01*
X148253227Y-110746785D01*
X148309737Y-110760333D01*
X148345082Y-110777861D01*
X148381321Y-110805861D01*
X148407813Y-110837549D01*
X148425999Y-110877813D01*
X148437322Y-110931543D01*
X148443222Y-111003626D01*
X148445143Y-111098951D01*
X148445177Y-111117237D01*
X148445200Y-111322646D01*
X148399491Y-111338580D01*
X148367027Y-111349420D01*
X148349215Y-111354468D01*
X148348691Y-111354514D01*
X148346937Y-111340828D01*
X148345444Y-111303076D01*
X148344326Y-111246224D01*
X148343697Y-111175234D01*
X148343600Y-111132073D01*
X148343398Y-111046973D01*
X148342358Y-110985981D01*
X148339831Y-110944177D01*
X148335164Y-110916642D01*
X148327707Y-110898456D01*
X148316811Y-110884698D01*
X148310007Y-110878073D01*
X148263272Y-110851375D01*
X148212272Y-110849375D01*
X148166001Y-110871955D01*
X148157444Y-110880107D01*
X148144893Y-110895436D01*
X148136188Y-110913618D01*
X148130631Y-110939909D01*
X148127526Y-110979562D01*
X148126176Y-111037832D01*
X148125886Y-111118173D01*
X148125886Y-111322646D01*
X148080177Y-111338580D01*
X148047713Y-111349420D01*
X148029901Y-111354468D01*
X148029377Y-111354514D01*
X148028037Y-111340623D01*
X148026828Y-111301439D01*
X148025801Y-111240700D01*
X148025002Y-111162141D01*
X148024481Y-111069498D01*
X148024286Y-110966509D01*
X148024286Y-110569342D01*
X148071457Y-110549444D01*
X148118629Y-110529547D01*
X148125886Y-110651289D01*
G36*
X148789744Y-110750968D02*
G01*
X148846616Y-110772087D01*
X148847267Y-110772493D01*
X148882440Y-110798380D01*
X148908407Y-110828633D01*
X148926670Y-110868058D01*
X148938732Y-110921462D01*
X148946096Y-110993651D01*
X148950264Y-111089432D01*
X148950629Y-111103078D01*
X148955876Y-111308842D01*
X148911716Y-111331678D01*
X148879763Y-111347110D01*
X148860470Y-111354423D01*
X148859578Y-111354514D01*
X148856239Y-111341022D01*
X148853587Y-111304626D01*
X148851956Y-111251452D01*
X148851600Y-111208393D01*
X148851592Y-111138641D01*
X148848403Y-111094837D01*
X148837288Y-111073944D01*
X148813501Y-111072925D01*
X148772296Y-111088741D01*
X148710086Y-111117815D01*
X148664341Y-111141963D01*
X148640813Y-111162913D01*
X148633896Y-111185747D01*
X148633886Y-111186877D01*
X148645299Y-111226212D01*
X148679092Y-111247462D01*
X148730809Y-111250539D01*
X148768061Y-111250006D01*
X148787703Y-111260735D01*
X148799952Y-111286505D01*
X148807002Y-111319337D01*
X148796842Y-111337966D01*
X148793017Y-111340632D01*
X148757001Y-111351340D01*
X148706566Y-111352856D01*
X148654626Y-111345759D01*
X148617822Y-111332788D01*
X148566938Y-111289585D01*
X148538014Y-111229446D01*
X148532286Y-111182462D01*
X148536657Y-111140082D01*
X148552475Y-111105488D01*
X148583797Y-111074763D01*
X148634678Y-111043990D01*
X148709176Y-111009252D01*
X148713714Y-111007288D01*
X148780821Y-110976287D01*
X148822232Y-110950862D01*
X148839981Y-110928014D01*
X148836107Y-110904745D01*
X148812643Y-110878056D01*
X148805627Y-110871914D01*
X148758630Y-110848100D01*
X148709933Y-110849103D01*
X148667522Y-110872451D01*
X148639384Y-110915675D01*
X148636769Y-110924160D01*
X148611308Y-110965308D01*
X148579001Y-110985128D01*
X148532286Y-111004770D01*
X148532286Y-110953950D01*
X148546496Y-110880082D01*
X148588675Y-110812327D01*
X148610624Y-110789661D01*
X148660517Y-110760569D01*
X148723967Y-110747400D01*
X148789744Y-110750968D01*
G37*
X148789744Y-110750968D02*
X148846616Y-110772087D01*
X148847267Y-110772493D01*
X148882440Y-110798380D01*
X148908407Y-110828633D01*
X148926670Y-110868058D01*
X148938732Y-110921462D01*
X148946096Y-110993651D01*
X148950264Y-111089432D01*
X148950629Y-111103078D01*
X148955876Y-111308842D01*
X148911716Y-111331678D01*
X148879763Y-111347110D01*
X148860470Y-111354423D01*
X148859578Y-111354514D01*
X148856239Y-111341022D01*
X148853587Y-111304626D01*
X148851956Y-111251452D01*
X148851600Y-111208393D01*
X148851592Y-111138641D01*
X148848403Y-111094837D01*
X148837288Y-111073944D01*
X148813501Y-111072925D01*
X148772296Y-111088741D01*
X148710086Y-111117815D01*
X148664341Y-111141963D01*
X148640813Y-111162913D01*
X148633896Y-111185747D01*
X148633886Y-111186877D01*
X148645299Y-111226212D01*
X148679092Y-111247462D01*
X148730809Y-111250539D01*
X148768061Y-111250006D01*
X148787703Y-111260735D01*
X148799952Y-111286505D01*
X148807002Y-111319337D01*
X148796842Y-111337966D01*
X148793017Y-111340632D01*
X148757001Y-111351340D01*
X148706566Y-111352856D01*
X148654626Y-111345759D01*
X148617822Y-111332788D01*
X148566938Y-111289585D01*
X148538014Y-111229446D01*
X148532286Y-111182462D01*
X148536657Y-111140082D01*
X148552475Y-111105488D01*
X148583797Y-111074763D01*
X148634678Y-111043990D01*
X148709176Y-111009252D01*
X148713714Y-111007288D01*
X148780821Y-110976287D01*
X148822232Y-110950862D01*
X148839981Y-110928014D01*
X148836107Y-110904745D01*
X148812643Y-110878056D01*
X148805627Y-110871914D01*
X148758630Y-110848100D01*
X148709933Y-110849103D01*
X148667522Y-110872451D01*
X148639384Y-110915675D01*
X148636769Y-110924160D01*
X148611308Y-110965308D01*
X148579001Y-110985128D01*
X148532286Y-111004770D01*
X148532286Y-110953950D01*
X148546496Y-110880082D01*
X148588675Y-110812327D01*
X148610624Y-110789661D01*
X148660517Y-110760569D01*
X148723967Y-110747400D01*
X148789744Y-110750968D01*
G36*
X149279926Y-110749755D02*
G01*
X149345858Y-110774084D01*
X149399273Y-110817117D01*
X149420164Y-110847409D01*
X149442939Y-110902994D01*
X149442466Y-110943186D01*
X149418562Y-110970217D01*
X149409717Y-110974813D01*
X149371530Y-110989144D01*
X149352028Y-110985472D01*
X149345422Y-110961407D01*
X149345086Y-110948114D01*
X149332992Y-110899210D01*
X149301471Y-110864999D01*
X149257659Y-110848476D01*
X149208695Y-110852634D01*
X149168894Y-110874227D01*
X149155450Y-110886544D01*
X149145921Y-110901487D01*
X149139485Y-110924075D01*
X149135317Y-110959328D01*
X149132597Y-111012266D01*
X149130502Y-111087907D01*
X149129960Y-111111857D01*
X149127981Y-111193790D01*
X149125731Y-111251455D01*
X149122357Y-111289608D01*
X149117006Y-111313004D01*
X149108824Y-111326398D01*
X149096959Y-111334545D01*
X149089362Y-111338144D01*
X149057102Y-111350452D01*
X149038111Y-111354514D01*
X149031836Y-111340948D01*
X149028006Y-111299934D01*
X149026600Y-111230999D01*
X149027598Y-111133669D01*
X149027908Y-111118657D01*
X149030101Y-111029859D01*
X149032693Y-110965019D01*
X149036382Y-110919067D01*
X149041864Y-110886935D01*
X149049835Y-110863553D01*
X149060993Y-110843852D01*
X149066830Y-110835410D01*
X149100296Y-110798057D01*
X149137727Y-110769003D01*
X149142309Y-110766467D01*
X149209426Y-110746443D01*
X149279926Y-110749755D01*
G37*
X149279926Y-110749755D02*
X149345858Y-110774084D01*
X149399273Y-110817117D01*
X149420164Y-110847409D01*
X149442939Y-110902994D01*
X149442466Y-110943186D01*
X149418562Y-110970217D01*
X149409717Y-110974813D01*
X149371530Y-110989144D01*
X149352028Y-110985472D01*
X149345422Y-110961407D01*
X149345086Y-110948114D01*
X149332992Y-110899210D01*
X149301471Y-110864999D01*
X149257659Y-110848476D01*
X149208695Y-110852634D01*
X149168894Y-110874227D01*
X149155450Y-110886544D01*
X149145921Y-110901487D01*
X149139485Y-110924075D01*
X149135317Y-110959328D01*
X149132597Y-111012266D01*
X149130502Y-111087907D01*
X149129960Y-111111857D01*
X149127981Y-111193790D01*
X149125731Y-111251455D01*
X149122357Y-111289608D01*
X149117006Y-111313004D01*
X149108824Y-111326398D01*
X149096959Y-111334545D01*
X149089362Y-111338144D01*
X149057102Y-111350452D01*
X149038111Y-111354514D01*
X149031836Y-111340948D01*
X149028006Y-111299934D01*
X149026600Y-111230999D01*
X149027598Y-111133669D01*
X149027908Y-111118657D01*
X149030101Y-111029859D01*
X149032693Y-110965019D01*
X149036382Y-110919067D01*
X149041864Y-110886935D01*
X149049835Y-110863553D01*
X149060993Y-110843852D01*
X149066830Y-110835410D01*
X149100296Y-110798057D01*
X149137727Y-110769003D01*
X149142309Y-110766467D01*
X149209426Y-110746443D01*
X149279926Y-110749755D01*
G36*
X149940117Y-110865358D02*
G01*
X149939933Y-110973837D01*
X149939219Y-111057287D01*
X149937675Y-111119704D01*
X149935001Y-111165085D01*
X149930894Y-111197429D01*
X149925055Y-111220733D01*
X149917182Y-111238995D01*
X149911221Y-111249418D01*
X149861855Y-111305945D01*
X149799264Y-111341377D01*
X149730013Y-111354090D01*
X149660668Y-111342463D01*
X149619375Y-111321568D01*
X149576025Y-111285422D01*
X149546481Y-111241276D01*
X149528655Y-111183462D01*
X149520463Y-111106313D01*
X149519302Y-111049714D01*
X149519458Y-111045647D01*
X149620857Y-111045647D01*
X149621476Y-111110550D01*
X149624314Y-111153514D01*
X149630840Y-111181622D01*
X149642523Y-111201953D01*
X149656483Y-111217288D01*
X149703365Y-111246890D01*
X149753701Y-111249419D01*
X149801276Y-111224705D01*
X149804979Y-111221356D01*
X149820783Y-111203935D01*
X149830693Y-111183209D01*
X149836058Y-111152362D01*
X149838228Y-111104577D01*
X149838571Y-111051748D01*
X149837827Y-110985381D01*
X149834748Y-110941106D01*
X149828061Y-110912009D01*
X149816496Y-110891173D01*
X149807013Y-110880107D01*
X149762960Y-110852198D01*
X149712224Y-110848843D01*
X149663796Y-110870159D01*
X149654450Y-110878073D01*
X149638540Y-110895647D01*
X149628610Y-110916587D01*
X149623278Y-110947782D01*
X149621163Y-110996122D01*
X149620857Y-111045647D01*
X149519458Y-111045647D01*
X149522810Y-110958568D01*
X149534726Y-110890086D01*
X149557135Y-110838600D01*
X149592124Y-110798443D01*
X149619375Y-110777861D01*
X149668907Y-110755625D01*
X149726316Y-110745304D01*
X149779682Y-110748067D01*
X149809543Y-110759212D01*
X149821261Y-110762383D01*
X149829037Y-110750557D01*
X149834465Y-110718866D01*
X149838571Y-110670593D01*
X149843067Y-110616829D01*
X149849313Y-110584482D01*
X149860676Y-110565985D01*
X149880528Y-110553770D01*
X149893000Y-110548362D01*
X149940171Y-110528601D01*
X149940117Y-110865358D01*
G37*
X149940117Y-110865358D02*
X149939933Y-110973837D01*
X149939219Y-111057287D01*
X149937675Y-111119704D01*
X149935001Y-111165085D01*
X149930894Y-111197429D01*
X149925055Y-111220733D01*
X149917182Y-111238995D01*
X149911221Y-111249418D01*
X149861855Y-111305945D01*
X149799264Y-111341377D01*
X149730013Y-111354090D01*
X149660668Y-111342463D01*
X149619375Y-111321568D01*
X149576025Y-111285422D01*
X149546481Y-111241276D01*
X149528655Y-111183462D01*
X149520463Y-111106313D01*
X149519302Y-111049714D01*
X149519458Y-111045647D01*
X149620857Y-111045647D01*
X149621476Y-111110550D01*
X149624314Y-111153514D01*
X149630840Y-111181622D01*
X149642523Y-111201953D01*
X149656483Y-111217288D01*
X149703365Y-111246890D01*
X149753701Y-111249419D01*
X149801276Y-111224705D01*
X149804979Y-111221356D01*
X149820783Y-111203935D01*
X149830693Y-111183209D01*
X149836058Y-111152362D01*
X149838228Y-111104577D01*
X149838571Y-111051748D01*
X149837827Y-110985381D01*
X149834748Y-110941106D01*
X149828061Y-110912009D01*
X149816496Y-110891173D01*
X149807013Y-110880107D01*
X149762960Y-110852198D01*
X149712224Y-110848843D01*
X149663796Y-110870159D01*
X149654450Y-110878073D01*
X149638540Y-110895647D01*
X149628610Y-110916587D01*
X149623278Y-110947782D01*
X149621163Y-110996122D01*
X149620857Y-111045647D01*
X149519458Y-111045647D01*
X149522810Y-110958568D01*
X149534726Y-110890086D01*
X149557135Y-110838600D01*
X149592124Y-110798443D01*
X149619375Y-110777861D01*
X149668907Y-110755625D01*
X149726316Y-110745304D01*
X149779682Y-110748067D01*
X149809543Y-110759212D01*
X149821261Y-110762383D01*
X149829037Y-110750557D01*
X149834465Y-110718866D01*
X149838571Y-110670593D01*
X149843067Y-110616829D01*
X149849313Y-110584482D01*
X149860676Y-110565985D01*
X149880528Y-110553770D01*
X149893000Y-110548362D01*
X149940171Y-110528601D01*
X149940117Y-110865358D01*
G36*
X150529833Y-110758663D02*
G01*
X150532048Y-110796850D01*
X150533784Y-110854886D01*
X150534899Y-110928180D01*
X150535257Y-111005055D01*
X150535257Y-111265196D01*
X150489326Y-111311127D01*
X150457675Y-111339429D01*
X150429890Y-111350893D01*
X150391915Y-111350168D01*
X150376840Y-111348321D01*
X150329726Y-111342948D01*
X150290756Y-111339869D01*
X150281257Y-111339585D01*
X150249233Y-111341445D01*
X150203432Y-111346114D01*
X150185674Y-111348321D01*
X150142057Y-111351735D01*
X150112745Y-111344320D01*
X150083680Y-111321427D01*
X150073188Y-111311127D01*
X150027257Y-111265196D01*
X150027257Y-110778602D01*
X150064226Y-110761758D01*
X150096059Y-110749282D01*
X150114683Y-110744914D01*
X150119458Y-110758718D01*
X150123921Y-110797286D01*
X150127775Y-110856356D01*
X150130722Y-110931663D01*
X150132143Y-110995286D01*
X150136114Y-111245657D01*
X150170759Y-111250556D01*
X150202268Y-111247131D01*
X150217708Y-111236041D01*
X150222023Y-111215308D01*
X150225708Y-111171145D01*
X150228469Y-111109146D01*
X150230012Y-111034909D01*
X150230235Y-110996706D01*
X150230457Y-110776783D01*
X150276166Y-110760849D01*
X150308518Y-110750015D01*
X150326115Y-110744962D01*
X150326623Y-110744914D01*
X150328388Y-110758648D01*
X150330329Y-110796730D01*
X150332282Y-110854482D01*
X150334084Y-110927227D01*
X150335343Y-110995286D01*
X150339314Y-111245657D01*
X150426400Y-111245657D01*
X150430396Y-111017240D01*
X150434392Y-110788822D01*
X150476847Y-110766868D01*
X150508192Y-110751793D01*
X150526744Y-110744951D01*
X150527279Y-110744914D01*
X150529833Y-110758663D01*
G37*
X150529833Y-110758663D02*
X150532048Y-110796850D01*
X150533784Y-110854886D01*
X150534899Y-110928180D01*
X150535257Y-111005055D01*
X150535257Y-111265196D01*
X150489326Y-111311127D01*
X150457675Y-111339429D01*
X150429890Y-111350893D01*
X150391915Y-111350168D01*
X150376840Y-111348321D01*
X150329726Y-111342948D01*
X150290756Y-111339869D01*
X150281257Y-111339585D01*
X150249233Y-111341445D01*
X150203432Y-111346114D01*
X150185674Y-111348321D01*
X150142057Y-111351735D01*
X150112745Y-111344320D01*
X150083680Y-111321427D01*
X150073188Y-111311127D01*
X150027257Y-111265196D01*
X150027257Y-110778602D01*
X150064226Y-110761758D01*
X150096059Y-110749282D01*
X150114683Y-110744914D01*
X150119458Y-110758718D01*
X150123921Y-110797286D01*
X150127775Y-110856356D01*
X150130722Y-110931663D01*
X150132143Y-110995286D01*
X150136114Y-111245657D01*
X150170759Y-111250556D01*
X150202268Y-111247131D01*
X150217708Y-111236041D01*
X150222023Y-111215308D01*
X150225708Y-111171145D01*
X150228469Y-111109146D01*
X150230012Y-111034909D01*
X150230235Y-110996706D01*
X150230457Y-110776783D01*
X150276166Y-110760849D01*
X150308518Y-110750015D01*
X150326115Y-110744962D01*
X150326623Y-110744914D01*
X150328388Y-110758648D01*
X150330329Y-110796730D01*
X150332282Y-110854482D01*
X150334084Y-110927227D01*
X150335343Y-110995286D01*
X150339314Y-111245657D01*
X150426400Y-111245657D01*
X150430396Y-111017240D01*
X150434392Y-110788822D01*
X150476847Y-110766868D01*
X150508192Y-110751793D01*
X150526744Y-110744951D01*
X150527279Y-110744914D01*
X150529833Y-110758663D01*
G36*
X150894876Y-110756335D02*
G01*
X150936667Y-110775344D01*
X150969469Y-110798378D01*
X150993503Y-110824133D01*
X151010097Y-110857358D01*
X151020577Y-110902800D01*
X151026271Y-110965207D01*
X151028507Y-111049327D01*
X151028743Y-111104721D01*
X151028743Y-111320826D01*
X150991774Y-111337670D01*
X150962656Y-111349981D01*
X150948231Y-111354514D01*
X150945472Y-111341025D01*
X150943282Y-111304653D01*
X150941942Y-111251542D01*
X150941657Y-111209372D01*
X150940434Y-111148447D01*
X150937136Y-111100115D01*
X150932321Y-111070518D01*
X150928496Y-111064229D01*
X150902783Y-111070652D01*
X150862418Y-111087125D01*
X150815679Y-111109458D01*
X150770845Y-111133457D01*
X150736193Y-111154930D01*
X150720002Y-111169685D01*
X150719938Y-111169845D01*
X150721330Y-111197152D01*
X150733818Y-111223219D01*
X150755743Y-111244392D01*
X150787743Y-111251474D01*
X150815092Y-111250649D01*
X150853826Y-111250042D01*
X150874158Y-111259116D01*
X150886369Y-111283092D01*
X150887909Y-111287613D01*
X150893203Y-111321806D01*
X150879047Y-111342568D01*
X150842148Y-111352462D01*
X150802289Y-111354292D01*
X150730562Y-111340727D01*
X150693432Y-111321355D01*
X150647576Y-111275845D01*
X150623256Y-111219983D01*
X150621073Y-111160957D01*
X150641629Y-111105953D01*
X150672549Y-111071486D01*
X150703420Y-111052189D01*
X150751942Y-111027759D01*
X150808485Y-111002985D01*
X150817910Y-110999199D01*
X150880019Y-110971791D01*
X150915822Y-110947634D01*
X150927337Y-110923619D01*
X150916580Y-110896635D01*
X150898114Y-110875543D01*
X150854469Y-110849572D01*
X150806446Y-110847624D01*
X150762406Y-110867637D01*
X150730709Y-110907551D01*
X150726549Y-110917848D01*
X150702327Y-110955724D01*
X150666965Y-110983842D01*
X150622343Y-111006917D01*
X150622343Y-110941485D01*
X150624969Y-110901506D01*
X150636230Y-110869997D01*
X150661199Y-110836378D01*
X150685169Y-110810484D01*
X150722441Y-110773817D01*
X150751401Y-110754121D01*
X150782505Y-110746220D01*
X150817713Y-110744914D01*
X150894876Y-110756335D01*
G37*
X150894876Y-110756335D02*
X150936667Y-110775344D01*
X150969469Y-110798378D01*
X150993503Y-110824133D01*
X151010097Y-110857358D01*
X151020577Y-110902800D01*
X151026271Y-110965207D01*
X151028507Y-111049327D01*
X151028743Y-111104721D01*
X151028743Y-111320826D01*
X150991774Y-111337670D01*
X150962656Y-111349981D01*
X150948231Y-111354514D01*
X150945472Y-111341025D01*
X150943282Y-111304653D01*
X150941942Y-111251542D01*
X150941657Y-111209372D01*
X150940434Y-111148447D01*
X150937136Y-111100115D01*
X150932321Y-111070518D01*
X150928496Y-111064229D01*
X150902783Y-111070652D01*
X150862418Y-111087125D01*
X150815679Y-111109458D01*
X150770845Y-111133457D01*
X150736193Y-111154930D01*
X150720002Y-111169685D01*
X150719938Y-111169845D01*
X150721330Y-111197152D01*
X150733818Y-111223219D01*
X150755743Y-111244392D01*
X150787743Y-111251474D01*
X150815092Y-111250649D01*
X150853826Y-111250042D01*
X150874158Y-111259116D01*
X150886369Y-111283092D01*
X150887909Y-111287613D01*
X150893203Y-111321806D01*
X150879047Y-111342568D01*
X150842148Y-111352462D01*
X150802289Y-111354292D01*
X150730562Y-111340727D01*
X150693432Y-111321355D01*
X150647576Y-111275845D01*
X150623256Y-111219983D01*
X150621073Y-111160957D01*
X150641629Y-111105953D01*
X150672549Y-111071486D01*
X150703420Y-111052189D01*
X150751942Y-111027759D01*
X150808485Y-111002985D01*
X150817910Y-110999199D01*
X150880019Y-110971791D01*
X150915822Y-110947634D01*
X150927337Y-110923619D01*
X150916580Y-110896635D01*
X150898114Y-110875543D01*
X150854469Y-110849572D01*
X150806446Y-110847624D01*
X150762406Y-110867637D01*
X150730709Y-110907551D01*
X150726549Y-110917848D01*
X150702327Y-110955724D01*
X150666965Y-110983842D01*
X150622343Y-111006917D01*
X150622343Y-110941485D01*
X150624969Y-110901506D01*
X150636230Y-110869997D01*
X150661199Y-110836378D01*
X150685169Y-110810484D01*
X150722441Y-110773817D01*
X150751401Y-110754121D01*
X150782505Y-110746220D01*
X150817713Y-110744914D01*
X150894876Y-110756335D01*
G36*
X151402600Y-110758752D02*
G01*
X151419948Y-110766334D01*
X151461356Y-110799128D01*
X151496765Y-110846547D01*
X151518664Y-110897151D01*
X151522229Y-110922098D01*
X151510279Y-110956927D01*
X151484067Y-110975357D01*
X151455964Y-110986516D01*
X151443095Y-110988572D01*
X151436829Y-110973649D01*
X151424456Y-110941175D01*
X151419028Y-110926502D01*
X151388590Y-110875744D01*
X151344520Y-110850427D01*
X151288010Y-110851206D01*
X151283825Y-110852203D01*
X151253655Y-110866507D01*
X151231476Y-110894393D01*
X151216327Y-110939287D01*
X151207250Y-111004615D01*
X151203286Y-111093804D01*
X151202914Y-111141261D01*
X151202730Y-111216071D01*
X151201522Y-111267069D01*
X151198309Y-111299471D01*
X151192109Y-111318495D01*
X151181940Y-111329356D01*
X151166819Y-111337272D01*
X151165946Y-111337670D01*
X151136828Y-111349981D01*
X151122403Y-111354514D01*
X151120186Y-111340809D01*
X151118289Y-111302925D01*
X151116847Y-111245715D01*
X151115998Y-111174027D01*
X151115829Y-111121565D01*
X151116692Y-111020047D01*
X151120070Y-110943032D01*
X151127142Y-110886023D01*
X151139088Y-110844526D01*
X151157090Y-110814043D01*
X151182327Y-110790080D01*
X151207247Y-110773355D01*
X151267171Y-110751097D01*
X151336911Y-110746076D01*
X151402600Y-110758752D01*
G37*
X151402600Y-110758752D02*
X151419948Y-110766334D01*
X151461356Y-110799128D01*
X151496765Y-110846547D01*
X151518664Y-110897151D01*
X151522229Y-110922098D01*
X151510279Y-110956927D01*
X151484067Y-110975357D01*
X151455964Y-110986516D01*
X151443095Y-110988572D01*
X151436829Y-110973649D01*
X151424456Y-110941175D01*
X151419028Y-110926502D01*
X151388590Y-110875744D01*
X151344520Y-110850427D01*
X151288010Y-110851206D01*
X151283825Y-110852203D01*
X151253655Y-110866507D01*
X151231476Y-110894393D01*
X151216327Y-110939287D01*
X151207250Y-111004615D01*
X151203286Y-111093804D01*
X151202914Y-111141261D01*
X151202730Y-111216071D01*
X151201522Y-111267069D01*
X151198309Y-111299471D01*
X151192109Y-111318495D01*
X151181940Y-111329356D01*
X151166819Y-111337272D01*
X151165946Y-111337670D01*
X151136828Y-111349981D01*
X151122403Y-111354514D01*
X151120186Y-111340809D01*
X151118289Y-111302925D01*
X151116847Y-111245715D01*
X151115998Y-111174027D01*
X151115829Y-111121565D01*
X151116692Y-111020047D01*
X151120070Y-110943032D01*
X151127142Y-110886023D01*
X151139088Y-110844526D01*
X151157090Y-110814043D01*
X151182327Y-110790080D01*
X151207247Y-110773355D01*
X151267171Y-110751097D01*
X151336911Y-110746076D01*
X151402600Y-110758752D01*
G36*
X151903595Y-110766966D02*
G01*
X151961021Y-110804497D01*
X151988719Y-110838096D01*
X152010662Y-110899064D01*
X152012405Y-110947308D01*
X152008457Y-111011816D01*
X151859686Y-111076934D01*
X151787349Y-111110202D01*
X151740084Y-111136964D01*
X151715507Y-111160144D01*
X151711237Y-111182667D01*
X151724889Y-111207455D01*
X151739943Y-111223886D01*
X151783746Y-111250235D01*
X151831389Y-111252081D01*
X151875145Y-111231546D01*
X151907289Y-111190752D01*
X151913038Y-111176347D01*
X151940576Y-111131356D01*
X151972258Y-111112182D01*
X152015714Y-111095779D01*
X152015714Y-111157966D01*
X152011872Y-111200283D01*
X151996823Y-111235969D01*
X151965280Y-111276943D01*
X151960592Y-111282267D01*
X151925506Y-111318720D01*
X151895347Y-111338283D01*
X151857615Y-111347283D01*
X151826335Y-111350230D01*
X151770385Y-111350965D01*
X151730555Y-111341660D01*
X151705708Y-111327846D01*
X151666656Y-111297467D01*
X151639625Y-111264613D01*
X151622517Y-111223294D01*
X151613238Y-111167521D01*
X151609693Y-111091305D01*
X151609410Y-111052622D01*
X151610372Y-111006247D01*
X151698007Y-111006247D01*
X151699023Y-111031126D01*
X151701556Y-111035200D01*
X151718274Y-111029665D01*
X151754249Y-111015017D01*
X151802331Y-110994190D01*
X151812386Y-110989714D01*
X151873152Y-110958814D01*
X151906632Y-110931657D01*
X151913990Y-110906220D01*
X151896391Y-110880481D01*
X151881856Y-110869109D01*
X151829410Y-110846364D01*
X151780322Y-110850122D01*
X151739227Y-110877884D01*
X151710758Y-110927152D01*
X151701631Y-110966257D01*
X151698007Y-111006247D01*
X151610372Y-111006247D01*
X151611285Y-110962249D01*
X151618196Y-110895384D01*
X151631884Y-110846695D01*
X151654096Y-110810849D01*
X151686574Y-110782513D01*
X151700733Y-110773355D01*
X151765053Y-110749507D01*
X151835473Y-110748006D01*
X151903595Y-110766966D01*
G37*
X151903595Y-110766966D02*
X151961021Y-110804497D01*
X151988719Y-110838096D01*
X152010662Y-110899064D01*
X152012405Y-110947308D01*
X152008457Y-111011816D01*
X151859686Y-111076934D01*
X151787349Y-111110202D01*
X151740084Y-111136964D01*
X151715507Y-111160144D01*
X151711237Y-111182667D01*
X151724889Y-111207455D01*
X151739943Y-111223886D01*
X151783746Y-111250235D01*
X151831389Y-111252081D01*
X151875145Y-111231546D01*
X151907289Y-111190752D01*
X151913038Y-111176347D01*
X151940576Y-111131356D01*
X151972258Y-111112182D01*
X152015714Y-111095779D01*
X152015714Y-111157966D01*
X152011872Y-111200283D01*
X151996823Y-111235969D01*
X151965280Y-111276943D01*
X151960592Y-111282267D01*
X151925506Y-111318720D01*
X151895347Y-111338283D01*
X151857615Y-111347283D01*
X151826335Y-111350230D01*
X151770385Y-111350965D01*
X151730555Y-111341660D01*
X151705708Y-111327846D01*
X151666656Y-111297467D01*
X151639625Y-111264613D01*
X151622517Y-111223294D01*
X151613238Y-111167521D01*
X151609693Y-111091305D01*
X151609410Y-111052622D01*
X151610372Y-111006247D01*
X151698007Y-111006247D01*
X151699023Y-111031126D01*
X151701556Y-111035200D01*
X151718274Y-111029665D01*
X151754249Y-111015017D01*
X151802331Y-110994190D01*
X151812386Y-110989714D01*
X151873152Y-110958814D01*
X151906632Y-110931657D01*
X151913990Y-110906220D01*
X151896391Y-110880481D01*
X151881856Y-110869109D01*
X151829410Y-110846364D01*
X151780322Y-110850122D01*
X151739227Y-110877884D01*
X151710758Y-110927152D01*
X151701631Y-110966257D01*
X151698007Y-111006247D01*
X151610372Y-111006247D01*
X151611285Y-110962249D01*
X151618196Y-110895384D01*
X151631884Y-110846695D01*
X151654096Y-110810849D01*
X151686574Y-110782513D01*
X151700733Y-110773355D01*
X151765053Y-110749507D01*
X151835473Y-110748006D01*
X151903595Y-110766966D01*
G36*
X148853910Y-106042348D02*
G01*
X148932454Y-106042778D01*
X148989298Y-106043942D01*
X149028105Y-106046207D01*
X149052538Y-106049940D01*
X149066262Y-106055506D01*
X149072940Y-106063273D01*
X149076236Y-106073605D01*
X149076556Y-106074943D01*
X149081562Y-106099079D01*
X149090829Y-106146701D01*
X149103392Y-106212741D01*
X149118287Y-106292128D01*
X149134551Y-106379796D01*
X149135119Y-106382875D01*
X149151410Y-106468789D01*
X149166652Y-106544696D01*
X149179861Y-106606045D01*
X149190054Y-106648282D01*
X149196248Y-106666855D01*
X149196543Y-106667184D01*
X149214788Y-106676253D01*
X149252405Y-106691367D01*
X149301271Y-106709262D01*
X149301543Y-106709358D01*
X149363093Y-106732493D01*
X149435657Y-106761965D01*
X149504057Y-106791597D01*
X149507294Y-106793062D01*
X149618702Y-106843626D01*
X149865399Y-106675160D01*
X149941077Y-106623803D01*
X150009631Y-106577889D01*
X150067088Y-106540030D01*
X150109476Y-106512837D01*
X150132825Y-106498921D01*
X150135042Y-106497889D01*
X150152010Y-106502484D01*
X150183701Y-106524655D01*
X150231352Y-106565447D01*
X150296198Y-106625905D01*
X150362397Y-106690227D01*
X150426214Y-106753612D01*
X150483329Y-106811451D01*
X150530305Y-106860175D01*
X150563703Y-106896210D01*
X150580085Y-106915984D01*
X150580694Y-106917002D01*
X150582505Y-106930572D01*
X150575683Y-106952733D01*
X150558540Y-106986478D01*
X150529393Y-107034800D01*
X150486555Y-107100692D01*
X150429448Y-107185517D01*
X150378766Y-107260177D01*
X150333461Y-107327140D01*
X150296150Y-107382516D01*
X150269452Y-107422420D01*
X150255985Y-107442962D01*
X150255137Y-107444356D01*
X150256781Y-107464038D01*
X150269245Y-107502293D01*
X150290048Y-107551889D01*
X150297462Y-107567728D01*
X150329814Y-107638290D01*
X150364328Y-107718353D01*
X150392365Y-107787629D01*
X150412568Y-107839045D01*
X150428615Y-107878119D01*
X150437888Y-107898541D01*
X150439041Y-107900114D01*
X150456096Y-107902721D01*
X150496298Y-107909863D01*
X150554302Y-107920523D01*
X150624763Y-107933685D01*
X150702335Y-107948333D01*
X150781672Y-107963449D01*
X150857431Y-107978018D01*
X150924264Y-107991022D01*
X150976828Y-108001445D01*
X151009776Y-108008270D01*
X151017857Y-108010199D01*
X151026205Y-108014962D01*
X151032506Y-108025718D01*
X151037045Y-108046098D01*
X151040104Y-108079734D01*
X151041967Y-108130255D01*
X151042918Y-108201292D01*
X151043240Y-108296476D01*
X151043257Y-108335492D01*
X151043257Y-108652799D01*
X150967057Y-108667839D01*
X150924663Y-108675995D01*
X150861400Y-108687899D01*
X150784962Y-108702116D01*
X150703043Y-108717210D01*
X150680400Y-108721355D01*
X150604806Y-108736053D01*
X150538953Y-108750505D01*
X150488366Y-108763375D01*
X150458574Y-108773322D01*
X150453612Y-108776287D01*
X150441426Y-108797283D01*
X150423953Y-108837967D01*
X150404577Y-108890322D01*
X150400734Y-108901600D01*
X150375339Y-108971523D01*
X150343817Y-109050418D01*
X150312969Y-109121266D01*
X150312817Y-109121595D01*
X150261447Y-109232733D01*
X150430399Y-109481253D01*
X150599352Y-109729772D01*
X150382429Y-109947058D01*
X150316819Y-110011726D01*
X150256979Y-110068733D01*
X150206267Y-110115033D01*
X150168046Y-110147584D01*
X150145675Y-110163343D01*
X150142466Y-110164343D01*
X150123626Y-110156469D01*
X150085180Y-110134578D01*
X150031330Y-110101267D01*
X149966276Y-110059131D01*
X149895940Y-110011943D01*
X149824555Y-109963810D01*
X149760908Y-109921928D01*
X149709041Y-109888871D01*
X149672995Y-109867218D01*
X149656867Y-109859543D01*
X149637189Y-109866037D01*
X149599875Y-109883150D01*
X149552621Y-109907326D01*
X149547612Y-109910013D01*
X149483977Y-109941927D01*
X149440341Y-109957579D01*
X149413202Y-109957745D01*
X149399057Y-109943204D01*
X149398975Y-109943000D01*
X149391905Y-109925779D01*
X149375042Y-109884899D01*
X149349695Y-109823525D01*
X149317171Y-109744819D01*
X149278778Y-109651947D01*
X149235822Y-109548072D01*
X149194222Y-109447502D01*
X149148504Y-109336516D01*
X149106526Y-109233703D01*
X149069548Y-109142215D01*
X149038827Y-109065201D01*
X149015622Y-109005815D01*
X149001190Y-108967209D01*
X148996743Y-108952800D01*
X149007896Y-108936272D01*
X149037069Y-108909930D01*
X149075971Y-108880887D01*
X149186757Y-108789039D01*
X149273351Y-108683759D01*
X149334716Y-108567266D01*
X149369815Y-108441776D01*
X149377608Y-108309507D01*
X149371943Y-108248457D01*
X149341078Y-108121795D01*
X149287920Y-108009941D01*
X149215767Y-107914001D01*
X149127917Y-107835076D01*
X149027665Y-107774270D01*
X148918310Y-107732687D01*
X148803147Y-107711428D01*
X148685475Y-107711599D01*
X148568590Y-107734301D01*
X148455789Y-107780638D01*
X148350369Y-107851713D01*
X148306368Y-107891911D01*
X148221979Y-107995129D01*
X148163222Y-108107925D01*
X148129704Y-108227010D01*
X148121035Y-108349095D01*
X148136823Y-108470893D01*
X148176678Y-108589116D01*
X148240207Y-108700475D01*
X148327021Y-108801684D01*
X148424029Y-108880887D01*
X148464437Y-108911162D01*
X148492982Y-108937219D01*
X148503257Y-108952825D01*
X148497877Y-108969843D01*
X148482575Y-109010500D01*
X148458612Y-109071642D01*
X148427244Y-109150119D01*
X148389732Y-109242780D01*
X148347333Y-109346472D01*
X148305663Y-109447526D01*
X148259690Y-109558607D01*
X148217107Y-109661541D01*
X148179221Y-109753165D01*
X148147340Y-109830316D01*
X148122771Y-109889831D01*
X148106820Y-109928544D01*
X148100910Y-109943000D01*
X148086948Y-109957685D01*
X148059940Y-109957642D01*
X148016413Y-109942099D01*
X147952890Y-109910284D01*
X147952388Y-109910013D01*
X147904560Y-109885323D01*
X147865897Y-109867338D01*
X147844095Y-109859614D01*
X147843133Y-109859543D01*
X147826721Y-109867378D01*
X147790487Y-109889165D01*
X147738474Y-109922328D01*
X147674725Y-109964291D01*
X147604060Y-110011943D01*
X147532116Y-110060191D01*
X147467274Y-110102151D01*
X147413735Y-110135227D01*
X147375697Y-110156821D01*
X147357533Y-110164343D01*
X147340808Y-110154457D01*
X147307180Y-110126826D01*
X147260010Y-110084495D01*
X147202658Y-110030505D01*
X147138484Y-109967899D01*
X147117497Y-109946983D01*
X146900499Y-109729623D01*
X147065668Y-109487220D01*
X147115864Y-109412781D01*
X147159919Y-109345972D01*
X147195362Y-109290665D01*
X147219719Y-109250729D01*
X147230522Y-109230036D01*
X147230838Y-109228563D01*
X147225143Y-109209058D01*
X147209826Y-109169822D01*
X147187537Y-109117430D01*
X147171893Y-109082355D01*
X147142641Y-109015201D01*
X147115094Y-108947358D01*
X147093737Y-108890034D01*
X147087935Y-108872572D01*
X147071452Y-108825938D01*
X147055340Y-108789905D01*
X147046490Y-108776287D01*
X147026960Y-108767952D01*
X146984334Y-108756137D01*
X146924145Y-108742181D01*
X146851922Y-108727422D01*
X146819600Y-108721355D01*
X146737522Y-108706273D01*
X146658795Y-108691669D01*
X146591109Y-108678980D01*
X146542160Y-108669642D01*
X146532943Y-108667839D01*
X146456743Y-108652799D01*
X146456743Y-108335492D01*
X146456914Y-108231154D01*
X146457616Y-108152213D01*
X146459134Y-108095038D01*
X146461749Y-108055999D01*
X146465746Y-108031465D01*
X146471409Y-108017805D01*
X146479020Y-108011389D01*
X146482143Y-108010199D01*
X146500978Y-108005980D01*
X146542588Y-107997562D01*
X146601630Y-107985961D01*
X146672757Y-107972195D01*
X146750625Y-107957280D01*
X146829887Y-107942232D01*
X146905198Y-107928069D01*
X146971213Y-107915806D01*
X147022587Y-107906461D01*
X147053975Y-107901050D01*
X147060959Y-107900114D01*
X147067285Y-107887596D01*
X147081290Y-107854246D01*
X147100355Y-107806377D01*
X147107634Y-107787629D01*
X147136996Y-107715195D01*
X147171571Y-107635170D01*
X147202537Y-107567728D01*
X147225323Y-107516159D01*
X147240482Y-107473785D01*
X147245542Y-107447834D01*
X147244736Y-107444356D01*
X147234041Y-107427936D01*
X147209620Y-107391417D01*
X147174095Y-107338687D01*
X147130087Y-107273635D01*
X147080217Y-107200151D01*
X147070356Y-107185645D01*
X147012492Y-107099704D01*
X146969956Y-107034261D01*
X146941054Y-106986304D01*
X146924090Y-106952820D01*
X146917367Y-106930795D01*
X146919190Y-106917217D01*
X146919236Y-106917131D01*
X146933586Y-106899297D01*
X146965323Y-106864817D01*
X147011010Y-106817268D01*
X147067204Y-106760222D01*
X147130468Y-106697255D01*
X147137602Y-106690227D01*
X147217330Y-106613020D01*
X147278857Y-106556330D01*
X147323421Y-106519110D01*
X147352257Y-106500315D01*
X147364958Y-106497889D01*
X147383494Y-106508471D01*
X147421961Y-106532916D01*
X147476386Y-106568612D01*
X147542798Y-106612947D01*
X147617225Y-106663311D01*
X147634601Y-106675160D01*
X147881297Y-106843626D01*
X147992706Y-106793062D01*
X148060457Y-106763595D01*
X148133183Y-106733959D01*
X148195703Y-106710330D01*
X148198457Y-106709358D01*
X148247360Y-106691457D01*
X148285057Y-106676320D01*
X148303425Y-106667210D01*
X148303456Y-106667184D01*
X148309285Y-106650717D01*
X148319192Y-106610219D01*
X148332195Y-106550242D01*
X148347309Y-106475340D01*
X148363552Y-106390064D01*
X148364881Y-106382875D01*
X148381175Y-106295014D01*
X148396133Y-106215260D01*
X148408791Y-106148681D01*
X148418186Y-106100347D01*
X148423354Y-106075325D01*
X148423444Y-106074943D01*
X148426589Y-106064299D01*
X148432704Y-106056262D01*
X148445453Y-106050467D01*
X148468500Y-106046547D01*
X148505509Y-106044135D01*
X148560144Y-106042865D01*
X148636067Y-106042371D01*
X148736944Y-106042286D01*
X148750000Y-106042286D01*
X148853910Y-106042348D01*
G37*
X148853910Y-106042348D02*
X148932454Y-106042778D01*
X148989298Y-106043942D01*
X149028105Y-106046207D01*
X149052538Y-106049940D01*
X149066262Y-106055506D01*
X149072940Y-106063273D01*
X149076236Y-106073605D01*
X149076556Y-106074943D01*
X149081562Y-106099079D01*
X149090829Y-106146701D01*
X149103392Y-106212741D01*
X149118287Y-106292128D01*
X149134551Y-106379796D01*
X149135119Y-106382875D01*
X149151410Y-106468789D01*
X149166652Y-106544696D01*
X149179861Y-106606045D01*
X149190054Y-106648282D01*
X149196248Y-106666855D01*
X149196543Y-106667184D01*
X149214788Y-106676253D01*
X149252405Y-106691367D01*
X149301271Y-106709262D01*
X149301543Y-106709358D01*
X149363093Y-106732493D01*
X149435657Y-106761965D01*
X149504057Y-106791597D01*
X149507294Y-106793062D01*
X149618702Y-106843626D01*
X149865399Y-106675160D01*
X149941077Y-106623803D01*
X150009631Y-106577889D01*
X150067088Y-106540030D01*
X150109476Y-106512837D01*
X150132825Y-106498921D01*
X150135042Y-106497889D01*
X150152010Y-106502484D01*
X150183701Y-106524655D01*
X150231352Y-106565447D01*
X150296198Y-106625905D01*
X150362397Y-106690227D01*
X150426214Y-106753612D01*
X150483329Y-106811451D01*
X150530305Y-106860175D01*
X150563703Y-106896210D01*
X150580085Y-106915984D01*
X150580694Y-106917002D01*
X150582505Y-106930572D01*
X150575683Y-106952733D01*
X150558540Y-106986478D01*
X150529393Y-107034800D01*
X150486555Y-107100692D01*
X150429448Y-107185517D01*
X150378766Y-107260177D01*
X150333461Y-107327140D01*
X150296150Y-107382516D01*
X150269452Y-107422420D01*
X150255985Y-107442962D01*
X150255137Y-107444356D01*
X150256781Y-107464038D01*
X150269245Y-107502293D01*
X150290048Y-107551889D01*
X150297462Y-107567728D01*
X150329814Y-107638290D01*
X150364328Y-107718353D01*
X150392365Y-107787629D01*
X150412568Y-107839045D01*
X150428615Y-107878119D01*
X150437888Y-107898541D01*
X150439041Y-107900114D01*
X150456096Y-107902721D01*
X150496298Y-107909863D01*
X150554302Y-107920523D01*
X150624763Y-107933685D01*
X150702335Y-107948333D01*
X150781672Y-107963449D01*
X150857431Y-107978018D01*
X150924264Y-107991022D01*
X150976828Y-108001445D01*
X151009776Y-108008270D01*
X151017857Y-108010199D01*
X151026205Y-108014962D01*
X151032506Y-108025718D01*
X151037045Y-108046098D01*
X151040104Y-108079734D01*
X151041967Y-108130255D01*
X151042918Y-108201292D01*
X151043240Y-108296476D01*
X151043257Y-108335492D01*
X151043257Y-108652799D01*
X150967057Y-108667839D01*
X150924663Y-108675995D01*
X150861400Y-108687899D01*
X150784962Y-108702116D01*
X150703043Y-108717210D01*
X150680400Y-108721355D01*
X150604806Y-108736053D01*
X150538953Y-108750505D01*
X150488366Y-108763375D01*
X150458574Y-108773322D01*
X150453612Y-108776287D01*
X150441426Y-108797283D01*
X150423953Y-108837967D01*
X150404577Y-108890322D01*
X150400734Y-108901600D01*
X150375339Y-108971523D01*
X150343817Y-109050418D01*
X150312969Y-109121266D01*
X150312817Y-109121595D01*
X150261447Y-109232733D01*
X150430399Y-109481253D01*
X150599352Y-109729772D01*
X150382429Y-109947058D01*
X150316819Y-110011726D01*
X150256979Y-110068733D01*
X150206267Y-110115033D01*
X150168046Y-110147584D01*
X150145675Y-110163343D01*
X150142466Y-110164343D01*
X150123626Y-110156469D01*
X150085180Y-110134578D01*
X150031330Y-110101267D01*
X149966276Y-110059131D01*
X149895940Y-110011943D01*
X149824555Y-109963810D01*
X149760908Y-109921928D01*
X149709041Y-109888871D01*
X149672995Y-109867218D01*
X149656867Y-109859543D01*
X149637189Y-109866037D01*
X149599875Y-109883150D01*
X149552621Y-109907326D01*
X149547612Y-109910013D01*
X149483977Y-109941927D01*
X149440341Y-109957579D01*
X149413202Y-109957745D01*
X149399057Y-109943204D01*
X149398975Y-109943000D01*
X149391905Y-109925779D01*
X149375042Y-109884899D01*
X149349695Y-109823525D01*
X149317171Y-109744819D01*
X149278778Y-109651947D01*
X149235822Y-109548072D01*
X149194222Y-109447502D01*
X149148504Y-109336516D01*
X149106526Y-109233703D01*
X149069548Y-109142215D01*
X149038827Y-109065201D01*
X149015622Y-109005815D01*
X149001190Y-108967209D01*
X148996743Y-108952800D01*
X149007896Y-108936272D01*
X149037069Y-108909930D01*
X149075971Y-108880887D01*
X149186757Y-108789039D01*
X149273351Y-108683759D01*
X149334716Y-108567266D01*
X149369815Y-108441776D01*
X149377608Y-108309507D01*
X149371943Y-108248457D01*
X149341078Y-108121795D01*
X149287920Y-108009941D01*
X149215767Y-107914001D01*
X149127917Y-107835076D01*
X149027665Y-107774270D01*
X148918310Y-107732687D01*
X148803147Y-107711428D01*
X148685475Y-107711599D01*
X148568590Y-107734301D01*
X148455789Y-107780638D01*
X148350369Y-107851713D01*
X148306368Y-107891911D01*
X148221979Y-107995129D01*
X148163222Y-108107925D01*
X148129704Y-108227010D01*
X148121035Y-108349095D01*
X148136823Y-108470893D01*
X148176678Y-108589116D01*
X148240207Y-108700475D01*
X148327021Y-108801684D01*
X148424029Y-108880887D01*
X148464437Y-108911162D01*
X148492982Y-108937219D01*
X148503257Y-108952825D01*
X148497877Y-108969843D01*
X148482575Y-109010500D01*
X148458612Y-109071642D01*
X148427244Y-109150119D01*
X148389732Y-109242780D01*
X148347333Y-109346472D01*
X148305663Y-109447526D01*
X148259690Y-109558607D01*
X148217107Y-109661541D01*
X148179221Y-109753165D01*
X148147340Y-109830316D01*
X148122771Y-109889831D01*
X148106820Y-109928544D01*
X148100910Y-109943000D01*
X148086948Y-109957685D01*
X148059940Y-109957642D01*
X148016413Y-109942099D01*
X147952890Y-109910284D01*
X147952388Y-109910013D01*
X147904560Y-109885323D01*
X147865897Y-109867338D01*
X147844095Y-109859614D01*
X147843133Y-109859543D01*
X147826721Y-109867378D01*
X147790487Y-109889165D01*
X147738474Y-109922328D01*
X147674725Y-109964291D01*
X147604060Y-110011943D01*
X147532116Y-110060191D01*
X147467274Y-110102151D01*
X147413735Y-110135227D01*
X147375697Y-110156821D01*
X147357533Y-110164343D01*
X147340808Y-110154457D01*
X147307180Y-110126826D01*
X147260010Y-110084495D01*
X147202658Y-110030505D01*
X147138484Y-109967899D01*
X147117497Y-109946983D01*
X146900499Y-109729623D01*
X147065668Y-109487220D01*
X147115864Y-109412781D01*
X147159919Y-109345972D01*
X147195362Y-109290665D01*
X147219719Y-109250729D01*
X147230522Y-109230036D01*
X147230838Y-109228563D01*
X147225143Y-109209058D01*
X147209826Y-109169822D01*
X147187537Y-109117430D01*
X147171893Y-109082355D01*
X147142641Y-109015201D01*
X147115094Y-108947358D01*
X147093737Y-108890034D01*
X147087935Y-108872572D01*
X147071452Y-108825938D01*
X147055340Y-108789905D01*
X147046490Y-108776287D01*
X147026960Y-108767952D01*
X146984334Y-108756137D01*
X146924145Y-108742181D01*
X146851922Y-108727422D01*
X146819600Y-108721355D01*
X146737522Y-108706273D01*
X146658795Y-108691669D01*
X146591109Y-108678980D01*
X146542160Y-108669642D01*
X146532943Y-108667839D01*
X146456743Y-108652799D01*
X146456743Y-108335492D01*
X146456914Y-108231154D01*
X146457616Y-108152213D01*
X146459134Y-108095038D01*
X146461749Y-108055999D01*
X146465746Y-108031465D01*
X146471409Y-108017805D01*
X146479020Y-108011389D01*
X146482143Y-108010199D01*
X146500978Y-108005980D01*
X146542588Y-107997562D01*
X146601630Y-107985961D01*
X146672757Y-107972195D01*
X146750625Y-107957280D01*
X146829887Y-107942232D01*
X146905198Y-107928069D01*
X146971213Y-107915806D01*
X147022587Y-107906461D01*
X147053975Y-107901050D01*
X147060959Y-107900114D01*
X147067285Y-107887596D01*
X147081290Y-107854246D01*
X147100355Y-107806377D01*
X147107634Y-107787629D01*
X147136996Y-107715195D01*
X147171571Y-107635170D01*
X147202537Y-107567728D01*
X147225323Y-107516159D01*
X147240482Y-107473785D01*
X147245542Y-107447834D01*
X147244736Y-107444356D01*
X147234041Y-107427936D01*
X147209620Y-107391417D01*
X147174095Y-107338687D01*
X147130087Y-107273635D01*
X147080217Y-107200151D01*
X147070356Y-107185645D01*
X147012492Y-107099704D01*
X146969956Y-107034261D01*
X146941054Y-106986304D01*
X146924090Y-106952820D01*
X146917367Y-106930795D01*
X146919190Y-106917217D01*
X146919236Y-106917131D01*
X146933586Y-106899297D01*
X146965323Y-106864817D01*
X147011010Y-106817268D01*
X147067204Y-106760222D01*
X147130468Y-106697255D01*
X147137602Y-106690227D01*
X147217330Y-106613020D01*
X147278857Y-106556330D01*
X147323421Y-106519110D01*
X147352257Y-106500315D01*
X147364958Y-106497889D01*
X147383494Y-106508471D01*
X147421961Y-106532916D01*
X147476386Y-106568612D01*
X147542798Y-106612947D01*
X147617225Y-106663311D01*
X147634601Y-106675160D01*
X147881297Y-106843626D01*
X147992706Y-106793062D01*
X148060457Y-106763595D01*
X148133183Y-106733959D01*
X148195703Y-106710330D01*
X148198457Y-106709358D01*
X148247360Y-106691457D01*
X148285057Y-106676320D01*
X148303425Y-106667210D01*
X148303456Y-106667184D01*
X148309285Y-106650717D01*
X148319192Y-106610219D01*
X148332195Y-106550242D01*
X148347309Y-106475340D01*
X148363552Y-106390064D01*
X148364881Y-106382875D01*
X148381175Y-106295014D01*
X148396133Y-106215260D01*
X148408791Y-106148681D01*
X148418186Y-106100347D01*
X148423354Y-106075325D01*
X148423444Y-106074943D01*
X148426589Y-106064299D01*
X148432704Y-106056262D01*
X148445453Y-106050467D01*
X148468500Y-106046547D01*
X148505509Y-106044135D01*
X148560144Y-106042865D01*
X148636067Y-106042371D01*
X148736944Y-106042286D01*
X148750000Y-106042286D01*
X148853910Y-106042348D01*
D13*
%TO.C,J2*%
X127330000Y-107130000D02*
X126000000Y-107130000D01*
X127330000Y-105800000D02*
X127330000Y-107130000D01*
X124730000Y-107130000D02*
X122130000Y-107130000D01*
X124730000Y-104530000D02*
X124730000Y-107130000D01*
X127330000Y-104530000D02*
X124730000Y-104530000D01*
X122130000Y-107130000D02*
X122130000Y-96850000D01*
X127330000Y-104530000D02*
X127330000Y-96850000D01*
X127330000Y-96850000D02*
X122130000Y-96850000D01*
%TO.C,U1*%
X130977500Y-100390000D02*
X130252500Y-100390000D01*
X134472500Y-104610000D02*
X134472500Y-103885000D01*
X133747500Y-104610000D02*
X134472500Y-104610000D01*
X130252500Y-104610000D02*
X130252500Y-103885000D01*
X130977500Y-104610000D02*
X130252500Y-104610000D01*
X134472500Y-100390000D02*
X134472500Y-101115000D01*
X133747500Y-100390000D02*
X134472500Y-100390000D01*
D14*
%TO.C,U2*%
X141325000Y-100250000D02*
G75*
G03*
X141325000Y-100250000I-125000J0D01*
G01*
D13*
%TO.C,C11*%
X146610000Y-102950279D02*
X146610000Y-102624721D01*
X145590000Y-102950279D02*
X145590000Y-102624721D01*
%TO.C,X1*%
X130850000Y-108650000D02*
X134850000Y-108650000D01*
X130850000Y-105350000D02*
X130850000Y-108650000D01*
%TO.C,J1*%
X155790000Y-101160000D02*
X155790000Y-100050000D01*
X155790000Y-103950000D02*
X155790000Y-102840000D01*
X159500000Y-101160000D02*
X159500000Y-100050000D01*
X159500000Y-103950000D02*
X159500000Y-102840000D01*
X155240000Y-102000000D02*
X154740000Y-101750000D01*
X154740000Y-101750000D02*
X154740000Y-102250000D01*
X154740000Y-102250000D02*
X155240000Y-102000000D01*
%TO.C,R5*%
D10*
X144561904Y-106883333D02*
X144180952Y-107150000D01*
X144561904Y-107340476D02*
X143761904Y-107340476D01*
X143761904Y-107035714D01*
X143800000Y-106959523D01*
X143838095Y-106921428D01*
X143914285Y-106883333D01*
X144028571Y-106883333D01*
X144104761Y-106921428D01*
X144142857Y-106959523D01*
X144180952Y-107035714D01*
X144180952Y-107340476D01*
X143761904Y-106159523D02*
X143761904Y-106540476D01*
X144142857Y-106578571D01*
X144104761Y-106540476D01*
X144066666Y-106464285D01*
X144066666Y-106273809D01*
X144104761Y-106197619D01*
X144142857Y-106159523D01*
X144219047Y-106121428D01*
X144409523Y-106121428D01*
X144485714Y-106159523D01*
X144523809Y-106197619D01*
X144561904Y-106273809D01*
X144561904Y-106464285D01*
X144523809Y-106540476D01*
X144485714Y-106578571D01*
%TO.C,J2*%
D15*
X120616666Y-106452380D02*
X120616666Y-107166666D01*
X120569047Y-107309523D01*
X120473809Y-107404761D01*
X120330952Y-107452380D01*
X120235714Y-107452380D01*
X121045238Y-106547619D02*
X121092857Y-106500000D01*
X121188095Y-106452380D01*
X121426190Y-106452380D01*
X121521428Y-106500000D01*
X121569047Y-106547619D01*
X121616666Y-106642857D01*
X121616666Y-106738095D01*
X121569047Y-106880952D01*
X120997619Y-107452380D01*
X121616666Y-107452380D01*
%TO.C,U1*%
X128038095Y-101952380D02*
X128038095Y-102761904D01*
X128085714Y-102857142D01*
X128133333Y-102904761D01*
X128228571Y-102952380D01*
X128419047Y-102952380D01*
X128514285Y-102904761D01*
X128561904Y-102857142D01*
X128609523Y-102761904D01*
X128609523Y-101952380D01*
X129609523Y-102952380D02*
X129038095Y-102952380D01*
X129323809Y-102952380D02*
X129323809Y-101952380D01*
X129228571Y-102095238D01*
X129133333Y-102190476D01*
X129038095Y-102238095D01*
%TO.C,U2*%
D10*
X144388095Y-99502380D02*
X144388095Y-100311904D01*
X144435714Y-100407142D01*
X144483333Y-100454761D01*
X144578571Y-100502380D01*
X144769047Y-100502380D01*
X144864285Y-100454761D01*
X144911904Y-100407142D01*
X144959523Y-100311904D01*
X144959523Y-99502380D01*
X145388095Y-99597619D02*
X145435714Y-99550000D01*
X145530952Y-99502380D01*
X145769047Y-99502380D01*
X145864285Y-99550000D01*
X145911904Y-99597619D01*
X145959523Y-99692857D01*
X145959523Y-99788095D01*
X145911904Y-99930952D01*
X145340476Y-100502380D01*
X145959523Y-100502380D01*
%TO.C,C11*%
D15*
X146457142Y-106392857D02*
X146504761Y-106440476D01*
X146552380Y-106583333D01*
X146552380Y-106678571D01*
X146504761Y-106821428D01*
X146409523Y-106916666D01*
X146314285Y-106964285D01*
X146123809Y-107011904D01*
X145980952Y-107011904D01*
X145790476Y-106964285D01*
X145695238Y-106916666D01*
X145600000Y-106821428D01*
X145552380Y-106678571D01*
X145552380Y-106583333D01*
X145600000Y-106440476D01*
X145647619Y-106392857D01*
X146552380Y-105440476D02*
X146552380Y-106011904D01*
X146552380Y-105726190D02*
X145552380Y-105726190D01*
X145695238Y-105821428D01*
X145790476Y-105916666D01*
X145838095Y-106011904D01*
X146552380Y-104488095D02*
X146552380Y-105059523D01*
X146552380Y-104773809D02*
X145552380Y-104773809D01*
X145695238Y-104869047D01*
X145790476Y-104964285D01*
X145838095Y-105059523D01*
%TO.C,X1*%
X128990476Y-106002380D02*
X129657142Y-107002380D01*
X129657142Y-106002380D02*
X128990476Y-107002380D01*
X130561904Y-107002380D02*
X129990476Y-107002380D01*
X130276190Y-107002380D02*
X130276190Y-106002380D01*
X130180952Y-106145238D01*
X130085714Y-106240476D01*
X129990476Y-106288095D01*
%TO.C,R4*%
D10*
X142361904Y-106883333D02*
X141980952Y-107150000D01*
X142361904Y-107340476D02*
X141561904Y-107340476D01*
X141561904Y-107035714D01*
X141600000Y-106959523D01*
X141638095Y-106921428D01*
X141714285Y-106883333D01*
X141828571Y-106883333D01*
X141904761Y-106921428D01*
X141942857Y-106959523D01*
X141980952Y-107035714D01*
X141980952Y-107340476D01*
X141828571Y-106197619D02*
X142361904Y-106197619D01*
X141523809Y-106388095D02*
X142095238Y-106578571D01*
X142095238Y-106083333D01*
%TO.C,R3*%
X143511904Y-106883333D02*
X143130952Y-107150000D01*
X143511904Y-107340476D02*
X142711904Y-107340476D01*
X142711904Y-107035714D01*
X142750000Y-106959523D01*
X142788095Y-106921428D01*
X142864285Y-106883333D01*
X142978571Y-106883333D01*
X143054761Y-106921428D01*
X143092857Y-106959523D01*
X143130952Y-107035714D01*
X143130952Y-107340476D01*
X142711904Y-106616666D02*
X142711904Y-106121428D01*
X143016666Y-106388095D01*
X143016666Y-106273809D01*
X143054761Y-106197619D01*
X143092857Y-106159523D01*
X143169047Y-106121428D01*
X143359523Y-106121428D01*
X143435714Y-106159523D01*
X143473809Y-106197619D01*
X143511904Y-106273809D01*
X143511904Y-106502380D01*
X143473809Y-106578571D01*
X143435714Y-106616666D01*
%TO.C,R2*%
D15*
X136832380Y-98866666D02*
X136356190Y-99200000D01*
X136832380Y-99438095D02*
X135832380Y-99438095D01*
X135832380Y-99057142D01*
X135880000Y-98961904D01*
X135927619Y-98914285D01*
X136022857Y-98866666D01*
X136165714Y-98866666D01*
X136260952Y-98914285D01*
X136308571Y-98961904D01*
X136356190Y-99057142D01*
X136356190Y-99438095D01*
X135927619Y-98485714D02*
X135880000Y-98438095D01*
X135832380Y-98342857D01*
X135832380Y-98104761D01*
X135880000Y-98009523D01*
X135927619Y-97961904D01*
X136022857Y-97914285D01*
X136118095Y-97914285D01*
X136260952Y-97961904D01*
X136832380Y-98533333D01*
X136832380Y-97914285D01*
%TO.C,L5*%
X152733333Y-101252380D02*
X152257142Y-101252380D01*
X152257142Y-100252380D01*
X153542857Y-100252380D02*
X153066666Y-100252380D01*
X153019047Y-100728571D01*
X153066666Y-100680952D01*
X153161904Y-100633333D01*
X153400000Y-100633333D01*
X153495238Y-100680952D01*
X153542857Y-100728571D01*
X153590476Y-100823809D01*
X153590476Y-101061904D01*
X153542857Y-101157142D01*
X153495238Y-101204761D01*
X153400000Y-101252380D01*
X153161904Y-101252380D01*
X153066666Y-101204761D01*
X153019047Y-101157142D01*
%TO.C,L4*%
X148733333Y-103702380D02*
X148257142Y-103702380D01*
X148257142Y-102702380D01*
X149495238Y-103035714D02*
X149495238Y-103702380D01*
X149257142Y-102654761D02*
X149019047Y-103369047D01*
X149638095Y-103369047D01*
%TO.C,L3*%
X136833333Y-101802380D02*
X136357142Y-101802380D01*
X136357142Y-100802380D01*
X137071428Y-100802380D02*
X137690476Y-100802380D01*
X137357142Y-101183333D01*
X137500000Y-101183333D01*
X137595238Y-101230952D01*
X137642857Y-101278571D01*
X137690476Y-101373809D01*
X137690476Y-101611904D01*
X137642857Y-101707142D01*
X137595238Y-101754761D01*
X137500000Y-101802380D01*
X137214285Y-101802380D01*
X137119047Y-101754761D01*
X137071428Y-101707142D01*
%TO.C,L2*%
X137002380Y-106116666D02*
X137002380Y-106592857D01*
X136002380Y-106592857D01*
X136097619Y-105830952D02*
X136050000Y-105783333D01*
X136002380Y-105688095D01*
X136002380Y-105450000D01*
X136050000Y-105354761D01*
X136097619Y-105307142D01*
X136192857Y-105259523D01*
X136288095Y-105259523D01*
X136430952Y-105307142D01*
X137002380Y-105878571D01*
X137002380Y-105259523D01*
%TO.C,L1*%
X136002380Y-101366666D02*
X136002380Y-101842857D01*
X135002380Y-101842857D01*
X136002380Y-100509523D02*
X136002380Y-101080952D01*
X136002380Y-100795238D02*
X135002380Y-100795238D01*
X135145238Y-100890476D01*
X135240476Y-100985714D01*
X135288095Y-101080952D01*
%TO.C,J1*%
X156952380Y-107283333D02*
X157666666Y-107283333D01*
X157809523Y-107330952D01*
X157904761Y-107426190D01*
X157952380Y-107569047D01*
X157952380Y-107664285D01*
X157952380Y-106283333D02*
X157952380Y-106854761D01*
X157952380Y-106569047D02*
X156952380Y-106569047D01*
X157095238Y-106664285D01*
X157190476Y-106759523D01*
X157238095Y-106854761D01*
%TO.C,C18*%
D10*
X139135714Y-99285714D02*
X139097619Y-99323809D01*
X138983333Y-99361904D01*
X138907142Y-99361904D01*
X138792857Y-99323809D01*
X138716666Y-99247619D01*
X138678571Y-99171428D01*
X138640476Y-99019047D01*
X138640476Y-98904761D01*
X138678571Y-98752380D01*
X138716666Y-98676190D01*
X138792857Y-98600000D01*
X138907142Y-98561904D01*
X138983333Y-98561904D01*
X139097619Y-98600000D01*
X139135714Y-98638095D01*
X139897619Y-99361904D02*
X139440476Y-99361904D01*
X139669047Y-99361904D02*
X139669047Y-98561904D01*
X139592857Y-98676190D01*
X139516666Y-98752380D01*
X139440476Y-98790476D01*
X140354761Y-98904761D02*
X140278571Y-98866666D01*
X140240476Y-98828571D01*
X140202380Y-98752380D01*
X140202380Y-98714285D01*
X140240476Y-98638095D01*
X140278571Y-98600000D01*
X140354761Y-98561904D01*
X140507142Y-98561904D01*
X140583333Y-98600000D01*
X140621428Y-98638095D01*
X140659523Y-98714285D01*
X140659523Y-98752380D01*
X140621428Y-98828571D01*
X140583333Y-98866666D01*
X140507142Y-98904761D01*
X140354761Y-98904761D01*
X140278571Y-98942857D01*
X140240476Y-98980952D01*
X140202380Y-99057142D01*
X140202380Y-99209523D01*
X140240476Y-99285714D01*
X140278571Y-99323809D01*
X140354761Y-99361904D01*
X140507142Y-99361904D01*
X140583333Y-99323809D01*
X140621428Y-99285714D01*
X140659523Y-99209523D01*
X140659523Y-99057142D01*
X140621428Y-98980952D01*
X140583333Y-98942857D01*
X140507142Y-98904761D01*
%TO.C,C17*%
X139185714Y-98185714D02*
X139147619Y-98223809D01*
X139033333Y-98261904D01*
X138957142Y-98261904D01*
X138842857Y-98223809D01*
X138766666Y-98147619D01*
X138728571Y-98071428D01*
X138690476Y-97919047D01*
X138690476Y-97804761D01*
X138728571Y-97652380D01*
X138766666Y-97576190D01*
X138842857Y-97500000D01*
X138957142Y-97461904D01*
X139033333Y-97461904D01*
X139147619Y-97500000D01*
X139185714Y-97538095D01*
X139947619Y-98261904D02*
X139490476Y-98261904D01*
X139719047Y-98261904D02*
X139719047Y-97461904D01*
X139642857Y-97576190D01*
X139566666Y-97652380D01*
X139490476Y-97690476D01*
X140214285Y-97461904D02*
X140747619Y-97461904D01*
X140404761Y-98261904D01*
%TO.C,C16*%
X144785714Y-98714285D02*
X144823809Y-98752380D01*
X144861904Y-98866666D01*
X144861904Y-98942857D01*
X144823809Y-99057142D01*
X144747619Y-99133333D01*
X144671428Y-99171428D01*
X144519047Y-99209523D01*
X144404761Y-99209523D01*
X144252380Y-99171428D01*
X144176190Y-99133333D01*
X144100000Y-99057142D01*
X144061904Y-98942857D01*
X144061904Y-98866666D01*
X144100000Y-98752380D01*
X144138095Y-98714285D01*
X144861904Y-97952380D02*
X144861904Y-98409523D01*
X144861904Y-98180952D02*
X144061904Y-98180952D01*
X144176190Y-98257142D01*
X144252380Y-98333333D01*
X144290476Y-98409523D01*
X144061904Y-97266666D02*
X144061904Y-97419047D01*
X144100000Y-97495238D01*
X144138095Y-97533333D01*
X144252380Y-97609523D01*
X144404761Y-97647619D01*
X144709523Y-97647619D01*
X144785714Y-97609523D01*
X144823809Y-97571428D01*
X144861904Y-97495238D01*
X144861904Y-97342857D01*
X144823809Y-97266666D01*
X144785714Y-97228571D01*
X144709523Y-97190476D01*
X144519047Y-97190476D01*
X144442857Y-97228571D01*
X144404761Y-97266666D01*
X144366666Y-97342857D01*
X144366666Y-97495238D01*
X144404761Y-97571428D01*
X144442857Y-97609523D01*
X144519047Y-97647619D01*
%TO.C,C15*%
X154671428Y-105428571D02*
X154714285Y-105471428D01*
X154757142Y-105600000D01*
X154757142Y-105685714D01*
X154714285Y-105814285D01*
X154628571Y-105900000D01*
X154542857Y-105942857D01*
X154371428Y-105985714D01*
X154242857Y-105985714D01*
X154071428Y-105942857D01*
X153985714Y-105900000D01*
X153900000Y-105814285D01*
X153857142Y-105685714D01*
X153857142Y-105600000D01*
X153900000Y-105471428D01*
X153942857Y-105428571D01*
X154757142Y-104571428D02*
X154757142Y-105085714D01*
X154757142Y-104828571D02*
X153857142Y-104828571D01*
X153985714Y-104914285D01*
X154071428Y-105000000D01*
X154114285Y-105085714D01*
X153857142Y-103757142D02*
X153857142Y-104185714D01*
X154285714Y-104228571D01*
X154242857Y-104185714D01*
X154200000Y-104100000D01*
X154200000Y-103885714D01*
X154242857Y-103800000D01*
X154285714Y-103757142D01*
X154371428Y-103714285D01*
X154585714Y-103714285D01*
X154671428Y-103757142D01*
X154714285Y-103800000D01*
X154757142Y-103885714D01*
X154757142Y-104100000D01*
X154714285Y-104185714D01*
X154671428Y-104228571D01*
%TO.C,C14*%
D15*
X151757142Y-105642857D02*
X151804761Y-105690476D01*
X151852380Y-105833333D01*
X151852380Y-105928571D01*
X151804761Y-106071428D01*
X151709523Y-106166666D01*
X151614285Y-106214285D01*
X151423809Y-106261904D01*
X151280952Y-106261904D01*
X151090476Y-106214285D01*
X150995238Y-106166666D01*
X150900000Y-106071428D01*
X150852380Y-105928571D01*
X150852380Y-105833333D01*
X150900000Y-105690476D01*
X150947619Y-105642857D01*
X151852380Y-104690476D02*
X151852380Y-105261904D01*
X151852380Y-104976190D02*
X150852380Y-104976190D01*
X150995238Y-105071428D01*
X151090476Y-105166666D01*
X151138095Y-105261904D01*
X151185714Y-103833333D02*
X151852380Y-103833333D01*
X150804761Y-104071428D02*
X151519047Y-104309523D01*
X151519047Y-103690476D01*
%TO.C,C13*%
X150757142Y-99742857D02*
X150804761Y-99790476D01*
X150852380Y-99933333D01*
X150852380Y-100028571D01*
X150804761Y-100171428D01*
X150709523Y-100266666D01*
X150614285Y-100314285D01*
X150423809Y-100361904D01*
X150280952Y-100361904D01*
X150090476Y-100314285D01*
X149995238Y-100266666D01*
X149900000Y-100171428D01*
X149852380Y-100028571D01*
X149852380Y-99933333D01*
X149900000Y-99790476D01*
X149947619Y-99742857D01*
X150852380Y-98790476D02*
X150852380Y-99361904D01*
X150852380Y-99076190D02*
X149852380Y-99076190D01*
X149995238Y-99171428D01*
X150090476Y-99266666D01*
X150138095Y-99361904D01*
X149852380Y-98457142D02*
X149852380Y-97838095D01*
X150233333Y-98171428D01*
X150233333Y-98028571D01*
X150280952Y-97933333D01*
X150328571Y-97885714D01*
X150423809Y-97838095D01*
X150661904Y-97838095D01*
X150757142Y-97885714D01*
X150804761Y-97933333D01*
X150852380Y-98028571D01*
X150852380Y-98314285D01*
X150804761Y-98409523D01*
X150757142Y-98457142D01*
%TO.C,C12*%
X147757142Y-99757857D02*
X147804761Y-99805476D01*
X147852380Y-99948333D01*
X147852380Y-100043571D01*
X147804761Y-100186428D01*
X147709523Y-100281666D01*
X147614285Y-100329285D01*
X147423809Y-100376904D01*
X147280952Y-100376904D01*
X147090476Y-100329285D01*
X146995238Y-100281666D01*
X146900000Y-100186428D01*
X146852380Y-100043571D01*
X146852380Y-99948333D01*
X146900000Y-99805476D01*
X146947619Y-99757857D01*
X147852380Y-98805476D02*
X147852380Y-99376904D01*
X147852380Y-99091190D02*
X146852380Y-99091190D01*
X146995238Y-99186428D01*
X147090476Y-99281666D01*
X147138095Y-99376904D01*
X146947619Y-98424523D02*
X146900000Y-98376904D01*
X146852380Y-98281666D01*
X146852380Y-98043571D01*
X146900000Y-97948333D01*
X146947619Y-97900714D01*
X147042857Y-97853095D01*
X147138095Y-97853095D01*
X147280952Y-97900714D01*
X147852380Y-98472142D01*
X147852380Y-97853095D01*
%TO.C,C9*%
D10*
X132616666Y-96435714D02*
X132578571Y-96473809D01*
X132464285Y-96511904D01*
X132388095Y-96511904D01*
X132273809Y-96473809D01*
X132197619Y-96397619D01*
X132159523Y-96321428D01*
X132121428Y-96169047D01*
X132121428Y-96054761D01*
X132159523Y-95902380D01*
X132197619Y-95826190D01*
X132273809Y-95750000D01*
X132388095Y-95711904D01*
X132464285Y-95711904D01*
X132578571Y-95750000D01*
X132616666Y-95788095D01*
X132997619Y-96511904D02*
X133150000Y-96511904D01*
X133226190Y-96473809D01*
X133264285Y-96435714D01*
X133340476Y-96321428D01*
X133378571Y-96169047D01*
X133378571Y-95864285D01*
X133340476Y-95788095D01*
X133302380Y-95750000D01*
X133226190Y-95711904D01*
X133073809Y-95711904D01*
X132997619Y-95750000D01*
X132959523Y-95788095D01*
X132921428Y-95864285D01*
X132921428Y-96054761D01*
X132959523Y-96130952D01*
X132997619Y-96169047D01*
X133073809Y-96207142D01*
X133226190Y-96207142D01*
X133302380Y-96169047D01*
X133340476Y-96130952D01*
X133378571Y-96054761D01*
%TO.C,C8*%
X132616666Y-97485714D02*
X132578571Y-97523809D01*
X132464285Y-97561904D01*
X132388095Y-97561904D01*
X132273809Y-97523809D01*
X132197619Y-97447619D01*
X132159523Y-97371428D01*
X132121428Y-97219047D01*
X132121428Y-97104761D01*
X132159523Y-96952380D01*
X132197619Y-96876190D01*
X132273809Y-96800000D01*
X132388095Y-96761904D01*
X132464285Y-96761904D01*
X132578571Y-96800000D01*
X132616666Y-96838095D01*
X133073809Y-97104761D02*
X132997619Y-97066666D01*
X132959523Y-97028571D01*
X132921428Y-96952380D01*
X132921428Y-96914285D01*
X132959523Y-96838095D01*
X132997619Y-96800000D01*
X133073809Y-96761904D01*
X133226190Y-96761904D01*
X133302380Y-96800000D01*
X133340476Y-96838095D01*
X133378571Y-96914285D01*
X133378571Y-96952380D01*
X133340476Y-97028571D01*
X133302380Y-97066666D01*
X133226190Y-97104761D01*
X133073809Y-97104761D01*
X132997619Y-97142857D01*
X132959523Y-97180952D01*
X132921428Y-97257142D01*
X132921428Y-97409523D01*
X132959523Y-97485714D01*
X132997619Y-97523809D01*
X133073809Y-97561904D01*
X133226190Y-97561904D01*
X133302380Y-97523809D01*
X133340476Y-97485714D01*
X133378571Y-97409523D01*
X133378571Y-97257142D01*
X133340476Y-97180952D01*
X133302380Y-97142857D01*
X133226190Y-97104761D01*
%TO.C,C7*%
X128816666Y-99535714D02*
X128778571Y-99573809D01*
X128664285Y-99611904D01*
X128588095Y-99611904D01*
X128473809Y-99573809D01*
X128397619Y-99497619D01*
X128359523Y-99421428D01*
X128321428Y-99269047D01*
X128321428Y-99154761D01*
X128359523Y-99002380D01*
X128397619Y-98926190D01*
X128473809Y-98850000D01*
X128588095Y-98811904D01*
X128664285Y-98811904D01*
X128778571Y-98850000D01*
X128816666Y-98888095D01*
X129083333Y-98811904D02*
X129616666Y-98811904D01*
X129273809Y-99611904D01*
%TO.C,C6*%
X140635714Y-100383333D02*
X140673809Y-100421428D01*
X140711904Y-100535714D01*
X140711904Y-100611904D01*
X140673809Y-100726190D01*
X140597619Y-100802380D01*
X140521428Y-100840476D01*
X140369047Y-100878571D01*
X140254761Y-100878571D01*
X140102380Y-100840476D01*
X140026190Y-100802380D01*
X139950000Y-100726190D01*
X139911904Y-100611904D01*
X139911904Y-100535714D01*
X139950000Y-100421428D01*
X139988095Y-100383333D01*
X139911904Y-99697619D02*
X139911904Y-99850000D01*
X139950000Y-99926190D01*
X139988095Y-99964285D01*
X140102380Y-100040476D01*
X140254761Y-100078571D01*
X140559523Y-100078571D01*
X140635714Y-100040476D01*
X140673809Y-100002380D01*
X140711904Y-99926190D01*
X140711904Y-99773809D01*
X140673809Y-99697619D01*
X140635714Y-99659523D01*
X140559523Y-99621428D01*
X140369047Y-99621428D01*
X140292857Y-99659523D01*
X140254761Y-99697619D01*
X140216666Y-99773809D01*
X140216666Y-99926190D01*
X140254761Y-100002380D01*
X140292857Y-100040476D01*
X140369047Y-100078571D01*
%TO.C,C5*%
D15*
X138733333Y-101757142D02*
X138685714Y-101804761D01*
X138542857Y-101852380D01*
X138447619Y-101852380D01*
X138304761Y-101804761D01*
X138209523Y-101709523D01*
X138161904Y-101614285D01*
X138114285Y-101423809D01*
X138114285Y-101280952D01*
X138161904Y-101090476D01*
X138209523Y-100995238D01*
X138304761Y-100900000D01*
X138447619Y-100852380D01*
X138542857Y-100852380D01*
X138685714Y-100900000D01*
X138733333Y-100947619D01*
X139638095Y-100852380D02*
X139161904Y-100852380D01*
X139114285Y-101328571D01*
X139161904Y-101280952D01*
X139257142Y-101233333D01*
X139495238Y-101233333D01*
X139590476Y-101280952D01*
X139638095Y-101328571D01*
X139685714Y-101423809D01*
X139685714Y-101661904D01*
X139638095Y-101757142D01*
X139590476Y-101804761D01*
X139495238Y-101852380D01*
X139257142Y-101852380D01*
X139161904Y-101804761D01*
X139114285Y-101757142D01*
%TO.C,C4*%
X139818333Y-106007142D02*
X139770714Y-106054761D01*
X139627857Y-106102380D01*
X139532619Y-106102380D01*
X139389761Y-106054761D01*
X139294523Y-105959523D01*
X139246904Y-105864285D01*
X139199285Y-105673809D01*
X139199285Y-105530952D01*
X139246904Y-105340476D01*
X139294523Y-105245238D01*
X139389761Y-105150000D01*
X139532619Y-105102380D01*
X139627857Y-105102380D01*
X139770714Y-105150000D01*
X139818333Y-105197619D01*
X140675476Y-105435714D02*
X140675476Y-106102380D01*
X140437380Y-105054761D02*
X140199285Y-105769047D01*
X140818333Y-105769047D01*
%TO.C,C3*%
X139818333Y-104757142D02*
X139770714Y-104804761D01*
X139627857Y-104852380D01*
X139532619Y-104852380D01*
X139389761Y-104804761D01*
X139294523Y-104709523D01*
X139246904Y-104614285D01*
X139199285Y-104423809D01*
X139199285Y-104280952D01*
X139246904Y-104090476D01*
X139294523Y-103995238D01*
X139389761Y-103900000D01*
X139532619Y-103852380D01*
X139627857Y-103852380D01*
X139770714Y-103900000D01*
X139818333Y-103947619D01*
X140151666Y-103852380D02*
X140770714Y-103852380D01*
X140437380Y-104233333D01*
X140580238Y-104233333D01*
X140675476Y-104280952D01*
X140723095Y-104328571D01*
X140770714Y-104423809D01*
X140770714Y-104661904D01*
X140723095Y-104757142D01*
X140675476Y-104804761D01*
X140580238Y-104852380D01*
X140294523Y-104852380D01*
X140199285Y-104804761D01*
X140151666Y-104757142D01*
%TO.C,C2*%
D10*
X129416666Y-109335714D02*
X129378571Y-109373809D01*
X129264285Y-109411904D01*
X129188095Y-109411904D01*
X129073809Y-109373809D01*
X128997619Y-109297619D01*
X128959523Y-109221428D01*
X128921428Y-109069047D01*
X128921428Y-108954761D01*
X128959523Y-108802380D01*
X128997619Y-108726190D01*
X129073809Y-108650000D01*
X129188095Y-108611904D01*
X129264285Y-108611904D01*
X129378571Y-108650000D01*
X129416666Y-108688095D01*
X129721428Y-108688095D02*
X129759523Y-108650000D01*
X129835714Y-108611904D01*
X130026190Y-108611904D01*
X130102380Y-108650000D01*
X130140476Y-108688095D01*
X130178571Y-108764285D01*
X130178571Y-108840476D01*
X130140476Y-108954761D01*
X129683333Y-109411904D01*
X130178571Y-109411904D01*
%TO.C,C1*%
X135866666Y-109335714D02*
X135828571Y-109373809D01*
X135714285Y-109411904D01*
X135638095Y-109411904D01*
X135523809Y-109373809D01*
X135447619Y-109297619D01*
X135409523Y-109221428D01*
X135371428Y-109069047D01*
X135371428Y-108954761D01*
X135409523Y-108802380D01*
X135447619Y-108726190D01*
X135523809Y-108650000D01*
X135638095Y-108611904D01*
X135714285Y-108611904D01*
X135828571Y-108650000D01*
X135866666Y-108688095D01*
X136628571Y-109411904D02*
X136171428Y-109411904D01*
X136400000Y-109411904D02*
X136400000Y-108611904D01*
X136323809Y-108726190D01*
X136247619Y-108802380D01*
X136171428Y-108840476D01*
%TD*%
M02*
