M48
; DRILL file {KiCad (5.1.6)-1} date 08/23/20 21:25:57
; FORMAT={-:-/ absolute / inch / decimal}
; #@! TF.CreationDate,2020-08-23T21:25:57+02:00
; #@! TF.GenerationSoftware,Kicad,Pcbnew,(5.1.6)-1
; #@! TF.FileFunction,Plated,1,2,PTH
FMAT,2
INCH
T1C0.0118
T2C0.0394
%
G90
G05
T1
X4.7441Y-3.7795
X4.7441Y-3.8189
X4.7441Y-3.8583
X4.7441Y-3.8976
X4.7441Y-3.937
X4.7441Y-3.9764
X4.7441Y-4.0157
X4.7441Y-4.0551
X4.7441Y-4.0945
X4.7441Y-4.1339
X4.7441Y-4.1732
X4.7441Y-4.2126
X4.7441Y-4.252
X4.7441Y-4.2913
X4.7441Y-4.3307
X4.7835Y-3.7795
X4.7835Y-3.8189
X4.7835Y-3.8583
X4.7835Y-3.8976
X4.7835Y-3.937
X4.7835Y-3.9764
X4.7835Y-4.0157
X4.7835Y-4.0551
X4.7835Y-4.0945
X4.7835Y-4.1339
X4.7835Y-4.1732
X4.7835Y-4.2126
X4.7835Y-4.252
X4.7835Y-4.2913
X4.7835Y-4.3307
X4.8228Y-3.7795
X4.8228Y-4.3307
X4.8524Y-4.252
X4.8622Y-3.7795
X4.8622Y-4.3307
X4.8917Y-4.2126
X4.8917Y-4.252
X4.9016Y-3.7795
X4.9016Y-4.3307
X4.9311Y-4.252
X4.9409Y-3.7795
X4.9409Y-4.3307
X4.9705Y-4.252
X4.9803Y-3.7795
X4.9803Y-4.3307
X5.0098Y-4.2126
X5.0098Y-4.252
X5.0197Y-3.7795
X5.0197Y-3.8189
X5.0197Y-4.3307
X5.0492Y-4.1732
X5.0492Y-4.2126
X5.0492Y-4.252
X5.0591Y-3.7795
X5.0591Y-3.8189
X5.0591Y-4.3307
X5.0886Y-3.9075
X5.0886Y-3.9469
X5.0886Y-4.1732
X5.0886Y-4.2126
X5.0984Y-3.7795
X5.0984Y-3.8189
X5.0984Y-4.3307
X5.128Y-4.1732
X5.128Y-4.2126
X5.1378Y-3.7795
X5.1378Y-3.8189
X5.1378Y-3.9469
X5.1378Y-4.3307
X5.1772Y-3.7795
X5.1772Y-3.8189
X5.1772Y-4.3307
X5.1969Y-4.0256
X5.2165Y-3.7795
X5.2165Y-4.3307
X5.2362Y-4.0256
X5.2362Y-4.065
X5.2559Y-3.7795
X5.2559Y-4.3307
X5.2854Y-3.8583
X5.2854Y-3.8976
X5.2953Y-3.7795
X5.2953Y-4.3307
X5.3248Y-3.937
X5.3248Y-3.9764
X5.3346Y-3.7795
X5.3346Y-4.3307
X5.3642Y-3.8583
X5.3642Y-3.8976
X5.3642Y-3.937
X5.3642Y-3.9764
X5.374Y-3.7795
X5.374Y-4.1634
X5.374Y-4.2028
X5.374Y-4.3307
X5.4035Y-3.8583
X5.4035Y-3.8976
X5.4035Y-3.937
X5.4035Y-3.9764
X5.4134Y-3.7795
X5.4134Y-4.2224
X5.4134Y-4.2618
X5.4134Y-4.3307
X5.4232Y-4.0748
X5.4429Y-3.8583
X5.4429Y-3.8976
X5.4429Y-3.937
X5.4429Y-3.9764
X5.4528Y-3.7795
X5.4528Y-4.2224
X5.4528Y-4.2618
X5.4528Y-4.3307
X5.4626Y-4.0748
X5.4823Y-3.8583
X5.4823Y-3.8976
X5.4823Y-3.937
X5.4823Y-3.9764
X5.4921Y-3.7795
X5.4921Y-4.2224
X5.4921Y-4.2618
X5.4921Y-4.3307
X5.502Y-4.0748
X5.502Y-4.1142
X5.502Y-4.1535
X5.5217Y-3.8583
X5.5217Y-3.8976
X5.5217Y-3.937
X5.5315Y-3.7795
X5.5315Y-4.2224
X5.5315Y-4.2618
X5.5315Y-4.3307
X5.5413Y-4.0748
X5.5413Y-4.1142
X5.5413Y-4.1535
X5.561Y-3.937
X5.5709Y-3.7795
X5.5709Y-4.2224
X5.5709Y-4.2618
X5.5709Y-4.3307
X5.6102Y-3.7795
X5.6102Y-4.2224
X5.6102Y-4.3307
X5.6171Y-3.9892
X5.6496Y-3.7795
X5.6496Y-3.8189
X5.6496Y-4.3307
X5.6516Y-4.0256
X5.689Y-3.7795
X5.689Y-3.8189
X5.689Y-3.8583
X5.689Y-3.8976
X5.689Y-3.937
X5.689Y-4.2126
X5.689Y-4.252
X5.689Y-4.2913
X5.689Y-4.3307
X5.6988Y-4.0748
X5.7283Y-3.8189
X5.7283Y-3.8583
X5.7283Y-3.8976
X5.7283Y-3.937
X5.7283Y-4.1339
X5.7283Y-4.1732
X5.7283Y-4.2126
X5.7283Y-4.252
X5.7283Y-4.2913
X5.7283Y-4.3307
X5.7677Y-3.8583
X5.7677Y-3.8976
X5.7677Y-3.937
X5.7677Y-3.9764
X5.7677Y-4.1339
X5.7677Y-4.1732
X5.7677Y-4.2126
X5.8071Y-3.8583
X5.8071Y-3.8976
X5.8071Y-3.937
X5.8071Y-4.0551
X5.8071Y-4.0945
X5.8071Y-4.1339
X5.8071Y-4.1732
X5.8465Y-3.8583
X5.8465Y-3.8976
X5.8465Y-3.937
X5.8465Y-3.9764
X5.8465Y-4.0551
X5.8465Y-4.0945
X5.8465Y-4.1339
X5.8465Y-4.1732
X5.8858Y-3.8583
X5.8858Y-3.8976
X5.8858Y-3.937
X5.8858Y-3.9764
X5.8858Y-4.0551
X5.8858Y-4.0945
X5.8858Y-4.1339
X5.8858Y-4.1732
X5.9252Y-3.8583
X5.9252Y-3.8976
X5.9252Y-3.937
X5.9252Y-4.0551
X5.9252Y-4.0945
X5.9252Y-4.1339
X5.9252Y-4.1732
X5.9646Y-3.8583
X5.9646Y-3.8976
X5.9646Y-3.937
X5.9646Y-3.9764
X5.9646Y-4.0945
X5.9646Y-4.1339
X5.9646Y-4.1732
X6.0039Y-3.8583
X6.0039Y-3.8976
X6.0039Y-3.937
X6.0039Y-3.9764
X6.0039Y-4.0551
X6.0039Y-4.0945
X6.0039Y-4.1339
X6.0039Y-4.1732
X6.0433Y-3.8583
X6.0433Y-3.8976
X6.0433Y-3.937
X6.0433Y-3.9764
X6.0433Y-4.0551
X6.0433Y-4.0945
X6.0433Y-4.1339
X6.0433Y-4.1732
X6.0827Y-3.8583
X6.0827Y-3.8976
X6.0827Y-3.937
X6.0827Y-3.9764
X6.0827Y-4.0945
X6.0827Y-4.1339
X6.0827Y-4.1732
X6.1319Y-3.8484
X6.1319Y-3.9567
X6.1319Y-4.0748
X6.1319Y-4.1831
X6.2008Y-3.8484
X6.2008Y-3.9567
X6.2008Y-4.0748
X6.2008Y-4.1831
T2
X4.8606Y-3.8654
X4.8606Y-3.9654
X4.8606Y-4.0654
X4.8606Y-4.1654
X4.9606Y-3.8654
X4.9606Y-3.9654
X4.9606Y-4.0654
X4.9606Y-4.1654
T0
M30
