%TF.GenerationSoftware,KiCad,Pcbnew,(5.1.6)-1*%
%TF.CreationDate,2020-08-19T15:04:17+02:00*%
%TF.ProjectId,nRF24module,6e524632-346d-46f6-9475-6c652e6b6963,1*%
%TF.SameCoordinates,Original*%
%TF.FileFunction,Copper,L2,Bot*%
%TF.FilePolarity,Positive*%
%FSLAX46Y46*%
G04 Gerber Fmt 4.6, Leading zero omitted, Abs format (unit mm)*
G04 Created by KiCad (PCBNEW (5.1.6)-1) date 2020-08-19 15:04:17*
%MOMM*%
%LPD*%
G01*
G04 APERTURE LIST*
%TA.AperFunction,ComponentPad*%
%ADD10O,1.700000X1.700000*%
%TD*%
%TA.AperFunction,ComponentPad*%
%ADD11R,1.700000X1.700000*%
%TD*%
%TA.AperFunction,SMDPad,CuDef*%
%ADD12R,4.200000X1.350000*%
%TD*%
%TA.AperFunction,ViaPad*%
%ADD13C,0.600000*%
%TD*%
%TA.AperFunction,Conductor*%
%ADD14C,0.200000*%
%TD*%
G04 APERTURE END LIST*
D10*
%TO.P,H1,8*%
%TO.N,GND*%
X122960000Y-98660000D03*
%TO.P,H1,7*%
%TO.N,+3V3*%
X125500000Y-98660000D03*
%TO.P,H1,6*%
%TO.N,CE*%
X122960000Y-101200000D03*
%TO.P,H1,5*%
%TO.N,CSn*%
X125500000Y-101200000D03*
%TO.P,H1,4*%
%TO.N,SCLK*%
X122960000Y-103740000D03*
%TO.P,H1,3*%
%TO.N,MOSI*%
X125500000Y-103740000D03*
%TO.P,H1,2*%
%TO.N,MISO*%
X122960000Y-106280000D03*
D11*
%TO.P,H1,1*%
%TO.N,IRQ*%
X125500000Y-106280000D03*
%TD*%
D12*
%TO.P,J1,2*%
%TO.N,GND*%
X157500000Y-99175000D03*
X157500000Y-104825000D03*
%TD*%
D13*
%TO.N,GND*%
X159000000Y-99000000D03*
X156000000Y-99000000D03*
X158500000Y-105000000D03*
X156500000Y-105000000D03*
X130500000Y-106000000D03*
X132500000Y-108000000D03*
X142700000Y-101200000D03*
X141800000Y-102100000D03*
X140000000Y-103500000D03*
X139000000Y-103500000D03*
X138000000Y-103500000D03*
X137000000Y-103500000D03*
X139000000Y-104500000D03*
X140000000Y-104500000D03*
X140000000Y-105500000D03*
X139000000Y-105500000D03*
X131800000Y-103000000D03*
X131800000Y-102100000D03*
X130600000Y-102100000D03*
X133000000Y-99000000D03*
X133000000Y-98000000D03*
X135000000Y-98000000D03*
X135000000Y-99000000D03*
X136000000Y-98000000D03*
X136000000Y-99000000D03*
X137000000Y-98000000D03*
X137000000Y-99000000D03*
X138000000Y-98000000D03*
X138000000Y-99000000D03*
X139000000Y-98000000D03*
X139000000Y-99000000D03*
X140000000Y-98000000D03*
X140000000Y-99000000D03*
X140000000Y-100000000D03*
X139000000Y-100000000D03*
X138000000Y-100000000D03*
X137000000Y-100000000D03*
X136000000Y-100000000D03*
X135000000Y-100000000D03*
X135000000Y-101000000D03*
X136000000Y-101000000D03*
X137000000Y-101000000D03*
X138000000Y-101000000D03*
X134000000Y-101000000D03*
X134000000Y-100000000D03*
X127000000Y-99000000D03*
X128000000Y-99000000D03*
X128000000Y-100000000D03*
X129000000Y-100000000D03*
X121000000Y-98000000D03*
X121000000Y-97000000D03*
X121000000Y-96000000D03*
X122000000Y-96000000D03*
X121000000Y-99000000D03*
X121000000Y-100000000D03*
X121000000Y-101000000D03*
X121000000Y-102000000D03*
X121000000Y-103000000D03*
X121000000Y-104000000D03*
X121000000Y-105000000D03*
X121000000Y-106000000D03*
X121000000Y-107000000D03*
X121000000Y-108000000D03*
X121000000Y-109000000D03*
X134000000Y-108500000D03*
X135000000Y-108500000D03*
X136000000Y-108500000D03*
X137000000Y-108500000D03*
X138000000Y-108500000D03*
X139000000Y-108500000D03*
X139000000Y-107500000D03*
X138000000Y-107500000D03*
X137000000Y-107500000D03*
X136000000Y-107500000D03*
X135000000Y-107500000D03*
X136000000Y-106500000D03*
X135000000Y-105500000D03*
X133500000Y-105000000D03*
X127500000Y-108000000D03*
X140000000Y-107500000D03*
X142000000Y-108500000D03*
X143000000Y-108500000D03*
X143000000Y-107500000D03*
X144000000Y-104500000D03*
X144000000Y-103500000D03*
X145000000Y-104500000D03*
X146000000Y-104500000D03*
X147000000Y-104500000D03*
X147000000Y-103500000D03*
X148000000Y-103500000D03*
X148000000Y-104500000D03*
X149000000Y-103500000D03*
X149000000Y-104500000D03*
X150000000Y-103500000D03*
X150000000Y-104500000D03*
X151000000Y-104500000D03*
X152000000Y-104500000D03*
X152000000Y-103500000D03*
X153000000Y-103500000D03*
X153000000Y-104500000D03*
X154000000Y-104500000D03*
X155000000Y-104500000D03*
X155000000Y-103500000D03*
X156000000Y-106500000D03*
X157000000Y-106500000D03*
X158000000Y-106500000D03*
X144000000Y-100000000D03*
X145000000Y-100000000D03*
X145000000Y-101000000D03*
X146000000Y-100000000D03*
X147000000Y-100000000D03*
X148000000Y-100000000D03*
X148000000Y-101000000D03*
X149000000Y-101000000D03*
X149000000Y-100000000D03*
X150000000Y-100000000D03*
X151000000Y-100000000D03*
X151000000Y-101000000D03*
X152000000Y-101000000D03*
X153000000Y-101000000D03*
X154000000Y-101000000D03*
X155000000Y-101000000D03*
X155000000Y-100000000D03*
X154000000Y-100000000D03*
X153000000Y-100000000D03*
X152000000Y-100000000D03*
X144000000Y-98000000D03*
X144000000Y-99000000D03*
X144000000Y-97000000D03*
X143000000Y-97000000D03*
X122000000Y-95000000D03*
X121000000Y-95000000D03*
X131000000Y-95000000D03*
X132000000Y-95000000D03*
X133000000Y-95000000D03*
X134000000Y-95000000D03*
X135000000Y-95000000D03*
X136000000Y-95000000D03*
X137000000Y-95000000D03*
X145000000Y-107000000D03*
X147500000Y-107000000D03*
X150000000Y-107000000D03*
X152500000Y-107000000D03*
X155000000Y-107000000D03*
X145000000Y-109500000D03*
X147500000Y-109500000D03*
X150000000Y-109500000D03*
X152500000Y-109500000D03*
X155000000Y-109500000D03*
X155000000Y-97000000D03*
X152500000Y-97000000D03*
X150000000Y-97000000D03*
X147500000Y-97000000D03*
X147500000Y-94500000D03*
X150000000Y-94500000D03*
X152500000Y-94500000D03*
X155000000Y-94500000D03*
X126250000Y-108000000D03*
X125000000Y-108000000D03*
X123750000Y-108000000D03*
X122000000Y-97000000D03*
X123000000Y-97000000D03*
X123000000Y-96000000D03*
X123000000Y-95000000D03*
X124000000Y-95000000D03*
X124000000Y-96000000D03*
X124000000Y-97000000D03*
X125000000Y-97000000D03*
X125000000Y-96000000D03*
X125000000Y-95000000D03*
X126250000Y-95000000D03*
X127250000Y-95000000D03*
X128250000Y-95000000D03*
X129500000Y-95000000D03*
X129500000Y-96000000D03*
X128250000Y-96000000D03*
X127250000Y-96000000D03*
X126250000Y-96000000D03*
X126250000Y-97000000D03*
X127250000Y-97000000D03*
X128250000Y-97000000D03*
X129500000Y-97000000D03*
%TD*%
D14*
%TO.N,GND*%
G36*
X158730805Y-92339384D02*
G01*
X158856629Y-92377373D01*
X158972675Y-92439076D01*
X159074532Y-92522148D01*
X159158310Y-92623418D01*
X159220819Y-92739027D01*
X159259686Y-92864586D01*
X159275001Y-93010295D01*
X159275000Y-98198784D01*
X157600000Y-98200000D01*
X157525000Y-98275000D01*
X157525000Y-99150000D01*
X157545000Y-99150000D01*
X157545000Y-99200000D01*
X157525000Y-99200000D01*
X157525000Y-100075000D01*
X157600000Y-100150000D01*
X159275000Y-100151216D01*
X159275000Y-103848784D01*
X157600000Y-103850000D01*
X157525000Y-103925000D01*
X157525000Y-104800000D01*
X157545000Y-104800000D01*
X157545000Y-104850000D01*
X157525000Y-104850000D01*
X157525000Y-105725000D01*
X157600000Y-105800000D01*
X159275000Y-105801216D01*
X159275001Y-110984094D01*
X159260616Y-111130805D01*
X159222627Y-111256629D01*
X159160924Y-111372675D01*
X159077853Y-111474531D01*
X158976586Y-111558307D01*
X158860973Y-111620819D01*
X158735410Y-111659687D01*
X158589716Y-111675000D01*
X120615896Y-111675000D01*
X120469195Y-111660616D01*
X120343371Y-111622627D01*
X120227325Y-111560924D01*
X120125469Y-111477853D01*
X120041693Y-111376586D01*
X119979181Y-111260973D01*
X119940313Y-111135410D01*
X119925000Y-110989716D01*
X119925000Y-106166735D01*
X121810000Y-106166735D01*
X121810000Y-106393265D01*
X121854194Y-106615443D01*
X121940884Y-106824729D01*
X122066737Y-107013082D01*
X122226918Y-107173263D01*
X122415271Y-107299116D01*
X122624557Y-107385806D01*
X122846735Y-107430000D01*
X123073265Y-107430000D01*
X123295443Y-107385806D01*
X123504729Y-107299116D01*
X123693082Y-107173263D01*
X123853263Y-107013082D01*
X123979116Y-106824729D01*
X124065806Y-106615443D01*
X124110000Y-106393265D01*
X124110000Y-106166735D01*
X124065806Y-105944557D01*
X123979116Y-105735271D01*
X123853263Y-105546918D01*
X123736345Y-105430000D01*
X124348549Y-105430000D01*
X124348549Y-107130000D01*
X124354341Y-107188810D01*
X124371496Y-107245360D01*
X124399353Y-107297477D01*
X124436842Y-107343158D01*
X124482523Y-107380647D01*
X124534640Y-107408504D01*
X124591190Y-107425659D01*
X124650000Y-107431451D01*
X126350000Y-107431451D01*
X126408810Y-107425659D01*
X126465360Y-107408504D01*
X126517477Y-107380647D01*
X126563158Y-107343158D01*
X126600647Y-107297477D01*
X126628504Y-107245360D01*
X126645659Y-107188810D01*
X126651451Y-107130000D01*
X126651451Y-105500000D01*
X155098548Y-105500000D01*
X155104340Y-105558810D01*
X155121495Y-105615361D01*
X155149352Y-105667478D01*
X155186841Y-105713159D01*
X155232522Y-105750648D01*
X155284639Y-105778505D01*
X155341190Y-105795660D01*
X155400000Y-105801452D01*
X157400000Y-105800000D01*
X157475000Y-105725000D01*
X157475000Y-104850000D01*
X155175000Y-104850000D01*
X155100000Y-104925000D01*
X155098548Y-105500000D01*
X126651451Y-105500000D01*
X126651451Y-105430000D01*
X126645659Y-105371190D01*
X126628504Y-105314640D01*
X126600647Y-105262523D01*
X126563158Y-105216842D01*
X126517477Y-105179353D01*
X126465360Y-105151496D01*
X126408810Y-105134341D01*
X126350000Y-105128549D01*
X124650000Y-105128549D01*
X124591190Y-105134341D01*
X124534640Y-105151496D01*
X124482523Y-105179353D01*
X124436842Y-105216842D01*
X124399353Y-105262523D01*
X124371496Y-105314640D01*
X124354341Y-105371190D01*
X124348549Y-105430000D01*
X123736345Y-105430000D01*
X123693082Y-105386737D01*
X123504729Y-105260884D01*
X123295443Y-105174194D01*
X123073265Y-105130000D01*
X122846735Y-105130000D01*
X122624557Y-105174194D01*
X122415271Y-105260884D01*
X122226918Y-105386737D01*
X122066737Y-105546918D01*
X121940884Y-105735271D01*
X121854194Y-105944557D01*
X121810000Y-106166735D01*
X119925000Y-106166735D01*
X119925000Y-103626735D01*
X121810000Y-103626735D01*
X121810000Y-103853265D01*
X121854194Y-104075443D01*
X121940884Y-104284729D01*
X122066737Y-104473082D01*
X122226918Y-104633263D01*
X122415271Y-104759116D01*
X122624557Y-104845806D01*
X122846735Y-104890000D01*
X123073265Y-104890000D01*
X123295443Y-104845806D01*
X123504729Y-104759116D01*
X123693082Y-104633263D01*
X123853263Y-104473082D01*
X123979116Y-104284729D01*
X124065806Y-104075443D01*
X124110000Y-103853265D01*
X124110000Y-103626735D01*
X124350000Y-103626735D01*
X124350000Y-103853265D01*
X124394194Y-104075443D01*
X124480884Y-104284729D01*
X124606737Y-104473082D01*
X124766918Y-104633263D01*
X124955271Y-104759116D01*
X125164557Y-104845806D01*
X125386735Y-104890000D01*
X125613265Y-104890000D01*
X125835443Y-104845806D01*
X126044729Y-104759116D01*
X126233082Y-104633263D01*
X126393263Y-104473082D01*
X126519116Y-104284729D01*
X126574923Y-104150000D01*
X155098548Y-104150000D01*
X155100000Y-104725000D01*
X155175000Y-104800000D01*
X157475000Y-104800000D01*
X157475000Y-103925000D01*
X157400000Y-103850000D01*
X155400000Y-103848548D01*
X155341190Y-103854340D01*
X155284639Y-103871495D01*
X155232522Y-103899352D01*
X155186841Y-103936841D01*
X155149352Y-103982522D01*
X155121495Y-104034639D01*
X155104340Y-104091190D01*
X155098548Y-104150000D01*
X126574923Y-104150000D01*
X126605806Y-104075443D01*
X126650000Y-103853265D01*
X126650000Y-103626735D01*
X126605806Y-103404557D01*
X126519116Y-103195271D01*
X126393263Y-103006918D01*
X126233082Y-102846737D01*
X126044729Y-102720884D01*
X125835443Y-102634194D01*
X125613265Y-102590000D01*
X125386735Y-102590000D01*
X125164557Y-102634194D01*
X124955271Y-102720884D01*
X124766918Y-102846737D01*
X124606737Y-103006918D01*
X124480884Y-103195271D01*
X124394194Y-103404557D01*
X124350000Y-103626735D01*
X124110000Y-103626735D01*
X124065806Y-103404557D01*
X123979116Y-103195271D01*
X123853263Y-103006918D01*
X123693082Y-102846737D01*
X123504729Y-102720884D01*
X123295443Y-102634194D01*
X123073265Y-102590000D01*
X122846735Y-102590000D01*
X122624557Y-102634194D01*
X122415271Y-102720884D01*
X122226918Y-102846737D01*
X122066737Y-103006918D01*
X121940884Y-103195271D01*
X121854194Y-103404557D01*
X121810000Y-103626735D01*
X119925000Y-103626735D01*
X119925000Y-101086735D01*
X121810000Y-101086735D01*
X121810000Y-101313265D01*
X121854194Y-101535443D01*
X121940884Y-101744729D01*
X122066737Y-101933082D01*
X122226918Y-102093263D01*
X122415271Y-102219116D01*
X122624557Y-102305806D01*
X122846735Y-102350000D01*
X123073265Y-102350000D01*
X123295443Y-102305806D01*
X123504729Y-102219116D01*
X123693082Y-102093263D01*
X123853263Y-101933082D01*
X123979116Y-101744729D01*
X124065806Y-101535443D01*
X124110000Y-101313265D01*
X124110000Y-101086735D01*
X124350000Y-101086735D01*
X124350000Y-101313265D01*
X124394194Y-101535443D01*
X124480884Y-101744729D01*
X124606737Y-101933082D01*
X124766918Y-102093263D01*
X124955271Y-102219116D01*
X125164557Y-102305806D01*
X125386735Y-102350000D01*
X125613265Y-102350000D01*
X125835443Y-102305806D01*
X126044729Y-102219116D01*
X126233082Y-102093263D01*
X126393263Y-101933082D01*
X126519116Y-101744729D01*
X126605806Y-101535443D01*
X126650000Y-101313265D01*
X126650000Y-101086735D01*
X126605806Y-100864557D01*
X126519116Y-100655271D01*
X126393263Y-100466918D01*
X126233082Y-100306737D01*
X126044729Y-100180884D01*
X125835443Y-100094194D01*
X125613265Y-100050000D01*
X125386735Y-100050000D01*
X125164557Y-100094194D01*
X124955271Y-100180884D01*
X124766918Y-100306737D01*
X124606737Y-100466918D01*
X124480884Y-100655271D01*
X124394194Y-100864557D01*
X124350000Y-101086735D01*
X124110000Y-101086735D01*
X124065806Y-100864557D01*
X123979116Y-100655271D01*
X123853263Y-100466918D01*
X123693082Y-100306737D01*
X123504729Y-100180884D01*
X123295443Y-100094194D01*
X123073265Y-100050000D01*
X122846735Y-100050000D01*
X122624557Y-100094194D01*
X122415271Y-100180884D01*
X122226918Y-100306737D01*
X122066737Y-100466918D01*
X121940884Y-100655271D01*
X121854194Y-100864557D01*
X121810000Y-101086735D01*
X119925000Y-101086735D01*
X119925000Y-99850000D01*
X155098548Y-99850000D01*
X155104340Y-99908810D01*
X155121495Y-99965361D01*
X155149352Y-100017478D01*
X155186841Y-100063159D01*
X155232522Y-100100648D01*
X155284639Y-100128505D01*
X155341190Y-100145660D01*
X155400000Y-100151452D01*
X157400000Y-100150000D01*
X157475000Y-100075000D01*
X157475000Y-99200000D01*
X155175000Y-99200000D01*
X155100000Y-99275000D01*
X155098548Y-99850000D01*
X119925000Y-99850000D01*
X119925000Y-98864549D01*
X121828338Y-98864549D01*
X121836203Y-98904091D01*
X121905416Y-99118643D01*
X122015156Y-99315569D01*
X122161206Y-99487302D01*
X122337953Y-99627243D01*
X122538605Y-99730013D01*
X122755451Y-99791663D01*
X122935000Y-99734729D01*
X122935000Y-98685000D01*
X122985000Y-98685000D01*
X122985000Y-99734729D01*
X123164549Y-99791663D01*
X123381395Y-99730013D01*
X123582047Y-99627243D01*
X123758794Y-99487302D01*
X123904844Y-99315569D01*
X124014584Y-99118643D01*
X124083797Y-98904091D01*
X124091662Y-98864549D01*
X124034709Y-98685000D01*
X122985000Y-98685000D01*
X122935000Y-98685000D01*
X121885291Y-98685000D01*
X121828338Y-98864549D01*
X119925000Y-98864549D01*
X119925000Y-98455451D01*
X121828338Y-98455451D01*
X121885291Y-98635000D01*
X122935000Y-98635000D01*
X122935000Y-97585271D01*
X122985000Y-97585271D01*
X122985000Y-98635000D01*
X124034709Y-98635000D01*
X124062706Y-98546735D01*
X124350000Y-98546735D01*
X124350000Y-98773265D01*
X124394194Y-98995443D01*
X124480884Y-99204729D01*
X124606737Y-99393082D01*
X124766918Y-99553263D01*
X124955271Y-99679116D01*
X125164557Y-99765806D01*
X125386735Y-99810000D01*
X125613265Y-99810000D01*
X125835443Y-99765806D01*
X126044729Y-99679116D01*
X126233082Y-99553263D01*
X126393263Y-99393082D01*
X126519116Y-99204729D01*
X126605806Y-98995443D01*
X126650000Y-98773265D01*
X126650000Y-98546735D01*
X126640704Y-98500000D01*
X155098548Y-98500000D01*
X155100000Y-99075000D01*
X155175000Y-99150000D01*
X157475000Y-99150000D01*
X157475000Y-98275000D01*
X157400000Y-98200000D01*
X155400000Y-98198548D01*
X155341190Y-98204340D01*
X155284639Y-98221495D01*
X155232522Y-98249352D01*
X155186841Y-98286841D01*
X155149352Y-98332522D01*
X155121495Y-98384639D01*
X155104340Y-98441190D01*
X155098548Y-98500000D01*
X126640704Y-98500000D01*
X126605806Y-98324557D01*
X126519116Y-98115271D01*
X126393263Y-97926918D01*
X126233082Y-97766737D01*
X126044729Y-97640884D01*
X125835443Y-97554194D01*
X125613265Y-97510000D01*
X125386735Y-97510000D01*
X125164557Y-97554194D01*
X124955271Y-97640884D01*
X124766918Y-97766737D01*
X124606737Y-97926918D01*
X124480884Y-98115271D01*
X124394194Y-98324557D01*
X124350000Y-98546735D01*
X124062706Y-98546735D01*
X124091662Y-98455451D01*
X124083797Y-98415909D01*
X124014584Y-98201357D01*
X123904844Y-98004431D01*
X123758794Y-97832698D01*
X123582047Y-97692757D01*
X123381395Y-97589987D01*
X123164549Y-97528337D01*
X122985000Y-97585271D01*
X122935000Y-97585271D01*
X122755451Y-97528337D01*
X122538605Y-97589987D01*
X122337953Y-97692757D01*
X122161206Y-97832698D01*
X122015156Y-98004431D01*
X121905416Y-98201357D01*
X121836203Y-98415909D01*
X121828338Y-98455451D01*
X119925000Y-98455451D01*
X119925000Y-93015897D01*
X119939384Y-92869195D01*
X119977373Y-92743371D01*
X120039076Y-92627325D01*
X120122148Y-92525468D01*
X120223418Y-92441690D01*
X120339027Y-92379181D01*
X120464586Y-92340314D01*
X120610285Y-92325000D01*
X158584103Y-92325000D01*
X158730805Y-92339384D01*
G37*
X158730805Y-92339384D02*
X158856629Y-92377373D01*
X158972675Y-92439076D01*
X159074532Y-92522148D01*
X159158310Y-92623418D01*
X159220819Y-92739027D01*
X159259686Y-92864586D01*
X159275001Y-93010295D01*
X159275000Y-98198784D01*
X157600000Y-98200000D01*
X157525000Y-98275000D01*
X157525000Y-99150000D01*
X157545000Y-99150000D01*
X157545000Y-99200000D01*
X157525000Y-99200000D01*
X157525000Y-100075000D01*
X157600000Y-100150000D01*
X159275000Y-100151216D01*
X159275000Y-103848784D01*
X157600000Y-103850000D01*
X157525000Y-103925000D01*
X157525000Y-104800000D01*
X157545000Y-104800000D01*
X157545000Y-104850000D01*
X157525000Y-104850000D01*
X157525000Y-105725000D01*
X157600000Y-105800000D01*
X159275000Y-105801216D01*
X159275001Y-110984094D01*
X159260616Y-111130805D01*
X159222627Y-111256629D01*
X159160924Y-111372675D01*
X159077853Y-111474531D01*
X158976586Y-111558307D01*
X158860973Y-111620819D01*
X158735410Y-111659687D01*
X158589716Y-111675000D01*
X120615896Y-111675000D01*
X120469195Y-111660616D01*
X120343371Y-111622627D01*
X120227325Y-111560924D01*
X120125469Y-111477853D01*
X120041693Y-111376586D01*
X119979181Y-111260973D01*
X119940313Y-111135410D01*
X119925000Y-110989716D01*
X119925000Y-106166735D01*
X121810000Y-106166735D01*
X121810000Y-106393265D01*
X121854194Y-106615443D01*
X121940884Y-106824729D01*
X122066737Y-107013082D01*
X122226918Y-107173263D01*
X122415271Y-107299116D01*
X122624557Y-107385806D01*
X122846735Y-107430000D01*
X123073265Y-107430000D01*
X123295443Y-107385806D01*
X123504729Y-107299116D01*
X123693082Y-107173263D01*
X123853263Y-107013082D01*
X123979116Y-106824729D01*
X124065806Y-106615443D01*
X124110000Y-106393265D01*
X124110000Y-106166735D01*
X124065806Y-105944557D01*
X123979116Y-105735271D01*
X123853263Y-105546918D01*
X123736345Y-105430000D01*
X124348549Y-105430000D01*
X124348549Y-107130000D01*
X124354341Y-107188810D01*
X124371496Y-107245360D01*
X124399353Y-107297477D01*
X124436842Y-107343158D01*
X124482523Y-107380647D01*
X124534640Y-107408504D01*
X124591190Y-107425659D01*
X124650000Y-107431451D01*
X126350000Y-107431451D01*
X126408810Y-107425659D01*
X126465360Y-107408504D01*
X126517477Y-107380647D01*
X126563158Y-107343158D01*
X126600647Y-107297477D01*
X126628504Y-107245360D01*
X126645659Y-107188810D01*
X126651451Y-107130000D01*
X126651451Y-105500000D01*
X155098548Y-105500000D01*
X155104340Y-105558810D01*
X155121495Y-105615361D01*
X155149352Y-105667478D01*
X155186841Y-105713159D01*
X155232522Y-105750648D01*
X155284639Y-105778505D01*
X155341190Y-105795660D01*
X155400000Y-105801452D01*
X157400000Y-105800000D01*
X157475000Y-105725000D01*
X157475000Y-104850000D01*
X155175000Y-104850000D01*
X155100000Y-104925000D01*
X155098548Y-105500000D01*
X126651451Y-105500000D01*
X126651451Y-105430000D01*
X126645659Y-105371190D01*
X126628504Y-105314640D01*
X126600647Y-105262523D01*
X126563158Y-105216842D01*
X126517477Y-105179353D01*
X126465360Y-105151496D01*
X126408810Y-105134341D01*
X126350000Y-105128549D01*
X124650000Y-105128549D01*
X124591190Y-105134341D01*
X124534640Y-105151496D01*
X124482523Y-105179353D01*
X124436842Y-105216842D01*
X124399353Y-105262523D01*
X124371496Y-105314640D01*
X124354341Y-105371190D01*
X124348549Y-105430000D01*
X123736345Y-105430000D01*
X123693082Y-105386737D01*
X123504729Y-105260884D01*
X123295443Y-105174194D01*
X123073265Y-105130000D01*
X122846735Y-105130000D01*
X122624557Y-105174194D01*
X122415271Y-105260884D01*
X122226918Y-105386737D01*
X122066737Y-105546918D01*
X121940884Y-105735271D01*
X121854194Y-105944557D01*
X121810000Y-106166735D01*
X119925000Y-106166735D01*
X119925000Y-103626735D01*
X121810000Y-103626735D01*
X121810000Y-103853265D01*
X121854194Y-104075443D01*
X121940884Y-104284729D01*
X122066737Y-104473082D01*
X122226918Y-104633263D01*
X122415271Y-104759116D01*
X122624557Y-104845806D01*
X122846735Y-104890000D01*
X123073265Y-104890000D01*
X123295443Y-104845806D01*
X123504729Y-104759116D01*
X123693082Y-104633263D01*
X123853263Y-104473082D01*
X123979116Y-104284729D01*
X124065806Y-104075443D01*
X124110000Y-103853265D01*
X124110000Y-103626735D01*
X124350000Y-103626735D01*
X124350000Y-103853265D01*
X124394194Y-104075443D01*
X124480884Y-104284729D01*
X124606737Y-104473082D01*
X124766918Y-104633263D01*
X124955271Y-104759116D01*
X125164557Y-104845806D01*
X125386735Y-104890000D01*
X125613265Y-104890000D01*
X125835443Y-104845806D01*
X126044729Y-104759116D01*
X126233082Y-104633263D01*
X126393263Y-104473082D01*
X126519116Y-104284729D01*
X126574923Y-104150000D01*
X155098548Y-104150000D01*
X155100000Y-104725000D01*
X155175000Y-104800000D01*
X157475000Y-104800000D01*
X157475000Y-103925000D01*
X157400000Y-103850000D01*
X155400000Y-103848548D01*
X155341190Y-103854340D01*
X155284639Y-103871495D01*
X155232522Y-103899352D01*
X155186841Y-103936841D01*
X155149352Y-103982522D01*
X155121495Y-104034639D01*
X155104340Y-104091190D01*
X155098548Y-104150000D01*
X126574923Y-104150000D01*
X126605806Y-104075443D01*
X126650000Y-103853265D01*
X126650000Y-103626735D01*
X126605806Y-103404557D01*
X126519116Y-103195271D01*
X126393263Y-103006918D01*
X126233082Y-102846737D01*
X126044729Y-102720884D01*
X125835443Y-102634194D01*
X125613265Y-102590000D01*
X125386735Y-102590000D01*
X125164557Y-102634194D01*
X124955271Y-102720884D01*
X124766918Y-102846737D01*
X124606737Y-103006918D01*
X124480884Y-103195271D01*
X124394194Y-103404557D01*
X124350000Y-103626735D01*
X124110000Y-103626735D01*
X124065806Y-103404557D01*
X123979116Y-103195271D01*
X123853263Y-103006918D01*
X123693082Y-102846737D01*
X123504729Y-102720884D01*
X123295443Y-102634194D01*
X123073265Y-102590000D01*
X122846735Y-102590000D01*
X122624557Y-102634194D01*
X122415271Y-102720884D01*
X122226918Y-102846737D01*
X122066737Y-103006918D01*
X121940884Y-103195271D01*
X121854194Y-103404557D01*
X121810000Y-103626735D01*
X119925000Y-103626735D01*
X119925000Y-101086735D01*
X121810000Y-101086735D01*
X121810000Y-101313265D01*
X121854194Y-101535443D01*
X121940884Y-101744729D01*
X122066737Y-101933082D01*
X122226918Y-102093263D01*
X122415271Y-102219116D01*
X122624557Y-102305806D01*
X122846735Y-102350000D01*
X123073265Y-102350000D01*
X123295443Y-102305806D01*
X123504729Y-102219116D01*
X123693082Y-102093263D01*
X123853263Y-101933082D01*
X123979116Y-101744729D01*
X124065806Y-101535443D01*
X124110000Y-101313265D01*
X124110000Y-101086735D01*
X124350000Y-101086735D01*
X124350000Y-101313265D01*
X124394194Y-101535443D01*
X124480884Y-101744729D01*
X124606737Y-101933082D01*
X124766918Y-102093263D01*
X124955271Y-102219116D01*
X125164557Y-102305806D01*
X125386735Y-102350000D01*
X125613265Y-102350000D01*
X125835443Y-102305806D01*
X126044729Y-102219116D01*
X126233082Y-102093263D01*
X126393263Y-101933082D01*
X126519116Y-101744729D01*
X126605806Y-101535443D01*
X126650000Y-101313265D01*
X126650000Y-101086735D01*
X126605806Y-100864557D01*
X126519116Y-100655271D01*
X126393263Y-100466918D01*
X126233082Y-100306737D01*
X126044729Y-100180884D01*
X125835443Y-100094194D01*
X125613265Y-100050000D01*
X125386735Y-100050000D01*
X125164557Y-100094194D01*
X124955271Y-100180884D01*
X124766918Y-100306737D01*
X124606737Y-100466918D01*
X124480884Y-100655271D01*
X124394194Y-100864557D01*
X124350000Y-101086735D01*
X124110000Y-101086735D01*
X124065806Y-100864557D01*
X123979116Y-100655271D01*
X123853263Y-100466918D01*
X123693082Y-100306737D01*
X123504729Y-100180884D01*
X123295443Y-100094194D01*
X123073265Y-100050000D01*
X122846735Y-100050000D01*
X122624557Y-100094194D01*
X122415271Y-100180884D01*
X122226918Y-100306737D01*
X122066737Y-100466918D01*
X121940884Y-100655271D01*
X121854194Y-100864557D01*
X121810000Y-101086735D01*
X119925000Y-101086735D01*
X119925000Y-99850000D01*
X155098548Y-99850000D01*
X155104340Y-99908810D01*
X155121495Y-99965361D01*
X155149352Y-100017478D01*
X155186841Y-100063159D01*
X155232522Y-100100648D01*
X155284639Y-100128505D01*
X155341190Y-100145660D01*
X155400000Y-100151452D01*
X157400000Y-100150000D01*
X157475000Y-100075000D01*
X157475000Y-99200000D01*
X155175000Y-99200000D01*
X155100000Y-99275000D01*
X155098548Y-99850000D01*
X119925000Y-99850000D01*
X119925000Y-98864549D01*
X121828338Y-98864549D01*
X121836203Y-98904091D01*
X121905416Y-99118643D01*
X122015156Y-99315569D01*
X122161206Y-99487302D01*
X122337953Y-99627243D01*
X122538605Y-99730013D01*
X122755451Y-99791663D01*
X122935000Y-99734729D01*
X122935000Y-98685000D01*
X122985000Y-98685000D01*
X122985000Y-99734729D01*
X123164549Y-99791663D01*
X123381395Y-99730013D01*
X123582047Y-99627243D01*
X123758794Y-99487302D01*
X123904844Y-99315569D01*
X124014584Y-99118643D01*
X124083797Y-98904091D01*
X124091662Y-98864549D01*
X124034709Y-98685000D01*
X122985000Y-98685000D01*
X122935000Y-98685000D01*
X121885291Y-98685000D01*
X121828338Y-98864549D01*
X119925000Y-98864549D01*
X119925000Y-98455451D01*
X121828338Y-98455451D01*
X121885291Y-98635000D01*
X122935000Y-98635000D01*
X122935000Y-97585271D01*
X122985000Y-97585271D01*
X122985000Y-98635000D01*
X124034709Y-98635000D01*
X124062706Y-98546735D01*
X124350000Y-98546735D01*
X124350000Y-98773265D01*
X124394194Y-98995443D01*
X124480884Y-99204729D01*
X124606737Y-99393082D01*
X124766918Y-99553263D01*
X124955271Y-99679116D01*
X125164557Y-99765806D01*
X125386735Y-99810000D01*
X125613265Y-99810000D01*
X125835443Y-99765806D01*
X126044729Y-99679116D01*
X126233082Y-99553263D01*
X126393263Y-99393082D01*
X126519116Y-99204729D01*
X126605806Y-98995443D01*
X126650000Y-98773265D01*
X126650000Y-98546735D01*
X126640704Y-98500000D01*
X155098548Y-98500000D01*
X155100000Y-99075000D01*
X155175000Y-99150000D01*
X157475000Y-99150000D01*
X157475000Y-98275000D01*
X157400000Y-98200000D01*
X155400000Y-98198548D01*
X155341190Y-98204340D01*
X155284639Y-98221495D01*
X155232522Y-98249352D01*
X155186841Y-98286841D01*
X155149352Y-98332522D01*
X155121495Y-98384639D01*
X155104340Y-98441190D01*
X155098548Y-98500000D01*
X126640704Y-98500000D01*
X126605806Y-98324557D01*
X126519116Y-98115271D01*
X126393263Y-97926918D01*
X126233082Y-97766737D01*
X126044729Y-97640884D01*
X125835443Y-97554194D01*
X125613265Y-97510000D01*
X125386735Y-97510000D01*
X125164557Y-97554194D01*
X124955271Y-97640884D01*
X124766918Y-97766737D01*
X124606737Y-97926918D01*
X124480884Y-98115271D01*
X124394194Y-98324557D01*
X124350000Y-98546735D01*
X124062706Y-98546735D01*
X124091662Y-98455451D01*
X124083797Y-98415909D01*
X124014584Y-98201357D01*
X123904844Y-98004431D01*
X123758794Y-97832698D01*
X123582047Y-97692757D01*
X123381395Y-97589987D01*
X123164549Y-97528337D01*
X122985000Y-97585271D01*
X122935000Y-97585271D01*
X122755451Y-97528337D01*
X122538605Y-97589987D01*
X122337953Y-97692757D01*
X122161206Y-97832698D01*
X122015156Y-98004431D01*
X121905416Y-98201357D01*
X121836203Y-98415909D01*
X121828338Y-98455451D01*
X119925000Y-98455451D01*
X119925000Y-93015897D01*
X119939384Y-92869195D01*
X119977373Y-92743371D01*
X120039076Y-92627325D01*
X120122148Y-92525468D01*
X120223418Y-92441690D01*
X120339027Y-92379181D01*
X120464586Y-92340314D01*
X120610285Y-92325000D01*
X158584103Y-92325000D01*
X158730805Y-92339384D01*
%TD*%
M02*
