%TF.GenerationSoftware,KiCad,Pcbnew,(5.1.6)-1*%
%TF.CreationDate,2020-08-19T15:04:17+02:00*%
%TF.ProjectId,nRF24module,6e524632-346d-46f6-9475-6c652e6b6963,1*%
%TF.SameCoordinates,Original*%
%TF.FileFunction,Legend,Bot*%
%TF.FilePolarity,Positive*%
%FSLAX46Y46*%
G04 Gerber Fmt 4.6, Leading zero omitted, Abs format (unit mm)*
G04 Created by KiCad (PCBNEW (5.1.6)-1) date 2020-08-19 15:04:17*
%MOMM*%
%LPD*%
G01*
G04 APERTURE LIST*
%ADD10C,0.200000*%
%ADD11C,0.250000*%
G04 APERTURE END LIST*
D10*
X127290476Y-96452380D02*
X126671428Y-96452380D01*
X127004761Y-96833333D01*
X126861904Y-96833333D01*
X126766666Y-96880952D01*
X126719047Y-96928571D01*
X126671428Y-97023809D01*
X126671428Y-97261904D01*
X126719047Y-97357142D01*
X126766666Y-97404761D01*
X126861904Y-97452380D01*
X127147619Y-97452380D01*
X127242857Y-97404761D01*
X127290476Y-97357142D01*
X126338095Y-96785714D02*
X126100000Y-97452380D01*
X125861904Y-96785714D01*
X125576190Y-96452380D02*
X124957142Y-96452380D01*
X125290476Y-96833333D01*
X125147619Y-96833333D01*
X125052380Y-96880952D01*
X125004761Y-96928571D01*
X124957142Y-97023809D01*
X124957142Y-97261904D01*
X125004761Y-97357142D01*
X125052380Y-97404761D01*
X125147619Y-97452380D01*
X125433333Y-97452380D01*
X125528571Y-97404761D01*
X125576190Y-97357142D01*
D11*
X123461904Y-96500000D02*
X123557142Y-96452380D01*
X123700000Y-96452380D01*
X123842857Y-96500000D01*
X123938095Y-96595238D01*
X123985714Y-96690476D01*
X124033333Y-96880952D01*
X124033333Y-97023809D01*
X123985714Y-97214285D01*
X123938095Y-97309523D01*
X123842857Y-97404761D01*
X123700000Y-97452380D01*
X123604761Y-97452380D01*
X123461904Y-97404761D01*
X123414285Y-97357142D01*
X123414285Y-97023809D01*
X123604761Y-97023809D01*
X122985714Y-97452380D02*
X122985714Y-96452380D01*
X122414285Y-97452380D01*
X122414285Y-96452380D01*
X121938095Y-97452380D02*
X121938095Y-96452380D01*
X121700000Y-96452380D01*
X121557142Y-96500000D01*
X121461904Y-96595238D01*
X121414285Y-96690476D01*
X121366666Y-96880952D01*
X121366666Y-97023809D01*
X121414285Y-97214285D01*
X121461904Y-97309523D01*
X121557142Y-97404761D01*
X121700000Y-97452380D01*
X121938095Y-97452380D01*
D10*
X154619047Y-109852380D02*
X154619047Y-110566666D01*
X154666666Y-110709523D01*
X154761904Y-110804761D01*
X154904761Y-110852380D01*
X155000000Y-110852380D01*
X153666666Y-110852380D02*
X154142857Y-110852380D01*
X154142857Y-109852380D01*
X152761904Y-110757142D02*
X152809523Y-110804761D01*
X152952380Y-110852380D01*
X153047619Y-110852380D01*
X153190476Y-110804761D01*
X153285714Y-110709523D01*
X153333333Y-110614285D01*
X153380952Y-110423809D01*
X153380952Y-110280952D01*
X153333333Y-110090476D01*
X153285714Y-109995238D01*
X153190476Y-109900000D01*
X153047619Y-109852380D01*
X152952380Y-109852380D01*
X152809523Y-109900000D01*
X152761904Y-109947619D01*
X152047619Y-109852380D02*
X152047619Y-110566666D01*
X152095238Y-110709523D01*
X152190476Y-110804761D01*
X152333333Y-110852380D01*
X152428571Y-110852380D01*
X151095238Y-110852380D02*
X151571428Y-110852380D01*
X151571428Y-109852380D01*
X150190476Y-110757142D02*
X150238095Y-110804761D01*
X150380952Y-110852380D01*
X150476190Y-110852380D01*
X150619047Y-110804761D01*
X150714285Y-110709523D01*
X150761904Y-110614285D01*
X150809523Y-110423809D01*
X150809523Y-110280952D01*
X150761904Y-110090476D01*
X150714285Y-109995238D01*
X150619047Y-109900000D01*
X150476190Y-109852380D01*
X150380952Y-109852380D01*
X150238095Y-109900000D01*
X150190476Y-109947619D01*
X149476190Y-109852380D02*
X149476190Y-110566666D01*
X149523809Y-110709523D01*
X149619047Y-110804761D01*
X149761904Y-110852380D01*
X149857142Y-110852380D01*
X148523809Y-110852380D02*
X149000000Y-110852380D01*
X149000000Y-109852380D01*
X147619047Y-110757142D02*
X147666666Y-110804761D01*
X147809523Y-110852380D01*
X147904761Y-110852380D01*
X148047619Y-110804761D01*
X148142857Y-110709523D01*
X148190476Y-110614285D01*
X148238095Y-110423809D01*
X148238095Y-110280952D01*
X148190476Y-110090476D01*
X148142857Y-109995238D01*
X148047619Y-109900000D01*
X147904761Y-109852380D01*
X147809523Y-109852380D01*
X147666666Y-109900000D01*
X147619047Y-109947619D01*
X146904761Y-109852380D02*
X146904761Y-110566666D01*
X146952380Y-110709523D01*
X147047619Y-110804761D01*
X147190476Y-110852380D01*
X147285714Y-110852380D01*
X145952380Y-110852380D02*
X146428571Y-110852380D01*
X146428571Y-109852380D01*
X145047619Y-110757142D02*
X145095238Y-110804761D01*
X145238095Y-110852380D01*
X145333333Y-110852380D01*
X145476190Y-110804761D01*
X145571428Y-110709523D01*
X145619047Y-110614285D01*
X145666666Y-110423809D01*
X145666666Y-110280952D01*
X145619047Y-110090476D01*
X145571428Y-109995238D01*
X145476190Y-109900000D01*
X145333333Y-109852380D01*
X145238095Y-109852380D01*
X145095238Y-109900000D01*
X145047619Y-109947619D01*
M02*
