%TF.GenerationSoftware,KiCad,Pcbnew,(5.1.6)-1*%
%TF.CreationDate,2020-08-19T15:04:17+02:00*%
%TF.ProjectId,nRF24module,6e524632-346d-46f6-9475-6c652e6b6963,1*%
%TF.SameCoordinates,Original*%
%TF.FileFunction,Paste,Top*%
%TF.FilePolarity,Positive*%
%FSLAX46Y46*%
G04 Gerber Fmt 4.6, Leading zero omitted, Abs format (unit mm)*
G04 Created by KiCad (PCBNEW (5.1.6)-1) date 2020-08-19 15:04:17*
%MOMM*%
%LPD*%
G01*
G04 APERTURE LIST*
%ADD10R,1.750000X1.750000*%
%ADD11R,0.300000X0.800000*%
%ADD12R,0.800000X0.300000*%
%ADD13R,1.400000X1.200000*%
%ADD14R,3.600000X1.270000*%
%ADD15R,4.200000X1.350000*%
G04 APERTURE END LIST*
%TO.C,R5*%
G36*
G01*
X142925000Y-106672500D02*
X142925000Y-106327500D01*
G75*
G02*
X143072500Y-106180000I147500J0D01*
G01*
X143367500Y-106180000D01*
G75*
G02*
X143515000Y-106327500I0J-147500D01*
G01*
X143515000Y-106672500D01*
G75*
G02*
X143367500Y-106820000I-147500J0D01*
G01*
X143072500Y-106820000D01*
G75*
G02*
X142925000Y-106672500I0J147500D01*
G01*
G37*
G36*
G01*
X141955000Y-106672500D02*
X141955000Y-106327500D01*
G75*
G02*
X142102500Y-106180000I147500J0D01*
G01*
X142397500Y-106180000D01*
G75*
G02*
X142545000Y-106327500I0J-147500D01*
G01*
X142545000Y-106672500D01*
G75*
G02*
X142397500Y-106820000I-147500J0D01*
G01*
X142102500Y-106820000D01*
G75*
G02*
X141955000Y-106672500I0J147500D01*
G01*
G37*
%TD*%
%TO.C,U1*%
G36*
G01*
X129875000Y-100812500D02*
X129875000Y-100112500D01*
G75*
G02*
X129937500Y-100050000I62500J0D01*
G01*
X130062500Y-100050000D01*
G75*
G02*
X130125000Y-100112500I0J-62500D01*
G01*
X130125000Y-100812500D01*
G75*
G02*
X130062500Y-100875000I-62500J0D01*
G01*
X129937500Y-100875000D01*
G75*
G02*
X129875000Y-100812500I0J62500D01*
G01*
G37*
G36*
G01*
X130375000Y-100812500D02*
X130375000Y-100112500D01*
G75*
G02*
X130437500Y-100050000I62500J0D01*
G01*
X130562500Y-100050000D01*
G75*
G02*
X130625000Y-100112500I0J-62500D01*
G01*
X130625000Y-100812500D01*
G75*
G02*
X130562500Y-100875000I-62500J0D01*
G01*
X130437500Y-100875000D01*
G75*
G02*
X130375000Y-100812500I0J62500D01*
G01*
G37*
G36*
G01*
X130875000Y-100812500D02*
X130875000Y-100112500D01*
G75*
G02*
X130937500Y-100050000I62500J0D01*
G01*
X131062500Y-100050000D01*
G75*
G02*
X131125000Y-100112500I0J-62500D01*
G01*
X131125000Y-100812500D01*
G75*
G02*
X131062500Y-100875000I-62500J0D01*
G01*
X130937500Y-100875000D01*
G75*
G02*
X130875000Y-100812500I0J62500D01*
G01*
G37*
G36*
G01*
X131375000Y-100812500D02*
X131375000Y-100112500D01*
G75*
G02*
X131437500Y-100050000I62500J0D01*
G01*
X131562500Y-100050000D01*
G75*
G02*
X131625000Y-100112500I0J-62500D01*
G01*
X131625000Y-100812500D01*
G75*
G02*
X131562500Y-100875000I-62500J0D01*
G01*
X131437500Y-100875000D01*
G75*
G02*
X131375000Y-100812500I0J62500D01*
G01*
G37*
G36*
G01*
X131875000Y-100812500D02*
X131875000Y-100112500D01*
G75*
G02*
X131937500Y-100050000I62500J0D01*
G01*
X132062500Y-100050000D01*
G75*
G02*
X132125000Y-100112500I0J-62500D01*
G01*
X132125000Y-100812500D01*
G75*
G02*
X132062500Y-100875000I-62500J0D01*
G01*
X131937500Y-100875000D01*
G75*
G02*
X131875000Y-100812500I0J62500D01*
G01*
G37*
G36*
G01*
X132525000Y-101462500D02*
X132525000Y-101337500D01*
G75*
G02*
X132587500Y-101275000I62500J0D01*
G01*
X133287500Y-101275000D01*
G75*
G02*
X133350000Y-101337500I0J-62500D01*
G01*
X133350000Y-101462500D01*
G75*
G02*
X133287500Y-101525000I-62500J0D01*
G01*
X132587500Y-101525000D01*
G75*
G02*
X132525000Y-101462500I0J62500D01*
G01*
G37*
G36*
G01*
X132525000Y-101962500D02*
X132525000Y-101837500D01*
G75*
G02*
X132587500Y-101775000I62500J0D01*
G01*
X133287500Y-101775000D01*
G75*
G02*
X133350000Y-101837500I0J-62500D01*
G01*
X133350000Y-101962500D01*
G75*
G02*
X133287500Y-102025000I-62500J0D01*
G01*
X132587500Y-102025000D01*
G75*
G02*
X132525000Y-101962500I0J62500D01*
G01*
G37*
G36*
G01*
X132525000Y-102462500D02*
X132525000Y-102337500D01*
G75*
G02*
X132587500Y-102275000I62500J0D01*
G01*
X133287500Y-102275000D01*
G75*
G02*
X133350000Y-102337500I0J-62500D01*
G01*
X133350000Y-102462500D01*
G75*
G02*
X133287500Y-102525000I-62500J0D01*
G01*
X132587500Y-102525000D01*
G75*
G02*
X132525000Y-102462500I0J62500D01*
G01*
G37*
G36*
G01*
X132525000Y-102962500D02*
X132525000Y-102837500D01*
G75*
G02*
X132587500Y-102775000I62500J0D01*
G01*
X133287500Y-102775000D01*
G75*
G02*
X133350000Y-102837500I0J-62500D01*
G01*
X133350000Y-102962500D01*
G75*
G02*
X133287500Y-103025000I-62500J0D01*
G01*
X132587500Y-103025000D01*
G75*
G02*
X132525000Y-102962500I0J62500D01*
G01*
G37*
G36*
G01*
X132525000Y-103462500D02*
X132525000Y-103337500D01*
G75*
G02*
X132587500Y-103275000I62500J0D01*
G01*
X133287500Y-103275000D01*
G75*
G02*
X133350000Y-103337500I0J-62500D01*
G01*
X133350000Y-103462500D01*
G75*
G02*
X133287500Y-103525000I-62500J0D01*
G01*
X132587500Y-103525000D01*
G75*
G02*
X132525000Y-103462500I0J62500D01*
G01*
G37*
G36*
G01*
X131875000Y-104687500D02*
X131875000Y-103987500D01*
G75*
G02*
X131937500Y-103925000I62500J0D01*
G01*
X132062500Y-103925000D01*
G75*
G02*
X132125000Y-103987500I0J-62500D01*
G01*
X132125000Y-104687500D01*
G75*
G02*
X132062500Y-104750000I-62500J0D01*
G01*
X131937500Y-104750000D01*
G75*
G02*
X131875000Y-104687500I0J62500D01*
G01*
G37*
G36*
G01*
X131375000Y-104687500D02*
X131375000Y-103987500D01*
G75*
G02*
X131437500Y-103925000I62500J0D01*
G01*
X131562500Y-103925000D01*
G75*
G02*
X131625000Y-103987500I0J-62500D01*
G01*
X131625000Y-104687500D01*
G75*
G02*
X131562500Y-104750000I-62500J0D01*
G01*
X131437500Y-104750000D01*
G75*
G02*
X131375000Y-104687500I0J62500D01*
G01*
G37*
G36*
G01*
X130875000Y-104687500D02*
X130875000Y-103987500D01*
G75*
G02*
X130937500Y-103925000I62500J0D01*
G01*
X131062500Y-103925000D01*
G75*
G02*
X131125000Y-103987500I0J-62500D01*
G01*
X131125000Y-104687500D01*
G75*
G02*
X131062500Y-104750000I-62500J0D01*
G01*
X130937500Y-104750000D01*
G75*
G02*
X130875000Y-104687500I0J62500D01*
G01*
G37*
G36*
G01*
X130375000Y-104687500D02*
X130375000Y-103987500D01*
G75*
G02*
X130437500Y-103925000I62500J0D01*
G01*
X130562500Y-103925000D01*
G75*
G02*
X130625000Y-103987500I0J-62500D01*
G01*
X130625000Y-104687500D01*
G75*
G02*
X130562500Y-104750000I-62500J0D01*
G01*
X130437500Y-104750000D01*
G75*
G02*
X130375000Y-104687500I0J62500D01*
G01*
G37*
G36*
G01*
X129875000Y-104687500D02*
X129875000Y-103987500D01*
G75*
G02*
X129937500Y-103925000I62500J0D01*
G01*
X130062500Y-103925000D01*
G75*
G02*
X130125000Y-103987500I0J-62500D01*
G01*
X130125000Y-104687500D01*
G75*
G02*
X130062500Y-104750000I-62500J0D01*
G01*
X129937500Y-104750000D01*
G75*
G02*
X129875000Y-104687500I0J62500D01*
G01*
G37*
G36*
G01*
X128650000Y-103462500D02*
X128650000Y-103337500D01*
G75*
G02*
X128712500Y-103275000I62500J0D01*
G01*
X129412500Y-103275000D01*
G75*
G02*
X129475000Y-103337500I0J-62500D01*
G01*
X129475000Y-103462500D01*
G75*
G02*
X129412500Y-103525000I-62500J0D01*
G01*
X128712500Y-103525000D01*
G75*
G02*
X128650000Y-103462500I0J62500D01*
G01*
G37*
G36*
G01*
X128650000Y-102962500D02*
X128650000Y-102837500D01*
G75*
G02*
X128712500Y-102775000I62500J0D01*
G01*
X129412500Y-102775000D01*
G75*
G02*
X129475000Y-102837500I0J-62500D01*
G01*
X129475000Y-102962500D01*
G75*
G02*
X129412500Y-103025000I-62500J0D01*
G01*
X128712500Y-103025000D01*
G75*
G02*
X128650000Y-102962500I0J62500D01*
G01*
G37*
G36*
G01*
X128650000Y-102462500D02*
X128650000Y-102337500D01*
G75*
G02*
X128712500Y-102275000I62500J0D01*
G01*
X129412500Y-102275000D01*
G75*
G02*
X129475000Y-102337500I0J-62500D01*
G01*
X129475000Y-102462500D01*
G75*
G02*
X129412500Y-102525000I-62500J0D01*
G01*
X128712500Y-102525000D01*
G75*
G02*
X128650000Y-102462500I0J62500D01*
G01*
G37*
G36*
G01*
X128650000Y-101962500D02*
X128650000Y-101837500D01*
G75*
G02*
X128712500Y-101775000I62500J0D01*
G01*
X129412500Y-101775000D01*
G75*
G02*
X129475000Y-101837500I0J-62500D01*
G01*
X129475000Y-101962500D01*
G75*
G02*
X129412500Y-102025000I-62500J0D01*
G01*
X128712500Y-102025000D01*
G75*
G02*
X128650000Y-101962500I0J62500D01*
G01*
G37*
G36*
G01*
X128650000Y-101462500D02*
X128650000Y-101337500D01*
G75*
G02*
X128712500Y-101275000I62500J0D01*
G01*
X129412500Y-101275000D01*
G75*
G02*
X129475000Y-101337500I0J-62500D01*
G01*
X129475000Y-101462500D01*
G75*
G02*
X129412500Y-101525000I-62500J0D01*
G01*
X128712500Y-101525000D01*
G75*
G02*
X128650000Y-101462500I0J62500D01*
G01*
G37*
%TD*%
D10*
%TO.C,U2*%
X142200000Y-101700000D03*
D11*
X141450000Y-100200000D03*
X141950000Y-100200000D03*
X142450000Y-100200000D03*
X142950000Y-100200000D03*
D12*
X143700000Y-100950000D03*
X143700000Y-101450000D03*
X143700000Y-101950000D03*
X143700000Y-102450000D03*
D11*
X142950000Y-103200000D03*
X142450000Y-103200000D03*
X141950000Y-103200000D03*
X141450000Y-103200000D03*
D12*
X140700000Y-102450000D03*
X140700000Y-101950000D03*
X140700000Y-101450000D03*
X140700000Y-100950000D03*
%TD*%
%TO.C,C11*%
G36*
G01*
X145556250Y-102437500D02*
X145043750Y-102437500D01*
G75*
G02*
X144825000Y-102218750I0J218750D01*
G01*
X144825000Y-101781250D01*
G75*
G02*
X145043750Y-101562500I218750J0D01*
G01*
X145556250Y-101562500D01*
G75*
G02*
X145775000Y-101781250I0J-218750D01*
G01*
X145775000Y-102218750D01*
G75*
G02*
X145556250Y-102437500I-218750J0D01*
G01*
G37*
G36*
G01*
X145556250Y-104012500D02*
X145043750Y-104012500D01*
G75*
G02*
X144825000Y-103793750I0J218750D01*
G01*
X144825000Y-103356250D01*
G75*
G02*
X145043750Y-103137500I218750J0D01*
G01*
X145556250Y-103137500D01*
G75*
G02*
X145775000Y-103356250I0J-218750D01*
G01*
X145775000Y-103793750D01*
G75*
G02*
X145556250Y-104012500I-218750J0D01*
G01*
G37*
%TD*%
D13*
%TO.C,X1*%
X130300000Y-106050000D03*
X132500000Y-106050000D03*
X132500000Y-107750000D03*
X130300000Y-107750000D03*
%TD*%
%TO.C,R4*%
G36*
G01*
X141072500Y-104795000D02*
X140727500Y-104795000D01*
G75*
G02*
X140580000Y-104647500I0J147500D01*
G01*
X140580000Y-104352500D01*
G75*
G02*
X140727500Y-104205000I147500J0D01*
G01*
X141072500Y-104205000D01*
G75*
G02*
X141220000Y-104352500I0J-147500D01*
G01*
X141220000Y-104647500D01*
G75*
G02*
X141072500Y-104795000I-147500J0D01*
G01*
G37*
G36*
G01*
X141072500Y-105765000D02*
X140727500Y-105765000D01*
G75*
G02*
X140580000Y-105617500I0J147500D01*
G01*
X140580000Y-105322500D01*
G75*
G02*
X140727500Y-105175000I147500J0D01*
G01*
X141072500Y-105175000D01*
G75*
G02*
X141220000Y-105322500I0J-147500D01*
G01*
X141220000Y-105617500D01*
G75*
G02*
X141072500Y-105765000I-147500J0D01*
G01*
G37*
%TD*%
%TO.C,R3*%
G36*
G01*
X142372500Y-104795000D02*
X142027500Y-104795000D01*
G75*
G02*
X141880000Y-104647500I0J147500D01*
G01*
X141880000Y-104352500D01*
G75*
G02*
X142027500Y-104205000I147500J0D01*
G01*
X142372500Y-104205000D01*
G75*
G02*
X142520000Y-104352500I0J-147500D01*
G01*
X142520000Y-104647500D01*
G75*
G02*
X142372500Y-104795000I-147500J0D01*
G01*
G37*
G36*
G01*
X142372500Y-105765000D02*
X142027500Y-105765000D01*
G75*
G02*
X141880000Y-105617500I0J147500D01*
G01*
X141880000Y-105322500D01*
G75*
G02*
X142027500Y-105175000I147500J0D01*
G01*
X142372500Y-105175000D01*
G75*
G02*
X142520000Y-105322500I0J-147500D01*
G01*
X142520000Y-105617500D01*
G75*
G02*
X142372500Y-105765000I-147500J0D01*
G01*
G37*
%TD*%
%TO.C,R2*%
G36*
G01*
X134072500Y-98425000D02*
X133727500Y-98425000D01*
G75*
G02*
X133580000Y-98277500I0J147500D01*
G01*
X133580000Y-97982500D01*
G75*
G02*
X133727500Y-97835000I147500J0D01*
G01*
X134072500Y-97835000D01*
G75*
G02*
X134220000Y-97982500I0J-147500D01*
G01*
X134220000Y-98277500D01*
G75*
G02*
X134072500Y-98425000I-147500J0D01*
G01*
G37*
G36*
G01*
X134072500Y-99395000D02*
X133727500Y-99395000D01*
G75*
G02*
X133580000Y-99247500I0J147500D01*
G01*
X133580000Y-98952500D01*
G75*
G02*
X133727500Y-98805000I147500J0D01*
G01*
X134072500Y-98805000D01*
G75*
G02*
X134220000Y-98952500I0J-147500D01*
G01*
X134220000Y-99247500D01*
G75*
G02*
X134072500Y-99395000I-147500J0D01*
G01*
G37*
%TD*%
%TO.C,L5*%
G36*
G01*
X152805000Y-102172500D02*
X152805000Y-101827500D01*
G75*
G02*
X152952500Y-101680000I147500J0D01*
G01*
X153247500Y-101680000D01*
G75*
G02*
X153395000Y-101827500I0J-147500D01*
G01*
X153395000Y-102172500D01*
G75*
G02*
X153247500Y-102320000I-147500J0D01*
G01*
X152952500Y-102320000D01*
G75*
G02*
X152805000Y-102172500I0J147500D01*
G01*
G37*
G36*
G01*
X151835000Y-102172500D02*
X151835000Y-101827500D01*
G75*
G02*
X151982500Y-101680000I147500J0D01*
G01*
X152277500Y-101680000D01*
G75*
G02*
X152425000Y-101827500I0J-147500D01*
G01*
X152425000Y-102172500D01*
G75*
G02*
X152277500Y-102320000I-147500J0D01*
G01*
X151982500Y-102320000D01*
G75*
G02*
X151835000Y-102172500I0J147500D01*
G01*
G37*
%TD*%
%TO.C,L4*%
G36*
G01*
X148505000Y-102172500D02*
X148505000Y-101827500D01*
G75*
G02*
X148652500Y-101680000I147500J0D01*
G01*
X148947500Y-101680000D01*
G75*
G02*
X149095000Y-101827500I0J-147500D01*
G01*
X149095000Y-102172500D01*
G75*
G02*
X148947500Y-102320000I-147500J0D01*
G01*
X148652500Y-102320000D01*
G75*
G02*
X148505000Y-102172500I0J147500D01*
G01*
G37*
G36*
G01*
X147535000Y-102172500D02*
X147535000Y-101827500D01*
G75*
G02*
X147682500Y-101680000I147500J0D01*
G01*
X147977500Y-101680000D01*
G75*
G02*
X148125000Y-101827500I0J-147500D01*
G01*
X148125000Y-102172500D01*
G75*
G02*
X147977500Y-102320000I-147500J0D01*
G01*
X147682500Y-102320000D01*
G75*
G02*
X147535000Y-102172500I0J147500D01*
G01*
G37*
%TD*%
%TO.C,L3*%
G36*
G01*
X136005000Y-102572500D02*
X136005000Y-102227500D01*
G75*
G02*
X136152500Y-102080000I147500J0D01*
G01*
X136447500Y-102080000D01*
G75*
G02*
X136595000Y-102227500I0J-147500D01*
G01*
X136595000Y-102572500D01*
G75*
G02*
X136447500Y-102720000I-147500J0D01*
G01*
X136152500Y-102720000D01*
G75*
G02*
X136005000Y-102572500I0J147500D01*
G01*
G37*
G36*
G01*
X135035000Y-102572500D02*
X135035000Y-102227500D01*
G75*
G02*
X135182500Y-102080000I147500J0D01*
G01*
X135477500Y-102080000D01*
G75*
G02*
X135625000Y-102227500I0J-147500D01*
G01*
X135625000Y-102572500D01*
G75*
G02*
X135477500Y-102720000I-147500J0D01*
G01*
X135182500Y-102720000D01*
G75*
G02*
X135035000Y-102572500I0J147500D01*
G01*
G37*
%TD*%
%TO.C,L2*%
G36*
G01*
X135227500Y-104275000D02*
X135572500Y-104275000D01*
G75*
G02*
X135720000Y-104422500I0J-147500D01*
G01*
X135720000Y-104717500D01*
G75*
G02*
X135572500Y-104865000I-147500J0D01*
G01*
X135227500Y-104865000D01*
G75*
G02*
X135080000Y-104717500I0J147500D01*
G01*
X135080000Y-104422500D01*
G75*
G02*
X135227500Y-104275000I147500J0D01*
G01*
G37*
G36*
G01*
X135227500Y-103305000D02*
X135572500Y-103305000D01*
G75*
G02*
X135720000Y-103452500I0J-147500D01*
G01*
X135720000Y-103747500D01*
G75*
G02*
X135572500Y-103895000I-147500J0D01*
G01*
X135227500Y-103895000D01*
G75*
G02*
X135080000Y-103747500I0J147500D01*
G01*
X135080000Y-103452500D01*
G75*
G02*
X135227500Y-103305000I147500J0D01*
G01*
G37*
%TD*%
%TO.C,L1*%
G36*
G01*
X134472500Y-102695000D02*
X134127500Y-102695000D01*
G75*
G02*
X133980000Y-102547500I0J147500D01*
G01*
X133980000Y-102252500D01*
G75*
G02*
X134127500Y-102105000I147500J0D01*
G01*
X134472500Y-102105000D01*
G75*
G02*
X134620000Y-102252500I0J-147500D01*
G01*
X134620000Y-102547500D01*
G75*
G02*
X134472500Y-102695000I-147500J0D01*
G01*
G37*
G36*
G01*
X134472500Y-103665000D02*
X134127500Y-103665000D01*
G75*
G02*
X133980000Y-103517500I0J147500D01*
G01*
X133980000Y-103222500D01*
G75*
G02*
X134127500Y-103075000I147500J0D01*
G01*
X134472500Y-103075000D01*
G75*
G02*
X134620000Y-103222500I0J-147500D01*
G01*
X134620000Y-103517500D01*
G75*
G02*
X134472500Y-103665000I-147500J0D01*
G01*
G37*
%TD*%
D14*
%TO.C,J1*%
X157700000Y-102000000D03*
D15*
X157500000Y-99175000D03*
X157500000Y-104825000D03*
%TD*%
%TO.C,C18*%
G36*
G01*
X141575000Y-98972500D02*
X141575000Y-98627500D01*
G75*
G02*
X141722500Y-98480000I147500J0D01*
G01*
X142017500Y-98480000D01*
G75*
G02*
X142165000Y-98627500I0J-147500D01*
G01*
X142165000Y-98972500D01*
G75*
G02*
X142017500Y-99120000I-147500J0D01*
G01*
X141722500Y-99120000D01*
G75*
G02*
X141575000Y-98972500I0J147500D01*
G01*
G37*
G36*
G01*
X140605000Y-98972500D02*
X140605000Y-98627500D01*
G75*
G02*
X140752500Y-98480000I147500J0D01*
G01*
X141047500Y-98480000D01*
G75*
G02*
X141195000Y-98627500I0J-147500D01*
G01*
X141195000Y-98972500D01*
G75*
G02*
X141047500Y-99120000I-147500J0D01*
G01*
X140752500Y-99120000D01*
G75*
G02*
X140605000Y-98972500I0J147500D01*
G01*
G37*
%TD*%
%TO.C,C17*%
G36*
G01*
X141605000Y-97872500D02*
X141605000Y-97527500D01*
G75*
G02*
X141752500Y-97380000I147500J0D01*
G01*
X142047500Y-97380000D01*
G75*
G02*
X142195000Y-97527500I0J-147500D01*
G01*
X142195000Y-97872500D01*
G75*
G02*
X142047500Y-98020000I-147500J0D01*
G01*
X141752500Y-98020000D01*
G75*
G02*
X141605000Y-97872500I0J147500D01*
G01*
G37*
G36*
G01*
X140635000Y-97872500D02*
X140635000Y-97527500D01*
G75*
G02*
X140782500Y-97380000I147500J0D01*
G01*
X141077500Y-97380000D01*
G75*
G02*
X141225000Y-97527500I0J-147500D01*
G01*
X141225000Y-97872500D01*
G75*
G02*
X141077500Y-98020000I-147500J0D01*
G01*
X140782500Y-98020000D01*
G75*
G02*
X140635000Y-97872500I0J147500D01*
G01*
G37*
%TD*%
%TO.C,C16*%
G36*
G01*
X142827500Y-98505000D02*
X143172500Y-98505000D01*
G75*
G02*
X143320000Y-98652500I0J-147500D01*
G01*
X143320000Y-98947500D01*
G75*
G02*
X143172500Y-99095000I-147500J0D01*
G01*
X142827500Y-99095000D01*
G75*
G02*
X142680000Y-98947500I0J147500D01*
G01*
X142680000Y-98652500D01*
G75*
G02*
X142827500Y-98505000I147500J0D01*
G01*
G37*
G36*
G01*
X142827500Y-97535000D02*
X143172500Y-97535000D01*
G75*
G02*
X143320000Y-97682500I0J-147500D01*
G01*
X143320000Y-97977500D01*
G75*
G02*
X143172500Y-98125000I-147500J0D01*
G01*
X142827500Y-98125000D01*
G75*
G02*
X142680000Y-97977500I0J147500D01*
G01*
X142680000Y-97682500D01*
G75*
G02*
X142827500Y-97535000I147500J0D01*
G01*
G37*
%TD*%
%TO.C,C15*%
G36*
G01*
X154372500Y-102295000D02*
X154027500Y-102295000D01*
G75*
G02*
X153880000Y-102147500I0J147500D01*
G01*
X153880000Y-101852500D01*
G75*
G02*
X154027500Y-101705000I147500J0D01*
G01*
X154372500Y-101705000D01*
G75*
G02*
X154520000Y-101852500I0J-147500D01*
G01*
X154520000Y-102147500D01*
G75*
G02*
X154372500Y-102295000I-147500J0D01*
G01*
G37*
G36*
G01*
X154372500Y-103265000D02*
X154027500Y-103265000D01*
G75*
G02*
X153880000Y-103117500I0J147500D01*
G01*
X153880000Y-102822500D01*
G75*
G02*
X154027500Y-102675000I147500J0D01*
G01*
X154372500Y-102675000D01*
G75*
G02*
X154520000Y-102822500I0J-147500D01*
G01*
X154520000Y-103117500D01*
G75*
G02*
X154372500Y-103265000I-147500J0D01*
G01*
G37*
%TD*%
%TO.C,C14*%
G36*
G01*
X151172500Y-102295000D02*
X150827500Y-102295000D01*
G75*
G02*
X150680000Y-102147500I0J147500D01*
G01*
X150680000Y-101852500D01*
G75*
G02*
X150827500Y-101705000I147500J0D01*
G01*
X151172500Y-101705000D01*
G75*
G02*
X151320000Y-101852500I0J-147500D01*
G01*
X151320000Y-102147500D01*
G75*
G02*
X151172500Y-102295000I-147500J0D01*
G01*
G37*
G36*
G01*
X151172500Y-103265000D02*
X150827500Y-103265000D01*
G75*
G02*
X150680000Y-103117500I0J147500D01*
G01*
X150680000Y-102822500D01*
G75*
G02*
X150827500Y-102675000I147500J0D01*
G01*
X151172500Y-102675000D01*
G75*
G02*
X151320000Y-102822500I0J-147500D01*
G01*
X151320000Y-103117500D01*
G75*
G02*
X151172500Y-103265000I-147500J0D01*
G01*
G37*
%TD*%
%TO.C,C13*%
G36*
G01*
X149727500Y-101705000D02*
X150072500Y-101705000D01*
G75*
G02*
X150220000Y-101852500I0J-147500D01*
G01*
X150220000Y-102147500D01*
G75*
G02*
X150072500Y-102295000I-147500J0D01*
G01*
X149727500Y-102295000D01*
G75*
G02*
X149580000Y-102147500I0J147500D01*
G01*
X149580000Y-101852500D01*
G75*
G02*
X149727500Y-101705000I147500J0D01*
G01*
G37*
G36*
G01*
X149727500Y-100735000D02*
X150072500Y-100735000D01*
G75*
G02*
X150220000Y-100882500I0J-147500D01*
G01*
X150220000Y-101177500D01*
G75*
G02*
X150072500Y-101325000I-147500J0D01*
G01*
X149727500Y-101325000D01*
G75*
G02*
X149580000Y-101177500I0J147500D01*
G01*
X149580000Y-100882500D01*
G75*
G02*
X149727500Y-100735000I147500J0D01*
G01*
G37*
%TD*%
%TO.C,C12*%
G36*
G01*
X146527500Y-101690000D02*
X146872500Y-101690000D01*
G75*
G02*
X147020000Y-101837500I0J-147500D01*
G01*
X147020000Y-102132500D01*
G75*
G02*
X146872500Y-102280000I-147500J0D01*
G01*
X146527500Y-102280000D01*
G75*
G02*
X146380000Y-102132500I0J147500D01*
G01*
X146380000Y-101837500D01*
G75*
G02*
X146527500Y-101690000I147500J0D01*
G01*
G37*
G36*
G01*
X146527500Y-100720000D02*
X146872500Y-100720000D01*
G75*
G02*
X147020000Y-100867500I0J-147500D01*
G01*
X147020000Y-101162500D01*
G75*
G02*
X146872500Y-101310000I-147500J0D01*
G01*
X146527500Y-101310000D01*
G75*
G02*
X146380000Y-101162500I0J147500D01*
G01*
X146380000Y-100867500D01*
G75*
G02*
X146527500Y-100720000I147500J0D01*
G01*
G37*
%TD*%
%TO.C,C9*%
G36*
G01*
X131875000Y-98172500D02*
X131875000Y-97827500D01*
G75*
G02*
X132022500Y-97680000I147500J0D01*
G01*
X132317500Y-97680000D01*
G75*
G02*
X132465000Y-97827500I0J-147500D01*
G01*
X132465000Y-98172500D01*
G75*
G02*
X132317500Y-98320000I-147500J0D01*
G01*
X132022500Y-98320000D01*
G75*
G02*
X131875000Y-98172500I0J147500D01*
G01*
G37*
G36*
G01*
X130905000Y-98172500D02*
X130905000Y-97827500D01*
G75*
G02*
X131052500Y-97680000I147500J0D01*
G01*
X131347500Y-97680000D01*
G75*
G02*
X131495000Y-97827500I0J-147500D01*
G01*
X131495000Y-98172500D01*
G75*
G02*
X131347500Y-98320000I-147500J0D01*
G01*
X131052500Y-98320000D01*
G75*
G02*
X130905000Y-98172500I0J147500D01*
G01*
G37*
%TD*%
%TO.C,C8*%
G36*
G01*
X131890000Y-99272500D02*
X131890000Y-98927500D01*
G75*
G02*
X132037500Y-98780000I147500J0D01*
G01*
X132332500Y-98780000D01*
G75*
G02*
X132480000Y-98927500I0J-147500D01*
G01*
X132480000Y-99272500D01*
G75*
G02*
X132332500Y-99420000I-147500J0D01*
G01*
X132037500Y-99420000D01*
G75*
G02*
X131890000Y-99272500I0J147500D01*
G01*
G37*
G36*
G01*
X130920000Y-99272500D02*
X130920000Y-98927500D01*
G75*
G02*
X131067500Y-98780000I147500J0D01*
G01*
X131362500Y-98780000D01*
G75*
G02*
X131510000Y-98927500I0J-147500D01*
G01*
X131510000Y-99272500D01*
G75*
G02*
X131362500Y-99420000I-147500J0D01*
G01*
X131067500Y-99420000D01*
G75*
G02*
X130920000Y-99272500I0J147500D01*
G01*
G37*
%TD*%
%TO.C,C7*%
G36*
G01*
X129495000Y-98927500D02*
X129495000Y-99272500D01*
G75*
G02*
X129347500Y-99420000I-147500J0D01*
G01*
X129052500Y-99420000D01*
G75*
G02*
X128905000Y-99272500I0J147500D01*
G01*
X128905000Y-98927500D01*
G75*
G02*
X129052500Y-98780000I147500J0D01*
G01*
X129347500Y-98780000D01*
G75*
G02*
X129495000Y-98927500I0J-147500D01*
G01*
G37*
G36*
G01*
X130465000Y-98927500D02*
X130465000Y-99272500D01*
G75*
G02*
X130317500Y-99420000I-147500J0D01*
G01*
X130022500Y-99420000D01*
G75*
G02*
X129875000Y-99272500I0J147500D01*
G01*
X129875000Y-98927500D01*
G75*
G02*
X130022500Y-98780000I147500J0D01*
G01*
X130317500Y-98780000D01*
G75*
G02*
X130465000Y-98927500I0J-147500D01*
G01*
G37*
%TD*%
%TO.C,C6*%
G36*
G01*
X139227500Y-102090000D02*
X139572500Y-102090000D01*
G75*
G02*
X139720000Y-102237500I0J-147500D01*
G01*
X139720000Y-102532500D01*
G75*
G02*
X139572500Y-102680000I-147500J0D01*
G01*
X139227500Y-102680000D01*
G75*
G02*
X139080000Y-102532500I0J147500D01*
G01*
X139080000Y-102237500D01*
G75*
G02*
X139227500Y-102090000I147500J0D01*
G01*
G37*
G36*
G01*
X139227500Y-101120000D02*
X139572500Y-101120000D01*
G75*
G02*
X139720000Y-101267500I0J-147500D01*
G01*
X139720000Y-101562500D01*
G75*
G02*
X139572500Y-101710000I-147500J0D01*
G01*
X139227500Y-101710000D01*
G75*
G02*
X139080000Y-101562500I0J147500D01*
G01*
X139080000Y-101267500D01*
G75*
G02*
X139227500Y-101120000I147500J0D01*
G01*
G37*
%TD*%
%TO.C,C5*%
G36*
G01*
X137625000Y-102227500D02*
X137625000Y-102572500D01*
G75*
G02*
X137477500Y-102720000I-147500J0D01*
G01*
X137182500Y-102720000D01*
G75*
G02*
X137035000Y-102572500I0J147500D01*
G01*
X137035000Y-102227500D01*
G75*
G02*
X137182500Y-102080000I147500J0D01*
G01*
X137477500Y-102080000D01*
G75*
G02*
X137625000Y-102227500I0J-147500D01*
G01*
G37*
G36*
G01*
X138595000Y-102227500D02*
X138595000Y-102572500D01*
G75*
G02*
X138447500Y-102720000I-147500J0D01*
G01*
X138152500Y-102720000D01*
G75*
G02*
X138005000Y-102572500I0J147500D01*
G01*
X138005000Y-102227500D01*
G75*
G02*
X138152500Y-102080000I147500J0D01*
G01*
X138447500Y-102080000D01*
G75*
G02*
X138595000Y-102227500I0J-147500D01*
G01*
G37*
%TD*%
%TO.C,C4*%
G36*
G01*
X136810000Y-105527500D02*
X136810000Y-105872500D01*
G75*
G02*
X136662500Y-106020000I-147500J0D01*
G01*
X136367500Y-106020000D01*
G75*
G02*
X136220000Y-105872500I0J147500D01*
G01*
X136220000Y-105527500D01*
G75*
G02*
X136367500Y-105380000I147500J0D01*
G01*
X136662500Y-105380000D01*
G75*
G02*
X136810000Y-105527500I0J-147500D01*
G01*
G37*
G36*
G01*
X137780000Y-105527500D02*
X137780000Y-105872500D01*
G75*
G02*
X137632500Y-106020000I-147500J0D01*
G01*
X137337500Y-106020000D01*
G75*
G02*
X137190000Y-105872500I0J147500D01*
G01*
X137190000Y-105527500D01*
G75*
G02*
X137337500Y-105380000I147500J0D01*
G01*
X137632500Y-105380000D01*
G75*
G02*
X137780000Y-105527500I0J-147500D01*
G01*
G37*
%TD*%
%TO.C,C3*%
G36*
G01*
X136810000Y-104427500D02*
X136810000Y-104772500D01*
G75*
G02*
X136662500Y-104920000I-147500J0D01*
G01*
X136367500Y-104920000D01*
G75*
G02*
X136220000Y-104772500I0J147500D01*
G01*
X136220000Y-104427500D01*
G75*
G02*
X136367500Y-104280000I147500J0D01*
G01*
X136662500Y-104280000D01*
G75*
G02*
X136810000Y-104427500I0J-147500D01*
G01*
G37*
G36*
G01*
X137780000Y-104427500D02*
X137780000Y-104772500D01*
G75*
G02*
X137632500Y-104920000I-147500J0D01*
G01*
X137337500Y-104920000D01*
G75*
G02*
X137190000Y-104772500I0J147500D01*
G01*
X137190000Y-104427500D01*
G75*
G02*
X137337500Y-104280000I147500J0D01*
G01*
X137632500Y-104280000D01*
G75*
G02*
X137780000Y-104427500I0J-147500D01*
G01*
G37*
%TD*%
%TO.C,C2*%
G36*
G01*
X128427500Y-107475000D02*
X128772500Y-107475000D01*
G75*
G02*
X128920000Y-107622500I0J-147500D01*
G01*
X128920000Y-107917500D01*
G75*
G02*
X128772500Y-108065000I-147500J0D01*
G01*
X128427500Y-108065000D01*
G75*
G02*
X128280000Y-107917500I0J147500D01*
G01*
X128280000Y-107622500D01*
G75*
G02*
X128427500Y-107475000I147500J0D01*
G01*
G37*
G36*
G01*
X128427500Y-106505000D02*
X128772500Y-106505000D01*
G75*
G02*
X128920000Y-106652500I0J-147500D01*
G01*
X128920000Y-106947500D01*
G75*
G02*
X128772500Y-107095000I-147500J0D01*
G01*
X128427500Y-107095000D01*
G75*
G02*
X128280000Y-106947500I0J147500D01*
G01*
X128280000Y-106652500D01*
G75*
G02*
X128427500Y-106505000I147500J0D01*
G01*
G37*
%TD*%
%TO.C,C1*%
G36*
G01*
X134372500Y-106395000D02*
X134027500Y-106395000D01*
G75*
G02*
X133880000Y-106247500I0J147500D01*
G01*
X133880000Y-105952500D01*
G75*
G02*
X134027500Y-105805000I147500J0D01*
G01*
X134372500Y-105805000D01*
G75*
G02*
X134520000Y-105952500I0J-147500D01*
G01*
X134520000Y-106247500D01*
G75*
G02*
X134372500Y-106395000I-147500J0D01*
G01*
G37*
G36*
G01*
X134372500Y-107365000D02*
X134027500Y-107365000D01*
G75*
G02*
X133880000Y-107217500I0J147500D01*
G01*
X133880000Y-106922500D01*
G75*
G02*
X134027500Y-106775000I147500J0D01*
G01*
X134372500Y-106775000D01*
G75*
G02*
X134520000Y-106922500I0J-147500D01*
G01*
X134520000Y-107217500D01*
G75*
G02*
X134372500Y-107365000I-147500J0D01*
G01*
G37*
%TD*%
M02*
